<?xml version="1.0" encoding="UTF-8"?>
<svg id="Capa_2" data-name="Capa 2" xmlns="http://www.w3.org/2000/svg" viewBox="0 0 10 9.03">
  <path d="M4.8,7.95v1.07c-.37-.69-1.13-.55-1.78-.47l-3.02.54,1.2-1.69,2.37-.42c.28-.03.54-.04.81,0,.28.06.45.28.4.57h-.56s0,.4,0,.4h.58Z"/>
  <path d="M6.75,8.53c-.28-.03-.52-.04-.77-.03-.35.05-.61.22-.77.53,0-.36.18-.61.37-.88.35-.39.7-.74,1.07-1.11l2.14.37,1.2,1.68-3.25-.55Z"/>
  <path d="M2.58,4.83c-.21-.81.17-1.44.74-2.01l1.63-1.64c.21-.21.39-.42.57-.64.13-.16.19-.34.25-.53.1.65-.07,1.1-.53,1.56l-1.52,1.52c-.27.26-.51.52-.74.81-.21.27-.31.56-.39.94Z"/>
  <path d="M2.86,5.96c-.52-.74,0-1.61.53-2.15l1.51-1.53c.23-.23.44-.46.64-.71.12-.15.17-.34.22-.52.1.7-.06,1.11-.55,1.6l-1.67,1.67c-.22.24-.41.47-.57.74-.15.28-.17.56-.12.89Z"/>
  <path d="M3.51,6.62c-.25-.01-.4-.22-.47-.45-.13-.48.03-.97.39-1.33l1.46-1.47c.23-.23.44-.46.64-.71.13-.16.18-.34.24-.53.1.69-.07,1.11-.56,1.6l-1.46,1.47c-.35.35-.71,1.08-.23,1.42Z"/>
  <path d="M5.21,7.5c-.03-.66-.05-.9.36-1.42.49-.61,1.07-1.01,1.44-1.64.17-.3.19-.6.13-.94.31.43.26.98.02,1.42-.19.35-.44.64-.72.92-.3.3-.6.59-.87.92-.19.22-.3.47-.36.75Z"/>
  <path d="M5.21,6.39c-.06-.68,0-1.06.49-1.56l.62-.63c.32-.33.61-1.03.18-1.37.26.03.41.25.46.49.11.45-.04.93-.37,1.27l-.87.91c-.25.26-.43.55-.51.9Z"/>
  <path d="M5.8,7.54h-.48c.18-.36.42-.62.69-.89.59-.63,1.29-1.13,1.41-2.03.18.65-.04,1.3-.49,1.77l-1.13,1.16Z"/>
  <path d="M5.43,7.96c-.1.22-.16.36-.23.56v-.56s.23,0,.23,0Z"/>
</svg>