<?xml version="1.0" encoding="UTF-8"?>
<svg id="Capa_2" data-name="Capa 2" xmlns="http://www.w3.org/2000/svg" viewBox="0 0 10 10">
  <defs>
    <style>
      .cls-1 {
        fill: #1d1d1b;
      }
    </style>
  </defs>
  <path class="cls-1" d="M9.98,1.98C9.86,1.07,7.87.02,5,.02S.14,1.07.02,1.98c-.23,1.63,2.08,8,4.98,8S10.21,3.61,9.98,1.98ZM6.14,4.8l-.67.69h-.28c.11-.22.25-.37.41-.53.35-.38.77-.67.84-1.21.11.39-.02.77-.29,1.05ZM4,2.68l.97-.98c.12-.12.23-.25.34-.38.08-.09.11-.2.15-.31.06.39-.04.65-.32.93l-.9.9c-.16.16-.3.31-.44.48-.13.16-.19.33-.23.56-.13-.48.1-.86.44-1.2ZM3.73,4.55c-.31-.44,0-.96.32-1.28l.9-.91c.14-.14.26-.27.38-.42.07-.09.1-.2.13-.31.06.41-.04.66-.33.95l-.99.99c-.13.14-.25.28-.34.44-.09.17-.1.33-.07.53ZM4.87,6.37c-.22-.41-.67-.33-1.05-.28l-1.79.32.71-1,1.41-.25c.17-.02.32-.03.48,0,.17.03.26.17.23.34h-.33s0,.23,0,.23h.34s0,.64,0,.64ZM4.25,4.1c-.21.21-.42.64-.14.85-.15,0-.24-.13-.28-.27-.08-.28.02-.58.23-.79l.87-.88c.14-.14.26-.27.38-.42.08-.09.11-.2.14-.31.06.41-.04.66-.33.95l-.87.87ZM5.41,3.87l.37-.38c.19-.2.36-.61.11-.81.15.02.24.15.28.29.07.27-.02.55-.22.75l-.52.54c-.15.16-.26.33-.3.53-.04-.41,0-.63.29-.93ZM5.34,4.62c.29-.36.64-.6.86-.97.1-.18.11-.35.08-.56.18.25.15.58.01.84-.11.21-.26.38-.43.55-.18.18-.35.35-.52.55-.11.13-.18.28-.21.44-.02-.39-.03-.54.21-.85ZM5.12,5.74h.14c-.06.13-.1.21-.14.33v-.33ZM6.04,6.08c-.17-.02-.31-.03-.46-.02-.21.03-.37.13-.46.31,0-.21.11-.37.22-.52.21-.23.42-.44.64-.66l1.27.22.72,1-1.93-.33Z"/>
</svg>