<?xml version="1.0" encoding="UTF-8"?>
<svg xmlns="http://www.w3.org/2000/svg" viewBox="0 0 792 612">
  <defs>
    <style>
      .cls-1 {
        stroke: #000100;
        stroke-width: .75px;
      }

      .cls-1, .cls-2 {
        fill: none;
        stroke-miterlimit: 10;
      }

      .cls-3 {
        fill: #111;
      }

      .cls-4 {
        fill: #213972;
      }

      .cls-4, .cls-5, .cls-6 {
        fill-rule: evenodd;
      }

      .cls-7, .cls-6 {
        fill: #ffcd07;
      }

      .cls-5 {
        fill: #007c3e;
      }

      .cls-8 {
        fill: #9a9999;
      }

      .cls-9 {
        fill: #101a2c;
      }

      .cls-10 {
        fill: #fff;
      }

      .cls-11 {
        fill: #3db4e5;
      }

      .cls-12 {
        fill: #badbbc;
      }

      .cls-13 {
        fill: #565656;
      }

      .cls-14 {
        opacity: .07;
      }

      .cls-15 {
        fill: #1e672e;
      }

      .cls-16 {
        fill: #046342;
      }

      .cls-2 {
        stroke: #1d1d1b;
      }

      .cls-17 {
        fill: #f2b200;
      }

      .cls-18 {
        fill: #0e0e0f;
      }
    </style>
  </defs>
  <g id="Capa_1" data-name="Capa 1">
    <g>
      <rect class="cls-3" y=".1" width="30.92" height="43.99"/>
      <rect class="cls-8" x="30.92" y=".1" width="40.96" height="43.99"/>
      <path class="cls-3" d="M125.86.1h-.01c-.58.35-19.02,11.42-19.02,43.99h-34.95V.1h53.98Z"/>
      <path class="cls-13" d="M152.96.1v43.99h-46.13C106.83,11.51,125.27.44,125.85.11h.01s27.1-.01,27.1-.01Z"/>
      <path class="cls-8" d="M30.92,44.08C30.92,92.17,0,95.77,0,95.77v-51.69h30.92Z"/>
      <rect class="cls-13" x="30.92" y="44.08" width="40.96" height="51.69"/>
      <path class="cls-3" d="M112.03,95.77h-40.15v-50.03c.21,8.08,3.23,43.12,40.15,50.03Z"/>
      <path class="cls-3" d="M152.96,44.1v40.15c-6.91-36.92-41.95-39.94-50.03-40.15h50.03Z"/>
      <path class="cls-3" d="M112.42,148.32v52.56h-40.55L0,109.06v-13.29s30.92-3.61,30.92-51.69v51.69h40.95v52.55h40.55Z"/>
      <path class="cls-2" d="M112.03,146.06v2.26s-.03-.82,0-2.26Z"/>
      <path class="cls-13" d="M112.03,95.77h-40.16v52.55h40.16s-.03-.82,0-2.26c.23-9.74,3.51-47.69,40.93-50.29h-40.93Z"/>
      <path class="cls-8" d="M152.96,95.77v52.55h-40.93v-2.26c.23-9.74,3.51-47.69,40.93-50.29Z"/>
      <path class="cls-13" d="M112.42,200.88v52.66H26.21c46.77-4.92,45.66-52.66,45.66-52.66h40.55Z"/>
      <rect class="cls-13" x="112.42" y="148.32" width="40.54" height="52.56"/>
      <path class="cls-3" d="M26.21,253.55H0v-32.54s9.55-18.64,37.57-20.12h34.3s1.11,47.74-45.66,52.66Z"/>
      <polygon class="cls-8" points="37.57 200.88 0 200.88 0 151.68 37.57 200.88"/>
      <polygon class="cls-13" points="71.87 200.88 37.57 200.88 0 151.68 0 109.06 71.87 200.88"/>
      <path class="cls-13" d="M37.57,200.88c-28.02,1.48-37.57,20.12-37.57,20.12v-20.12h37.57Z"/>
      <polygon class="cls-8" points="152.96 253.55 112.42 253.55 112.42 200.88 152.96 253.55"/>
      <polygon class="cls-3" points="152.96 200.88 152.96 253.55 112.42 200.88 152.96 200.88"/>
      <path class="cls-13" d="M69.77,305.9H0v-52.36h26.21c0,47.85,34.59,52.07,43.56,52.36Z"/>
      <path class="cls-2" d="M71.87,305.9s-.77.04-2.1,0h2.1Z"/>
      <path class="cls-8" d="M71.87,253.55v52.36h-2.1c-8.97-.29-43.56-4.51-43.56-52.36h45.66Z"/>
      <polygon class="cls-8" points="112.42 253.55 112.42 305.9 71.87 253.55 112.42 253.55"/>
      <polygon class="cls-3" points="112.42 305.9 71.87 305.9 71.87 253.55 112.42 305.9"/>
      <rect class="cls-13" x="112.42" y="253.55" width="40.54" height="52.36"/>
      <polygon class="cls-3" points="71.87 305.9 71.87 410.23 0 410.23 0 398.73 71.87 305.9"/>
      <polygon class="cls-13" points="71.87 305.9 35.93 305.92 0 355.89 0 398.73 71.87 305.9"/>
      <polygon class="cls-8" points="35.93 305.92 0 305.9 0 355.89 35.93 305.92"/>
      <path class="cls-8" d="M105.8,358.06c0,9.25-4.92,14.05-9.53,16.52-3.25,1.73-6.92,2.53-10.6,2.53h-13.8v-38.1h13.8c3.68,0,7.35.8,10.6,2.53,4.61,2.47,9.53,7.27,9.53,16.52Z"/>
      <path class="cls-13" d="M152.96,358.06c0,46.97-40.54,52.16-40.54,52.16h-40.55v-33.11h13.8c3.68,0,7.35-.8,10.6-2.53,4.61-2.47,9.53-7.27,9.53-16.52s-4.92-14.05-9.53-16.52c-3.25-1.73-6.92-2.53-10.6-2.53h-13.8v-33.11h40.55s40.54,5.19,40.54,52.16Z"/>
      <path class="cls-3" d="M131.17,358.06c0,11.88-5.71,19.52-12,24.33-6.54,5-14.65,7.52-22.89,7.52h-24.41v-12.8h13.8c3.68,0,7.35-.8,10.6-2.53,4.61-2.47,9.53-7.27,9.53-16.52s-4.92-14.05-9.53-16.52c-3.25-1.73-6.92-2.53-10.6-2.53h-13.8v-12.8h24.41c8.24,0,16.35,2.52,22.89,7.53,6.29,4.8,12,12.44,12,24.32Z"/>
      <path class="cls-3" d="M152.96,305.9v52.16c0-46.97-40.54-52.16-40.54-52.16h40.54Z"/>
      <path class="cls-3" d="M152.96,358.06v104.53h-40.54v-52.37s40.54-5.19,40.54-52.16Z"/>
      <rect class="cls-8" x="71.87" y="410.23" width="40.55" height="52.37"/>
      <rect class="cls-13" x="112.42" y="462.6" width="40.54" height="52.5"/>
      <path class="cls-3" d="M71.87,515.1H0v-92.41l17.36,22.32c-4.49,4.26-7.33,10.59-7.33,17.66,0,12.87,9.43,23.3,21.06,23.3,5.24,0,10.05-2.13,13.74-5.64l27.04,34.77Z"/>
      <path class="cls-3" d="M112.42,462.6v26.25c0-14.5-10.56-26.25-23.58-26.25h23.58Z"/>
      <path class="cls-13" d="M112.42,488.85c0,14.5-10.56,26.25-23.58,26.25h-16.97l-27.04-34.77c4.49-4.27,7.33-10.6,7.33-17.66,0-12.88-9.44-23.31-21.07-23.31-5.24,0-10.04,2.12-13.73,5.65L0,422.68v-12.46h71.87v52.37h16.97c13.02,0,23.58,11.75,23.58,26.25Z"/>
      <path class="cls-8" d="M52.16,462.67c0,7.06-2.84,13.39-7.33,17.66-3.69,3.51-8.5,5.64-13.74,5.64-11.63,0-21.06-10.43-21.06-23.3,0-7.07,2.84-13.4,7.33-17.66,3.69-3.53,8.49-5.65,13.73-5.65,11.63,0,21.07,10.43,21.07,23.31Z"/>
      <path class="cls-8" d="M31.1,567.32H0v-52.23h71.87s.58,43.81-40.77,52.23Z"/>
      <path class="cls-3" d="M112.42,488.85v78.48H31.1c41.35-8.42,40.77-52.23,40.77-52.23h16.97c13.02,0,23.58-11.75,23.58-26.25Z"/>
      <rect class="cls-8" x="112.42" y="515.1" width="40.54" height="52.23"/>
      <rect class="cls-13" x="112.42" y="567.32" width="40.54" height="44.58"/>
      <rect class="cls-8" x="71.87" y="567.32" width="40.55" height="44.39"/>
      <rect class="cls-13" y="567.32" width="71.87" height="44.39"/>
      <path class="cls-8" d="M152.96,84.24v11.53h-40.93c-36.92-6.91-39.94-41.95-40.15-50.03v-1.66h30.06c-.44,0-.67.01-.67.01h1.66c8.08.21,43.12,3.23,50.03,40.15Z"/>
    </g>
    <g>
      <rect class="cls-3" x="761.08" y="567.91" width="30.92" height="43.99" transform="translate(1553.08 1179.82) rotate(180)"/>
      <rect class="cls-8" x="720.12" y="567.91" width="40.96" height="43.99" transform="translate(1481.2 1179.82) rotate(180)"/>
      <path class="cls-3" d="M666.14,611.9h.01c.58-.35,19.02-11.42,19.02-43.99h34.95v43.99h-53.98Z"/>
      <path class="cls-13" d="M639.04,611.9v-43.99h46.13c0,32.57-18.44,43.64-19.02,43.98h-.01s-27.1.01-27.1.01Z"/>
      <path class="cls-8" d="M761.08,567.92c0-48.08,30.92-51.69,30.92-51.69v51.69h-30.92Z"/>
      <rect class="cls-13" x="720.12" y="516.23" width="40.96" height="51.69"/>
      <path class="cls-3" d="M679.97,516.23h40.15v50.03c-.21-8.08-3.23-43.12-40.15-50.03Z"/>
      <path class="cls-3" d="M639.04,567.9v-40.15c6.91,36.92,41.95,39.94,50.03,40.15h-50.03Z"/>
      <path class="cls-3" d="M679.58,463.68v-52.56h40.55l71.87,91.82v13.29s-30.92,3.61-30.92,51.69v-51.69h-40.95v-52.55h-40.55Z"/>
      <path class="cls-2" d="M679.97,465.94v-2.26s.03.82,0,2.26Z"/>
      <path class="cls-13" d="M679.97,516.23h40.16v-52.55h-40.16s.03.82,0,2.26c-.23,9.74-3.51,47.69-40.93,50.29h40.93Z"/>
      <path class="cls-8" d="M639.04,516.23v-52.55h40.93v2.26c-.23,9.74-3.51,47.69-40.93,50.29Z"/>
      <path class="cls-13" d="M679.58,411.12v-52.66h86.21c-46.77,4.92-45.66,52.66-45.66,52.66h-40.55Z"/>
      <rect class="cls-13" x="639.04" y="411.12" width="40.54" height="52.56"/>
      <path class="cls-3" d="M765.79,358.45h26.21v32.54s-9.55,18.64-37.57,20.12h-34.3s-1.11-47.74,45.66-52.66Z"/>
      <polygon class="cls-8" points="754.43 411.12 792 411.12 792 460.32 754.43 411.12"/>
      <polygon class="cls-13" points="720.13 411.12 754.43 411.12 792 460.32 792 502.94 720.13 411.12"/>
      <path class="cls-13" d="M754.43,411.12c28.02-1.48,37.57-20.12,37.57-20.12v20.12h-37.57Z"/>
      <polygon class="cls-8" points="639.04 358.45 679.58 358.45 679.58 411.12 639.04 358.45"/>
      <polygon class="cls-3" points="639.04 411.12 639.04 358.45 679.58 411.12 639.04 411.12"/>
      <path class="cls-13" d="M722.23,306.1h69.77v52.36h-26.21c0-47.85-34.59-52.07-43.56-52.36Z"/>
      <path class="cls-2" d="M720.13,306.1s.77-.04,2.1,0h-2.1Z"/>
      <path class="cls-8" d="M720.13,358.45v-52.36h2.1c8.97.29,43.56,4.51,43.56,52.36h-45.66Z"/>
      <polygon class="cls-8" points="679.58 358.45 679.58 306.1 720.13 358.45 679.58 358.45"/>
      <polygon class="cls-3" points="679.58 306.1 720.13 306.1 720.13 358.45 679.58 306.1"/>
      <rect class="cls-13" x="639.04" y="306.1" width="40.54" height="52.36"/>
      <polygon class="cls-3" points="720.13 306.1 720.13 201.77 792 201.77 792 213.27 720.13 306.1"/>
      <polygon class="cls-13" points="720.13 306.1 756.07 306.08 792 256.11 792 213.27 720.13 306.1"/>
      <polygon class="cls-8" points="756.07 306.08 792 306.1 792 256.11 756.07 306.08"/>
      <path class="cls-8" d="M686.2,253.94c0-9.25,4.92-14.05,9.53-16.52,3.25-1.73,6.92-2.53,10.6-2.53h13.8v38.1h-13.8c-3.68,0-7.35-.8-10.6-2.53-4.61-2.47-9.53-7.27-9.53-16.52Z"/>
      <path class="cls-13" d="M639.04,253.94c0-46.97,40.54-52.16,40.54-52.16h40.55v33.11h-13.8c-3.68,0-7.35.8-10.6,2.53-4.61,2.47-9.53,7.27-9.53,16.52s4.92,14.05,9.53,16.52c3.25,1.73,6.92,2.53,10.6,2.53h13.8v33.11h-40.55s-40.54-5.19-40.54-52.16Z"/>
      <path class="cls-3" d="M660.83,253.94c0-11.88,5.71-19.52,12-24.33,6.54-5,14.65-7.52,22.89-7.52h24.41v12.8h-13.8c-3.68,0-7.35.8-10.6,2.53-4.61,2.47-9.53,7.27-9.53,16.52s4.92,14.05,9.53,16.52c3.25,1.73,6.92,2.53,10.6,2.53h13.8v12.8h-24.41c-8.24,0-16.35-2.52-22.89-7.53-6.29-4.8-12-12.44-12-24.32Z"/>
      <path class="cls-3" d="M639.04,306.1v-52.16c0,46.97,40.54,52.16,40.54,52.16h-40.54Z"/>
      <path class="cls-3" d="M639.04,253.94v-104.53h40.54v52.37s-40.54,5.19-40.54,52.16Z"/>
      <rect class="cls-8" x="679.58" y="149.4" width="40.55" height="52.37"/>
      <rect class="cls-13" x="639.04" y="96.9" width="40.54" height="52.5"/>
      <path class="cls-3" d="M720.13,96.9h71.87v92.41l-17.36-22.32c4.49-4.26,7.33-10.59,7.33-17.66,0-12.87-9.43-23.3-21.06-23.3-5.24,0-10.05,2.13-13.74,5.64l-27.04-34.77Z"/>
      <path class="cls-3" d="M679.58,149.4v-26.25c0,14.5,10.56,26.25,23.58,26.25h-23.58Z"/>
      <path class="cls-13" d="M679.58,123.15c0-14.5,10.56-26.25,23.58-26.25h16.97l27.04,34.77c-4.49,4.27-7.33,10.6-7.33,17.66,0,12.88,9.44,23.31,21.07,23.31,5.24,0,10.04-2.12,13.73-5.65l17.36,22.32v12.46h-71.87v-52.37h-16.97c-13.02,0-23.58-11.75-23.58-26.25Z"/>
      <path class="cls-8" d="M739.84,149.33c0-7.06,2.84-13.39,7.33-17.66,3.69-3.51,8.5-5.64,13.74-5.64,11.63,0,21.06,10.43,21.06,23.3,0,7.07-2.84,13.4-7.33,17.66-3.69,3.53-8.49,5.65-13.73,5.65-11.63,0-21.07-10.43-21.07-23.31Z"/>
      <path class="cls-8" d="M760.9,44.68h31.1v52.23h-71.87s-.58-43.81,40.77-52.23Z"/>
      <path class="cls-3" d="M679.58,123.15V44.68h81.32c-41.35,8.42-40.77,52.23-40.77,52.23h-16.97c-13.02,0-23.58,11.75-23.58,26.25Z"/>
      <rect class="cls-8" x="639.04" y="44.68" width="40.54" height="52.23"/>
      <rect class="cls-13" x="639.04" y=".1" width="40.54" height="44.58"/>
      <rect class="cls-8" x="679.58" y=".29" width="40.55" height="44.39"/>
      <rect class="cls-13" x="720.13" y=".29" width="71.87" height="44.39"/>
      <path class="cls-8" d="M639.04,527.76v-11.53h40.93c36.92,6.91,39.94,41.95,40.15,50.03v1.66h-30.06c.44,0,.67-.01.67-.01h-1.66c-8.08-.21-43.12-3.23-50.03-40.15Z"/>
    </g>
    <g>
      <path class="cls-18" d="M251.78,155.37c-5.48,0-10.02-1.8-13.62-5.41-3.57-3.6-5.36-8.13-5.36-13.57s1.79-9.95,5.36-13.52c3.57-3.64,8.11-5.46,13.62-5.46,3.29,0,6.34.78,9.15,2.34s5.01,3.66,6.6,6.29l-8.06,4.63c-.69-1.28-1.72-2.3-3.09-3.04-1.37-.75-2.9-1.12-4.6-1.12-2.88,0-5.23.92-7.07,2.76-1.77,1.84-2.65,4.21-2.65,7.12s.88,5.37,2.65,7.18c1.8,1.8,4.16,2.7,7.07,2.7,1.7,0,3.23-.37,4.6-1.12,1.37-.75,2.4-1.78,3.09-3.09l8.06,4.68c-1.59,2.67-3.79,4.78-6.58,6.32-2.79,1.54-5.85,2.31-9.18,2.31Z"/>
      <path class="cls-18" d="M280.17,140.5v5.36h14.09v8.74h-23.4v-36.4h23.14v8.68h-13.83v5.04h12.53v8.58h-12.53Z"/>
      <path class="cls-18" d="M327.65,154.59h-9.98l-6.34-11.75h-3.33v11.75h-9.31v-36.4h14.56c3.71,0,6.81,1.2,9.31,3.59,2.53,2.32,3.8,5.32,3.8,9,0,2.15-.55,4.14-1.66,5.98-1.11,1.84-2.62,3.29-4.52,4.37l7.49,13.47ZM313.14,126.77h-5.15v8.16h5.15c1.14.03,2.08-.33,2.81-1.09.73-.76,1.09-1.75,1.09-2.96s-.36-2.2-1.09-2.96c-.73-.76-1.66-1.14-2.81-1.14Z"/>
      <path class="cls-18" d="M327.8,118.19h27.3v9h-9v27.4h-9.31v-27.4h-9v-9Z"/>
      <path class="cls-18" d="M358.48,154.59v-36.4h9.31v36.4h-9.31Z"/>
      <path class="cls-18" d="M395.87,118.19v9h-13.05v5.93h12.79v9h-12.79v12.48h-9.31v-36.4h22.36Z"/>
      <path class="cls-18" d="M400.45,154.59v-36.4h9.31v36.4h-9.31Z"/>
      <path class="cls-18" d="M433.05,155.37c-5.48,0-10.02-1.8-13.62-5.41-3.57-3.6-5.36-8.13-5.36-13.57s1.79-9.95,5.36-13.52c3.57-3.64,8.11-5.46,13.62-5.46,3.29,0,6.34.78,9.15,2.34,2.81,1.56,5.01,3.66,6.6,6.29l-8.06,4.63c-.69-1.28-1.72-2.3-3.09-3.04-1.37-.75-2.9-1.12-4.6-1.12-2.88,0-5.23.92-7.07,2.76-1.77,1.84-2.65,4.21-2.65,7.12s.88,5.37,2.65,7.18c1.8,1.8,4.16,2.7,7.07,2.7,1.7,0,3.23-.37,4.6-1.12,1.37-.75,2.4-1.78,3.09-3.09l8.06,4.68c-1.6,2.67-3.79,4.78-6.58,6.32-2.79,1.54-5.85,2.31-9.18,2.31Z"/>
      <path class="cls-18" d="M484.37,154.59h-10.04l-1.56-5.25h-12.12l-1.56,5.25h-10.09l12.01-36.4h11.34l12.01,36.4ZM466.69,128.96l-3.64,12.38h7.33l-3.69-12.38Z"/>
      <path class="cls-18" d="M487.02,118.19h14.82c4.99,0,9.19,1.75,12.58,5.25,3.4,3.5,5.1,7.82,5.1,12.95s-1.7,9.5-5.1,13c-3.36,3.47-7.56,5.2-12.58,5.2h-14.82v-36.4ZM496.59,145.6h5.25c2.5,0,4.56-.83,6.19-2.5,1.59-1.7,2.39-3.93,2.39-6.71s-.8-5.03-2.39-6.66c-1.59-1.7-3.66-2.55-6.19-2.55h-5.25v18.41Z"/>
      <path class="cls-18" d="M555.04,149.91c-3.71,3.64-8.22,5.46-13.52,5.46s-9.9-1.82-13.57-5.46c-3.67-3.67-5.51-8.18-5.51-13.52s1.84-9.83,5.51-13.47c3.67-3.67,8.2-5.51,13.57-5.51s9.84,1.84,13.52,5.51c3.71,3.64,5.56,8.13,5.56,13.47s-1.85,9.81-5.56,13.52ZM534.5,143.52c1.91,1.84,4.25,2.76,7.02,2.76s5.11-.92,7.02-2.76c1.87-1.87,2.81-4.25,2.81-7.12s-.94-5.27-2.81-7.07c-1.87-1.87-4.21-2.81-7.02-2.81s-5.15.94-7.02,2.81c-1.87,1.8-2.81,4.16-2.81,7.07s.94,5.25,2.81,7.12Z"/>
    </g>
    <g>
      <path class="cls-18" d="M234.07,165.63h6.95c2.45,0,4.48.87,6.07,2.62,1.61,1.72,2.42,3.84,2.42,6.38s-.81,4.67-2.42,6.41c-1.6,1.73-3.62,2.6-6.07,2.6h-6.95v-18.01ZM235.87,181.94h5.15c1.97,0,3.58-.7,4.84-2.11,1.27-1.42,1.9-3.16,1.9-5.2s-.63-3.77-1.9-5.2c-1.25-1.41-2.86-2.11-4.84-2.11h-5.15v14.61Z"/>
      <path class="cls-18" d="M264.69,175.41v6.54h8.75v1.7h-10.55v-18.01h10.42v1.7h-8.62v6.38h7.98v1.7h-7.98Z"/>
      <path class="cls-18" d="M303.54,183.64v-18.01h1.8v18.01h-1.8Z"/>
      <path class="cls-18" d="M331.33,180.29v-14.67h1.8v18.01h-1.54l-10.03-14.67v14.67h-1.8v-18.01h1.54l10.03,14.67Z"/>
      <path class="cls-18" d="M354.23,183.64h-1.85l-6.64-18.01h1.96l5.61,15.62,5.61-15.62h1.96l-6.64,18.01Z"/>
      <path class="cls-18" d="M375.28,175.41v6.54h8.75v1.7h-10.55v-18.01h10.42v1.7h-8.62v6.38h7.98v1.7h-7.98Z"/>
      <path class="cls-18" d="M403.06,183.95c-1.65,0-3.06-.39-4.23-1.17-1.18-.78-1.99-1.86-2.46-3.23l1.54-.9c.33,1.13.93,2.01,1.81,2.62.88.62,2,.93,3.36.93s2.36-.29,3.11-.87c.75-.58,1.13-1.37,1.13-2.37,0-.94-.34-1.66-1.03-2.14-.67-.48-1.8-.98-3.4-1.49-1.9-.63-3.14-1.13-3.71-1.49-1.37-.82-2.06-2.02-2.06-3.58s.53-2.73,1.6-3.6c1.05-.89,2.36-1.34,3.94-1.34,1.35,0,2.56.36,3.6,1.07,1.05.71,1.83,1.65,2.34,2.82l-1.52.85c-.82-1.99-2.3-2.98-4.43-2.98-1.13,0-2.04.28-2.71.84s-1.02,1.32-1.02,2.28c0,.91.31,1.58.93,2.01.63.45,1.66.9,3.06,1.36l1.39.49c.29.09.7.24,1.23.46.58.22.99.41,1.21.57.91.55,1.48,1.06,1.72,1.52.43.69.64,1.46.64,2.32,0,1.53-.56,2.75-1.67,3.68-1.12.91-2.58,1.36-4.4,1.36Z"/>
      <path class="cls-18" d="M420.33,165.63h12.87v1.7h-5.53v16.31h-1.8v-16.31h-5.53v-1.7Z"/>
      <path class="cls-18" d="M446.06,183.64v-18.01h1.8v18.01h-1.8Z"/>
      <path class="cls-18" d="M462.27,165.63h6.95c2.45,0,4.48.87,6.07,2.62,1.61,1.72,2.42,3.84,2.42,6.38s-.81,4.67-2.42,6.41c-1.6,1.73-3.62,2.6-6.07,2.6h-6.95v-18.01ZM464.07,181.94h5.15c1.97,0,3.59-.7,4.84-2.11,1.27-1.42,1.9-3.16,1.9-5.2s-.63-3.77-1.9-5.2c-1.25-1.41-2.86-2.11-4.84-2.11h-5.15v14.61Z"/>
      <path class="cls-18" d="M490.7,177.52v-11.89h1.8v11.89c0,1.46.43,2.6,1.3,3.44.87.83,2.06,1.25,3.59,1.25s2.72-.42,3.59-1.25c.87-.83,1.3-1.98,1.3-3.44v-11.89h1.8v11.89c0,1.96-.62,3.52-1.85,4.68-1.25,1.17-2.86,1.75-4.84,1.75s-3.59-.58-4.84-1.75c-1.23-1.17-1.85-2.73-1.85-4.68Z"/>
      <path class="cls-18" d="M531.35,183.64h-2.06l-4.22-7.2h-5.04v7.2h-1.8v-18.01h7.2c1.47,0,2.74.53,3.81,1.6,1.06,1.06,1.6,2.33,1.6,3.81,0,1.23-.37,2.32-1.11,3.27-.7.93-1.63,1.56-2.78,1.9l4.4,7.44ZM525.43,167.33h-5.4v7.41h5.4c.99,0,1.84-.36,2.55-1.08.7-.75,1.06-1.63,1.06-2.62s-.35-1.89-1.06-2.62c-.7-.72-1.55-1.08-2.55-1.08Z"/>
      <path class="cls-18" d="M558.11,183.64h-1.9l-1.67-4.43h-8.54l-1.67,4.43h-1.9l6.92-18.01h1.85l6.92,18.01ZM550.26,167.87l-3.63,9.65h7.26l-3.63-9.65Z"/>
    </g>
    <line class="cls-1" x1="188.83" y1="271.95" x2="603.17" y2="271.95"/>
    <g>
      <path class="cls-9" d="M277.4,577.06h2.85c.99,0,1.81.35,2.47,1.06.66.7.99,1.56.99,2.59s-.33,1.88-.99,2.6c-.66.7-1.48,1.05-2.47,1.05h-2.85v-7.3ZM278.37,583.44h1.88c.74,0,1.35-.26,1.82-.78.47-.53.71-1.18.71-1.95s-.24-1.42-.71-1.95c-.47-.52-1.08-.78-1.82-.78h-1.88v5.46Z"/>
      <path class="cls-9" d="M285.25,578.2c-.17,0-.32-.06-.44-.18s-.18-.26-.18-.43.06-.31.18-.43.26-.18.44-.18.31.06.43.18.18.27.18.43-.06.31-.18.43-.26.18-.43.18ZM285.7,584.36h-.91v-5.21h.91v5.21Z"/>
      <path class="cls-9" d="M287.99,579.15v.88c.3-.65.84-.97,1.63-.97v.95c-.44-.02-.83.1-1.15.35s-.48.67-.48,1.24v2.76h-.91v-5.21h.91Z"/>
      <path class="cls-9" d="M295.23,582.17h-4.37c.09.46.3.82.64,1.08s.75.39,1.25.39c.69,0,1.19-.25,1.5-.76l.77.44c-.51.79-1.28,1.18-2.29,1.18-.82,0-1.49-.26-2.02-.77-.51-.53-.77-1.19-.77-1.97s.25-1.45.76-1.96c.51-.52,1.16-.78,1.97-.78.76,0,1.39.27,1.87.81.49.53.73,1.17.73,1.94,0,.13-.01.27-.03.41ZM292.66,579.87c-.48,0-.88.14-1.2.41-.32.27-.52.64-.6,1.1h3.48c-.08-.48-.27-.85-.57-1.12-.31-.26-.67-.4-1.1-.4Z"/>
      <path class="cls-9" d="M298.74,584.5c-.79,0-1.44-.26-1.96-.78-.52-.53-.78-1.18-.78-1.96s.26-1.43.78-1.95c.52-.53,1.17-.79,1.96-.79.51,0,.98.12,1.39.37.41.25.72.58.92,1l-.76.44c-.13-.28-.34-.5-.61-.67-.27-.17-.59-.25-.93-.25-.52,0-.96.18-1.31.53-.35.36-.52.8-.52,1.32s.17.95.52,1.31c.35.35.79.53,1.31.53.35,0,.66-.08.94-.24.28-.16.49-.38.64-.66l.77.45c-.23.42-.55.75-.97.99s-.88.37-1.38.37Z"/>
      <path class="cls-9" d="M304.82,579.15v.88h-1.39v2.83c0,.26.05.44.15.55.1.11.26.16.46.17s.47,0,.77-.02v.81c-.8.1-1.38.04-1.75-.2-.36-.24-.55-.67-.55-1.31v-2.83h-1.03v-.88h1.03v-1.19l.91-.27v1.46h1.39Z"/>
      <path class="cls-9" d="M310.03,583.7c-.53.53-1.18.79-1.95.79s-1.42-.26-1.95-.79-.79-1.18-.79-1.95.26-1.42.79-1.95c.53-.53,1.18-.79,1.95-.79s1.42.26,1.95.79c.54.54.8,1.19.8,1.95s-.27,1.41-.8,1.95ZM308.08,583.61c.52,0,.96-.18,1.31-.53s.53-.8.53-1.32-.18-.97-.53-1.32-.79-.53-1.31-.53-.95.18-1.3.53-.53.8-.53,1.32.18.97.53,1.32.79.53,1.3.53Z"/>
      <path class="cls-9" d="M312.82,579.15v.88c.3-.65.84-.97,1.63-.97v.95c-.44-.02-.83.1-1.15.35s-.48.67-.48,1.24v2.76h-.91v-5.21h.91Z"/>
    </g>
    <line class="cls-1" x1="231.83" y1="569.29" x2="360.01" y2="569.29"/>
    <g>
      <path class="cls-9" d="M419.12,584.36v-7.3h.97v7.3h-.97Z"/>
      <path class="cls-9" d="M424.15,579.01c.61,0,1.1.19,1.47.58.37.39.55.91.55,1.57v3.2h-.91v-3.15c0-.42-.11-.74-.34-.98s-.55-.35-.95-.35c-.47,0-.83.14-1.11.43s-.41.72-.41,1.29v2.76h-.91v-5.21h.91v.75c.36-.59.92-.89,1.69-.89Z"/>
      <path class="cls-9" d="M428.22,580.55c0,.33.34.59,1.03.78.26.06.47.11.65.17.18.06.37.15.58.27s.37.27.48.47c.11.19.17.42.17.69,0,.47-.18.85-.55,1.14-.37.29-.83.43-1.4.43-.5,0-.93-.11-1.3-.33-.37-.22-.62-.52-.78-.89l.78-.45c.08.25.24.45.47.59.23.15.5.22.82.22s.56-.06.75-.18c.19-.12.28-.3.28-.53,0-.35-.34-.61-1.03-.77-.23-.06-.4-.11-.52-.15s-.28-.1-.48-.19-.36-.19-.46-.29c-.1-.1-.2-.24-.29-.41s-.13-.36-.13-.57c0-.45.17-.82.52-1.12.35-.29.8-.44,1.32-.44.42,0,.8.1,1.13.29.33.19.58.46.75.8l-.76.43c-.19-.44-.56-.67-1.12-.67-.26,0-.48.06-.66.19-.18.13-.27.3-.27.51Z"/>
      <path class="cls-9" d="M434.84,579.15v.88h-1.39v2.83c0,.26.05.44.15.55s.26.16.46.17c.21,0,.47,0,.77-.02v.81c-.8.1-1.38.04-1.75-.2-.37-.24-.55-.67-.55-1.31v-2.83h-1.03v-.88h1.03v-1.19l.91-.27v1.46h1.39Z"/>
      <path class="cls-9" d="M436.85,579.15v.88c.3-.65.84-.97,1.63-.97v.95c-.44-.02-.83.1-1.15.35-.32.26-.48.67-.48,1.24v2.76h-.91v-5.21h.91Z"/>
      <path class="cls-9" d="M442.96,581.91v-2.76h.91v5.21h-.91v-.75c-.36.59-.92.89-1.69.89-.61,0-1.1-.19-1.47-.58-.37-.39-.55-.91-.55-1.57v-3.2h.91v3.15c0,.42.11.74.34.98.23.24.55.35.95.35.46,0,.83-.14,1.1-.43.27-.29.41-.72.41-1.29Z"/>
      <path class="cls-9" d="M447.7,584.5c-.79,0-1.44-.26-1.96-.78-.52-.53-.78-1.18-.78-1.96s.26-1.43.78-1.95c.52-.53,1.17-.79,1.96-.79.51,0,.98.12,1.39.37.41.25.72.58.92,1l-.76.44c-.13-.28-.33-.5-.61-.67-.28-.17-.59-.25-.93-.25-.52,0-.96.18-1.31.53-.35.36-.52.8-.52,1.32s.17.95.52,1.31c.35.35.79.53,1.31.53.35,0,.66-.08.94-.24.28-.16.49-.38.64-.66l.77.45c-.23.42-.55.75-.97.99s-.88.37-1.38.37Z"/>
      <path class="cls-9" d="M453.77,579.15v.88h-1.39v2.83c0,.26.05.44.15.55s.26.16.46.17c.21,0,.47,0,.77-.02v.81c-.8.1-1.38.04-1.75-.2-.37-.24-.55-.67-.55-1.31v-2.83h-1.03v-.88h1.03v-1.19l.91-.27v1.46h1.39Z"/>
      <path class="cls-9" d="M458.99,583.7c-.53.53-1.18.79-1.95.79s-1.42-.26-1.95-.79-.79-1.18-.79-1.95.26-1.42.79-1.95c.53-.53,1.18-.79,1.95-.79s1.42.26,1.95.79c.54.54.8,1.19.8,1.95s-.27,1.41-.8,1.95ZM457.04,583.61c.52,0,.96-.18,1.31-.53s.53-.8.53-1.32-.18-.97-.53-1.32-.79-.53-1.31-.53-.95.18-1.3.53-.53.8-.53,1.32.18.97.53,1.32.79.53,1.3.53Z"/>
      <path class="cls-9" d="M461.77,579.15v.88c.3-.65.84-.97,1.63-.97v.95c-.44-.02-.83.1-1.15.35-.32.26-.48.67-.48,1.24v2.76h-.91v-5.21h.91Z"/>
      <path class="cls-9" d="M468.7,576.02l-4.17,9.38h-.54l4.17-9.38h.54Z"/>
      <path class="cls-9" d="M474.1,580.04v-.9h.91v5.21h-.91v-.9c-.45.69-1.1,1.03-1.97,1.03-.74,0-1.36-.26-1.87-.79-.51-.54-.77-1.19-.77-1.95s.26-1.4.77-1.94,1.14-.8,1.87-.8c.87,0,1.53.34,1.97,1.03ZM472.25,583.62c.53,0,.97-.18,1.32-.53.35-.37.53-.81.53-1.33s-.18-.97-.53-1.32c-.35-.36-.8-.54-1.32-.54s-.96.18-1.31.54c-.35.35-.53.8-.53,1.32s.18.97.53,1.33c.35.35.79.53,1.31.53Z"/>
      <path class="cls-9" d="M482.52,584.5c-1.11,0-2.03-.37-2.74-1.09-.72-.72-1.07-1.62-1.07-2.69s.36-1.97,1.07-2.69c.72-.73,1.63-1.09,2.74-1.09.66,0,1.27.16,1.83.48.56.32,1,.75,1.31,1.29l-.84.49c-.21-.4-.52-.72-.93-.96-.41-.24-.87-.36-1.37-.36-.85,0-1.54.27-2.06.81-.53.54-.79,1.21-.79,2.03s.26,1.49.79,2.02c.53.54,1.22.81,2.06.81.5,0,.96-.12,1.37-.36.41-.24.72-.56.93-.95l.84.48c-.31.54-.74.98-1.3,1.3-.56.32-1.17.48-1.85.48Z"/>
      <path class="cls-9" d="M487.6,584.36h-.91v-7.61h.91v7.61Z"/>
      <path class="cls-9" d="M493.31,580.04v-.9h.91v5.21h-.91v-.9c-.45.69-1.1,1.03-1.97,1.03-.74,0-1.36-.26-1.87-.79-.51-.54-.77-1.19-.77-1.95s.26-1.4.77-1.94,1.14-.8,1.87-.8c.87,0,1.53.34,1.97,1.03ZM491.45,583.62c.53,0,.97-.18,1.32-.53.35-.37.53-.81.53-1.33s-.18-.97-.53-1.32c-.35-.36-.8-.54-1.32-.54s-.96.18-1.31.54c-.35.35-.53.8-.53,1.32s.18.97.53,1.33c.35.35.79.53,1.31.53Z"/>
      <path class="cls-9" d="M496.36,580.55c0,.33.34.59,1.03.78.26.06.47.11.65.17.18.06.37.15.58.27.21.12.37.27.48.47.11.19.17.42.17.69,0,.47-.18.85-.55,1.14-.37.29-.83.43-1.4.43-.5,0-.93-.11-1.3-.33-.36-.22-.62-.52-.78-.89l.78-.45c.08.25.24.45.47.59s.5.22.82.22.56-.06.75-.18.28-.3.28-.53c0-.35-.34-.61-1.03-.77-.23-.06-.4-.11-.52-.15s-.28-.1-.49-.19-.36-.19-.46-.29c-.1-.1-.2-.24-.29-.41-.09-.17-.13-.36-.13-.57,0-.45.17-.82.52-1.12.35-.29.8-.44,1.32-.44.42,0,.8.1,1.13.29.33.19.58.46.75.8l-.76.43c-.19-.44-.56-.67-1.12-.67-.26,0-.49.06-.66.19-.18.13-.27.3-.27.51Z"/>
      <path class="cls-9" d="M505.21,582.17h-4.37c.09.46.3.82.64,1.08.33.26.75.39,1.25.39.69,0,1.19-.25,1.5-.76l.77.44c-.51.79-1.28,1.18-2.29,1.18-.82,0-1.49-.26-2.02-.77-.51-.53-.77-1.19-.77-1.97s.25-1.45.76-1.96c.51-.52,1.16-.78,1.97-.78.76,0,1.39.27,1.87.81.49.53.73,1.17.73,1.94,0,.13,0,.27-.03.41ZM502.65,579.87c-.48,0-.88.14-1.2.41s-.52.64-.6,1.1h3.48c-.08-.48-.27-.85-.57-1.12-.31-.26-.67-.4-1.11-.4Z"/>
      <path class="cls-9" d="M513.21,580.04v-2.98h.91v7.3h-.91v-.9c-.45.69-1.1,1.03-1.97,1.03-.74,0-1.36-.26-1.87-.79-.51-.54-.77-1.19-.77-1.95s.26-1.4.77-1.94,1.14-.8,1.87-.8c.87,0,1.53.34,1.97,1.03ZM511.35,583.62c.53,0,.97-.18,1.32-.53.35-.37.53-.81.53-1.33s-.18-.97-.53-1.32c-.35-.36-.8-.54-1.32-.54s-.96.18-1.31.54c-.35.35-.53.8-.53,1.32s.18.97.53,1.33c.35.35.79.53,1.31.53Z"/>
      <path class="cls-9" d="M520.5,582.17h-4.37c.09.46.3.82.64,1.08.33.26.75.39,1.25.39.69,0,1.19-.25,1.5-.76l.77.44c-.51.79-1.28,1.18-2.29,1.18-.82,0-1.49-.26-2.02-.77-.51-.53-.77-1.19-.77-1.97s.25-1.45.76-1.96c.51-.52,1.16-.78,1.97-.78.76,0,1.39.27,1.87.81.49.53.73,1.17.73,1.94,0,.13,0,.27-.03.41ZM517.93,579.87c-.48,0-.88.14-1.2.41s-.52.64-.6,1.1h3.48c-.08-.48-.27-.85-.57-1.12-.31-.26-.67-.4-1.11-.4Z"/>
      <path class="cls-9" d="M523.89,580.71c0-1.06.37-1.95,1.09-2.68.73-.74,1.62-1.1,2.68-1.1s1.95.37,2.68,1.1c.74.73,1.11,1.62,1.11,2.68s-.37,1.94-1.11,2.68c-.73.74-1.62,1.11-2.68,1.11s-1.95-.37-2.68-1.11c-.73-.74-1.09-1.64-1.09-2.68ZM530.47,580.71c0-.81-.27-1.48-.81-2.02-.53-.55-1.2-.82-2-.82s-1.47.27-2.01.82c-.54.55-.8,1.22-.8,2.02s.27,1.47.8,2.02c.54.54,1.21.81,2.01.81s1.47-.27,2-.81c.54-.56.81-1.23.81-2.02Z"/>
      <path class="cls-9" d="M533.42,579.15v.88c.3-.65.84-.97,1.63-.97v.95c-.45-.02-.83.1-1.15.35-.32.26-.48.67-.48,1.24v2.76h-.91v-5.21h.91Z"/>
      <path class="cls-9" d="M536.4,578.2c-.17,0-.32-.06-.44-.18s-.18-.26-.18-.43.06-.31.18-.43.26-.18.44-.18.31.06.43.18.18.27.18.43-.06.31-.18.43-.26.18-.43.18ZM536.84,584.36h-.91v-5.21h.91v5.21Z"/>
      <path class="cls-9" d="M543.23,582.17h-4.37c.09.46.3.82.64,1.08s.75.39,1.25.39c.69,0,1.19-.25,1.5-.76l.77.44c-.51.79-1.28,1.18-2.29,1.18-.82,0-1.49-.26-2.02-.77-.51-.53-.77-1.19-.77-1.97s.25-1.45.76-1.96c.51-.52,1.16-.78,1.97-.78.76,0,1.39.27,1.87.81.49.53.73,1.17.73,1.94,0,.13-.01.27-.03.41ZM540.67,579.87c-.48,0-.88.14-1.2.41s-.52.64-.6,1.1h3.48c-.08-.48-.27-.85-.57-1.12-.31-.26-.67-.4-1.1-.4Z"/>
      <path class="cls-9" d="M546.9,579.01c.61,0,1.1.19,1.47.58s.55.91.55,1.57v3.2h-.91v-3.15c0-.42-.11-.74-.34-.98s-.55-.35-.95-.35c-.46,0-.83.14-1.1.43-.27.29-.41.72-.41,1.29v2.76h-.91v-5.21h.91v.75c.36-.59.92-.89,1.69-.89Z"/>
      <path class="cls-9" d="M553.02,579.15v.88h-1.39v2.83c0,.26.05.44.15.55s.26.16.46.17c.21,0,.47,0,.77-.02v.81c-.8.1-1.38.04-1.75-.2-.36-.24-.55-.67-.55-1.31v-2.83h-1.03v-.88h1.03v-1.19l.91-.27v1.46h1.39Z"/>
      <path class="cls-9" d="M558.15,580.04v-.9h.91v5.21h-.91v-.9c-.44.69-1.1,1.03-1.97,1.03-.74,0-1.36-.26-1.87-.79-.51-.54-.77-1.19-.77-1.95s.26-1.4.77-1.94c.51-.54,1.14-.8,1.87-.8.87,0,1.53.34,1.97,1.03ZM556.3,583.62c.53,0,.97-.18,1.32-.53.35-.37.53-.81.53-1.33s-.18-.97-.53-1.32c-.35-.36-.8-.54-1.32-.54s-.96.18-1.31.54c-.35.35-.53.8-.53,1.32s.18.97.53,1.33c.35.35.79.53,1.31.53Z"/>
      <path class="cls-9" d="M564.75,580.04v-2.98h.91v7.3h-.91v-.9c-.44.69-1.1,1.03-1.97,1.03-.74,0-1.36-.26-1.87-.79-.51-.54-.77-1.19-.77-1.95s.26-1.4.77-1.94c.51-.54,1.14-.8,1.87-.8.87,0,1.53.34,1.97,1.03ZM562.9,583.62c.53,0,.97-.18,1.32-.53.35-.37.53-.81.53-1.33s-.18-.97-.53-1.32c-.35-.36-.8-.54-1.32-.54s-.96.18-1.31.54c-.35.35-.53.8-.53,1.32s.18.97.53,1.33c.35.35.79.53,1.31.53Z"/>
      <path class="cls-9" d="M571.44,583.7c-.53.53-1.18.79-1.95.79s-1.42-.26-1.95-.79-.79-1.18-.79-1.95.26-1.42.79-1.95c.53-.53,1.18-.79,1.95-.79s1.42.26,1.95.79c.54.54.8,1.19.8,1.95s-.27,1.41-.8,1.95ZM569.49,583.61c.52,0,.96-.18,1.31-.53s.53-.8.53-1.32-.18-.97-.53-1.32-.79-.53-1.31-.53-.95.18-1.3.53-.53.8-.53,1.32.18.97.53,1.32.79.53,1.3.53Z"/>
      <path class="cls-9" d="M574.22,579.15v.88c.3-.65.84-.97,1.63-.97v.95c-.45-.02-.83.1-1.15.35-.32.26-.48.67-.48,1.24v2.76h-.91v-5.21h.91Z"/>
    </g>
    <line class="cls-1" x1="433.39" y1="569.29" x2="561.57" y2="569.29"/>
    <g>
      <path class="cls-18" d="M292.36,214.46c-1.6,0-2.92-.53-3.94-1.58-1.04-1.06-1.56-2.34-1.56-3.85s.52-2.79,1.56-3.85c1.03-1.05,2.34-1.58,3.94-1.58.96,0,1.85.23,2.65.7.81.46,1.44,1.09,1.89,1.88l-.93.54c-.33-.64-.82-1.15-1.47-1.53-.65-.38-1.37-.57-2.15-.57-1.32,0-2.39.43-3.21,1.28-.83.86-1.25,1.9-1.25,3.13s.42,2.27,1.25,3.13c.82.85,1.89,1.28,3.21,1.28.78,0,1.49-.19,2.15-.57.65-.38,1.14-.89,1.47-1.53l.93.52c-.43.79-1.06,1.42-1.88,1.89s-1.71.71-2.67.71Z"/>
      <path class="cls-18" d="M299.68,203.78v9.51h4.8v.99h-5.85v-10.5h1.05Z"/>
      <path class="cls-18" d="M305.68,210.71v-6.93h1.05v6.93c0,.85.25,1.52.76,2s1.2.73,2.09.73,1.59-.24,2.09-.73.76-1.15.76-2v-6.93h1.05v6.93c0,1.14-.36,2.05-1.08,2.73-.73.68-1.67,1.02-2.82,1.02s-2.09-.34-2.82-1.02c-.72-.68-1.08-1.59-1.08-2.73Z"/>
      <path class="cls-18" d="M321.55,208.83c.52.22.93.55,1.23,1,.3.45.45.96.45,1.52,0,.81-.29,1.5-.85,2.07-.57.57-1.26.85-2.07.85h-4.57v-10.5h4.23c.77,0,1.43.28,1.99.84.55.55.83,1.21.83,1.98,0,.98-.41,1.73-1.23,2.24ZM319.96,204.77h-3.18v3.66h3.18c.48,0,.89-.17,1.24-.52.35-.37.53-.8.53-1.31s-.18-.92-.53-1.29c-.35-.36-.76-.54-1.24-.54ZM316.78,213.29h3.52c.52,0,.96-.18,1.32-.55.37-.37.55-.83.55-1.38s-.19-1-.55-1.37c-.36-.38-.8-.57-1.32-.57h-3.52v3.87Z"/>
      <path class="cls-18" d="M332.68,214.28h-1.08l-3.87-10.5h1.14l3.27,9.1,3.27-9.1h1.14l-3.87,10.5Z"/>
      <path class="cls-18" d="M338.95,209.48v3.81h5.1v.99h-6.15v-10.5h6.07v.99h-5.02v3.72h4.65v.99h-4.65Z"/>
      <path class="cls-18" d="M352.6,212.33v-8.55h1.05v10.5h-.9l-5.85-8.55v8.55h-1.05v-10.5h.9l5.85,8.55Z"/>
      <path class="cls-18" d="M360.95,214.46c-1.6,0-2.92-.53-3.94-1.58-1.04-1.06-1.56-2.34-1.56-3.85s.52-2.79,1.56-3.85c1.03-1.05,2.34-1.58,3.94-1.58.96,0,1.85.23,2.65.7.81.46,1.44,1.09,1.89,1.88l-.93.54c-.33-.64-.82-1.15-1.47-1.53-.65-.38-1.37-.57-2.15-.57-1.32,0-2.39.43-3.21,1.28-.83.86-1.25,1.9-1.25,3.13s.42,2.27,1.25,3.13c.82.85,1.89,1.28,3.21,1.28.78,0,1.49-.19,2.15-.57.65-.38,1.14-.89,1.47-1.53l.93.52c-.43.79-1.06,1.42-1.88,1.89s-1.71.71-2.67.71Z"/>
      <path class="cls-18" d="M368.27,209.48v3.81h5.1v.99h-6.15v-10.5h6.07v.99h-5.02v3.72h4.65v.99h-4.65Z"/>
      <path class="cls-18" d="M375.17,203.78h4.05c1.43,0,2.61.51,3.54,1.53.94,1,1.41,2.24,1.41,3.72s-.47,2.73-1.41,3.73c-.93,1.01-2.11,1.52-3.54,1.52h-4.05v-10.5ZM376.22,213.29h3c1.15,0,2.09-.41,2.82-1.23.74-.83,1.11-1.84,1.11-3.03s-.37-2.2-1.11-3.03c-.73-.82-1.67-1.23-2.82-1.23h-3v8.52Z"/>
      <path class="cls-18" d="M394.66,212.88c-1.05,1.05-2.33,1.58-3.85,1.58s-2.8-.53-3.85-1.58c-1.05-1.07-1.57-2.35-1.57-3.85s.52-2.79,1.57-3.84c1.05-1.06,2.33-1.59,3.85-1.59s2.81.53,3.85,1.59c1.05,1.05,1.58,2.33,1.58,3.84s-.52,2.79-1.58,3.85ZM387.68,212.16c.84.85,1.88,1.28,3.12,1.28s2.28-.43,3.12-1.28c.84-.85,1.26-1.89,1.26-3.13s-.42-2.27-1.26-3.12c-.84-.86-1.88-1.29-3.12-1.29s-2.28.43-3.12,1.29c-.84.85-1.26,1.89-1.26,3.12s.42,2.29,1.26,3.13Z"/>
      <path class="cls-18" d="M405.68,214.28h-1.2l-2.46-4.2h-2.94v4.2h-1.05v-10.5h4.2c.86,0,1.6.31,2.22.93.62.62.93,1.36.93,2.22,0,.72-.21,1.36-.65,1.91-.41.54-.95.91-1.62,1.11l2.56,4.33ZM402.23,204.77h-3.15v4.32h3.15c.58,0,1.07-.21,1.48-.63.41-.44.62-.95.62-1.53s-.21-1.1-.62-1.53c-.41-.42-.9-.63-1.48-.63Z"/>
      <path class="cls-18" d="M408.23,209.48v3.81h5.1v.99h-6.15v-10.5h6.07v.99h-5.02v3.72h4.65v.99h-4.65Z"/>
      <path class="cls-18" d="M418.43,214.46c-.96,0-1.78-.23-2.47-.68-.69-.46-1.16-1.08-1.43-1.88l.9-.53c.19.66.54,1.17,1.06,1.53.51.36,1.17.54,1.96.54s1.37-.17,1.81-.51c.44-.34.66-.8.66-1.38,0-.55-.2-.96-.6-1.25-.39-.28-1.05-.57-1.98-.87-1.11-.37-1.83-.66-2.16-.87-.8-.48-1.2-1.18-1.2-2.08s.31-1.59.93-2.1c.61-.52,1.38-.78,2.29-.78.79,0,1.49.21,2.1.62.61.42,1.06.96,1.37,1.64l-.89.5c-.48-1.16-1.34-1.74-2.58-1.74-.66,0-1.19.16-1.58.49-.4.32-.59.77-.59,1.33,0,.53.18.92.54,1.17.37.26.96.52,1.78.79l.81.28c.17.05.41.14.72.27.34.13.57.24.71.33.53.32.86.62,1,.89.25.4.38.85.38,1.35,0,.89-.33,1.6-.98,2.14-.65.53-1.5.8-2.56.8Z"/>
      <path class="cls-18" d="M428.57,209.48v3.81h5.1v.99h-6.15v-10.5h6.07v.99h-5.02v3.72h4.65v.99h-4.65Z"/>
      <path class="cls-18" d="M442.22,212.33v-8.55h1.05v10.5h-.9l-5.85-8.55v8.55h-1.05v-10.5h.9l5.85,8.55Z"/>
      <path class="cls-18" d="M444.77,203.78h7.5v.99h-3.22v9.51h-1.05v-9.51h-3.23v-.99Z"/>
      <path class="cls-18" d="M461.42,214.28h-1.2l-2.46-4.2h-2.94v4.2h-1.05v-10.5h4.2c.86,0,1.6.31,2.22.93.62.62.93,1.36.93,2.22,0,.72-.21,1.36-.65,1.91-.41.54-.95.91-1.62,1.11l2.56,4.33ZM457.97,204.77h-3.15v4.32h3.15c.58,0,1.07-.21,1.48-.63.41-.44.62-.95.62-1.53s-.21-1.1-.62-1.53c-.41-.42-.9-.63-1.48-.63Z"/>
      <path class="cls-18" d="M463.97,209.48v3.81h5.1v.99h-6.15v-10.5h6.07v.99h-5.02v3.72h4.65v.99h-4.65Z"/>
      <path class="cls-18" d="M475.58,209.28h5.25v.54c0,1.3-.46,2.4-1.4,3.3-.94.89-2.19,1.33-3.73,1.33s-2.92-.53-3.94-1.58c-1.04-1.06-1.56-2.34-1.56-3.85s.52-2.79,1.56-3.85c1.03-1.05,2.34-1.58,3.94-1.58.96,0,1.85.24,2.67.71.81.47,1.44,1.1,1.88,1.88l-.93.54c-.33-.64-.82-1.15-1.47-1.53-.65-.38-1.37-.57-2.15-.57-1.32,0-2.39.43-3.21,1.28-.83.86-1.25,1.9-1.25,3.13s.42,2.27,1.25,3.13c.82.85,1.89,1.28,3.21,1.28,1.18,0,2.12-.29,2.83-.89.7-.6,1.1-1.36,1.21-2.28h-4.17v-.99Z"/>
      <path class="cls-18" d="M490.35,214.28h-1.11l-.98-2.58h-4.98l-.98,2.58h-1.11l4.04-10.5h1.08l4.03,10.5ZM485.78,205.08l-2.12,5.62h4.23l-2.11-5.62Z"/>
      <path class="cls-18" d="M503.55,214.28h-1.11l-.98-2.58h-4.98l-.98,2.58h-1.11l4.04-10.5h1.08l4.03,10.5ZM498.98,205.08l-2.12,5.62h4.23l-2.11-5.62Z"/>
      <path class="cls-18" d="M506.25,207.45c0,.23-.08.43-.24.58s-.35.24-.58.24-.43-.08-.58-.24c-.16-.16-.24-.35-.24-.58s.08-.42.24-.58.35-.24.58-.24.42.08.58.24c.16.16.24.36.24.58ZM506.25,213.6c0,.23-.08.42-.24.58-.16.16-.35.24-.58.24s-.43-.08-.58-.24-.24-.35-.24-.58.08-.43.24-.58c.16-.16.35-.24.58-.24s.42.08.58.24.24.35.24.58Z"/>
    </g>
    <path class="cls-10" d="M765.79,83.92c0,12.16-4.32,23.33-11.51,32.02-.78.95-1.6,1.87-2.45,2.75-9.15,9.56-22.03,15.5-36.3,15.5s-27.13-5.93-36.27-15.47c-.86-.89-1.68-1.8-2.45-2.75-7.22-8.7-11.55-19.87-11.55-32.05,0-27.76,22.51-50.27,50.27-50.27s50.27,22.51,50.27,50.27Z"/>
    <g>
      <path class="cls-13" d="M746.86,105.63l-17.7-3.06-3.85,3.82c-3.04,3.06-5.08,5.36-6.12,6.93-1.36,2.03-2.05,4.12-2.05,6.23.98-2.73,3.02-4.32,6.17-4.8,2.29-.33,5.79-.06,10.46.85l18.05,3.09c.86-.88,1.68-1.8,2.45-2.75l-7.42-10.3Z"/>
      <path class="cls-13" d="M721.88,52.44c-.1.97-.29,1.76-.5,2.38-.29.79-.72,1.61-1.34,2.48-1.16,1.64-3.81,4.51-7.95,8.64l-8.4,8.42c-2.57,2.54-4.43,4.86-5.65,6.9-1.49,2.61-2.13,5.13-1.92,7.55.13,1.35.38,2.49.81,3.46.35.76.71,1.3,1.11,1.6.31.22.33.18.1-.13-1.07-2.53-.67-5.33,1.22-8.48,1.06-1.72,2.85-3.85,5.4-6.42l8.83-8.8c2.51-2.46,4.2-4.22,5.11-5.34,2.2-2.71,3.3-5.08,3.3-7.09v-5.17s-.05-.04-.13,0Z"/>
      <path class="cls-13" d="M721.88,61.27c-.1.95-.29,1.76-.5,2.38-.29.76-.72,1.59-1.34,2.48-1.16,1.61-3.81,4.51-7.95,8.64l-7.79,7.79c-1.78,1.82-3.04,3.35-3.74,4.59-1.07,1.86-1.59,3.87-1.53,6.04.02,1.47.38,2.77,1.07,3.87.71,1.12,1.6,1.8,2.69,2.07.84.23,1.05.23.59,0-.79-.37-1.32-.97-1.67-1.82-.35-.84-.46-1.82-.3-2.93.34-2.54,1.7-5.03,4.14-7.49l8.04-7.98c2.61-2.61,4.31-4.4,5.11-5.38,2.2-2.75,3.3-5.11,3.3-7.09v-5.17s-.05-.04-.13,0Z"/>
      <path class="cls-13" d="M713.84,106.83v-.31c0-1.96-.71-3.29-2.09-3.93-1.86-.87-5.21-.89-10.09-.02l-17.46,3.06-7.4,10.34c.78.95,1.6,1.86,2.45,2.75l19.05-3.43c4.28-.72,7.53-.89,9.72-.47,2.98.54,4.92,2.11,5.81,4.74v-9.43h-4.74v-3.29h4.74Z"/>
      <path class="cls-13" d="M734.91,78.25c-.1-1.34-.38-2.5-.81-3.49-.33-.77-.7-1.31-1.11-1.6-.31-.26-.35-.21-.1.1,1.07,2.5.71,5.29-1.1,8.36-.95,1.64-2.46,3.47-4.48,5.52l-2.46,2.46c-2.38,2.34-4.14,4.31-5.29,5.93-1.6,2.26-2.41,4.28-2.41,6.06v5.24h.13c.21-1.87.87-3.62,1.99-5.28,1.01-1.51,2.95-3.68,5.81-6.56l2.29-2.27c2.55-2.57,4.43-4.88,5.63-6.93,1.51-2.59,2.15-5.11,1.92-7.55Z"/>
      <path class="cls-13" d="M730.96,69.87c-.7-1.11-1.59-1.82-2.71-2.13-.79-.14-.99-.12-.59.06.79.38,1.34.97,1.69,1.8.33.85.43,1.82.29,2.96-.35,2.57-1.72,5.05-4.14,7.49l-2.83,2.77c-3.68,3.68-5.53,6.89-5.53,9.6v5.36h.13c.21-1.78.87-3.5,2-5.19,1.01-1.49,2.77-3.5,5.25-5.98l2.28-2.29c1.73-1.74,2.97-3.25,3.72-4.53,1.06-1.86,1.55-3.87,1.51-6.01-.04-1.49-.39-2.77-1.07-3.89Z"/>
      <path class="cls-13" d="M735.82,84.02c-.04-.39-.1-.81-.25-1.24-.12-.45-.18-.6-.18-.43-.21,2.34-.8,4.35-1.76,6.04-1.11,1.95-3.22,4.47-6.33,7.57l-1.57,1.57c-2.21,2.21-3.54,3.56-3.97,4.03-1.68,1.9-2.89,3.64-3.64,5.28h3.89l4.44-4.51c2.61-2.56,4.4-4.44,5.38-5.62,1.59-1.9,2.66-3.76,3.26-5.54.43-1.31.72-2.5.83-3.58.1-1.08.06-2.28-.1-3.56Z"/>
      <path class="cls-13" d="M717.14,110.12v5.16c.09.05.13.05.13,0,.18-1.73.87-3.45,2.04-5.16h-2.17Z"/>
      <path class="cls-13" d="M721.88,43.63c-.02.27-.06.54-.1.79-.1.63-.25,1.14-.39,1.6-.29.76-.72,1.59-1.34,2.48-1.16,1.62-3.81,4.49-7.95,8.64l-7.48,7.55c-2.59,2.54-4.39,4.43-5.4,5.65-1.57,1.92-2.67,3.76-3.25,5.52-.46,1.32-.73,2.53-.85,3.6-.1,1.07-.06,2.28.12,3.6.02.54.19,1.09.42,1.69.22-2.37.81-4.4,1.78-6.1,1.09-1.94,3.2-4.48,6.3-7.59l9.86-9.78c2.63-2.62,4.32-4.43,5.11-5.37,2.2-2.75,3.3-5.11,3.3-7.12v-5.15s-.05-.04-.13,0Z"/>
    </g>
    <rect class="cls-17" x="346.39" y="513.58" width="99.21" height="28.35"/>
    <rect class="cls-13" x="346.39" y="513.58" width="33.07" height="28.35"/>
    <rect class="cls-13" x="412.54" y="513.58" width="33.07" height="28.35"/>
    <path class="cls-13" d="M324.32,442.61l2.83,6.54,7.1.67c.65.06.92.88.43,1.31l-5.35,4.72,1.55,6.96c.14.64-.55,1.15-1.12.81l-6.14-3.63-6.14,3.63c-.57.33-1.26-.17-1.12-.81l1.55-6.96-5.35-4.72c-.49-.44-.23-1.25.43-1.31l7.1-.67,2.83-6.54c.26-.6,1.12-.6,1.38,0Z"/>
    <path class="cls-13" d="M290.26,442.61l2.83,6.54,7.1.67c.65.06.92.88.43,1.31l-5.35,4.72,1.55,6.96c.14.64-.55,1.15-1.12.81l-6.14-3.63-6.14,3.63c-.57.33-1.26-.17-1.12-.81l1.55-6.96-5.35-4.72c-.49-.44-.23-1.25.43-1.31l7.1-.67,2.83-6.54c.26-.6,1.12-.6,1.38,0Z"/>
    <path class="cls-13" d="M256.19,442.61l2.83,6.54,7.1.67c.65.06.92.88.43,1.31l-5.35,4.72,1.55,6.96c.14.64-.55,1.15-1.12.81l-6.14-3.63-6.14,3.63c-.57.33-1.26-.17-1.12-.81l1.55-6.96-5.35-4.72c-.49-.44-.23-1.25.43-1.31l7.1-.67,2.83-6.54c.26-.6,1.12-.6,1.38,0Z"/>
    <path class="cls-13" d="M537.18,442.61l2.83,6.54,7.1.67c.65.06.92.88.43,1.31l-5.35,4.72,1.55,6.96c.14.64-.55,1.15-1.12.81l-6.14-3.63-6.14,3.63c-.57.33-1.26-.17-1.12-.81l1.55-6.96-5.35-4.72c-.49-.44-.23-1.25.43-1.31l7.1-.67,2.83-6.54c.26-.6,1.12-.6,1.38,0Z"/>
    <path class="cls-13" d="M503.12,442.61l2.83,6.54,7.1.67c.65.06.92.88.43,1.31l-5.35,4.72,1.55,6.96c.14.64-.55,1.15-1.12.81l-6.14-3.63-6.14,3.63c-.57.33-1.26-.17-1.12-.81l1.55-6.96-5.35-4.72c-.49-.44-.23-1.25.43-1.31l7.1-.67,2.83-6.54c.26-.6,1.12-.6,1.38,0Z"/>
    <path class="cls-13" d="M469.06,442.61l2.83,6.54,7.1.67c.65.06.92.88.43,1.31l-5.35,4.72,1.55,6.96c.14.64-.55,1.15-1.12.81l-6.14-3.63-6.14,3.63c-.57.33-1.26-.17-1.12-.81l1.55-6.96-5.35-4.72c-.49-.44-.23-1.25.43-1.31l7.1-.67,2.83-6.54c.26-.6,1.12-.6,1.38,0Z"/>
  </g>
  <g id="Capa_3" data-name="Capa 3">
    <g class="cls-14">
      <polygon class="cls-3" points="286.34 121.45 286.34 116.31 291.49 116.31 313.69 94.1 489.24 94.1 511.44 116.31 516.58 116.31 516.58 121.45 548.66 153.53 555.97 153.53 492.13 89.7 491.37 88.94 311.55 88.94 246.96 153.53 254.27 153.53 286.34 121.45"/>
      <polygon class="cls-3" points="286.34 141.44 286.34 129.6 262.42 153.53 274.25 153.53 286.34 141.44"/>
      <polygon class="cls-3" points="316.08 99.87 299.64 116.31 311.48 116.31 319.55 108.24 483.38 108.24 491.45 116.31 503.29 116.31 486.85 99.87 316.08 99.87"/>
      <polygon class="cls-3" points="516.58 141.44 528.67 153.53 540.51 153.53 516.58 129.6 516.58 141.44"/>
      <path class="cls-3" d="M592.03,205.05l-.06,11.78,7.25,7.25v163.83l-115.84,115.85h-24.53v-13.02h18.92l28.01-28,28.01-28.01v-84.98l31.03-24.64,14.58-11.58,1.21-.96,5.98-4.75.03-7.6.43-88.3.06-11.78h0s.04-8.11.04-8.11l.03-7.27.07-14.33.06-11.95h-75.68v-37.22h-3.41s-11.84,0-11.84,0h0s-189.87,0-189.87,0h0s-11.84,0-11.84,0h0s-3.41,0-3.41,0v37.22h-75.67l.06,11.95h0s.07,14.33.07,14.33l.03,7.27h0s.04,8.1.04,8.1h0s.06,11.79.06,11.79l.47,95.9,7.18,5.71h0s0,0,0,0h0s26.71,21.22,26.71,21.22l18.89,15.01v84.98l18.68,18.67,37.36,37.34h18.91v13.02h-24.53l-115.84-115.84v-163.83l7.25-7.25-.06-11.78-15.56,15.56v170.77l120.75,120.75h28v5.76h-30.38l-124.13-124.12v-175.54l21.29-21.29-.03-7.27-25.66,25.66-.76.76v179.82l127.15,127.15h147.3v-10.93h27.99l119.24-119.23,1.51-1.52v-170.77l-15.56-15.56ZM467.78,159.45h-4.1l-.74-5.18v.07h-4.66l-.75,5.1h-3.79l4.24-26.07h5.55l4.25,26.07ZM451.24,133.39v26.06h-4.1v-26.06h4.1ZM438.66,155.78c1.3,0,2.08-.66,2.08-2.5v-19.89h3.95v19.6c0,4.11-2.09,6.46-6.11,6.46s-6.1-2.35-6.1-6.46v-19.6h4.09v19.89c0,1.84.78,2.5,2.09,2.5ZM424.02,137c-1.3,0-2.12.69-2.12,2.5v13.86c0,1.81.82,2.46,2.12,2.46s2.12-.65,2.12-2.46v-4.96h-2.05v-3.62h5.92v8.29c0,4.05-2.08,6.37-6.1,6.37s-6.11-2.32-6.11-6.37v-13.32c0-4.05,2.09-6.37,6.11-6.37s6.1,2.32,6.1,6.37v2.17h-3.87v-2.42c0-1.81-.82-2.5-2.12-2.5ZM408.24,144v3.72h-5.62v8.01h7.08v3.72h-11.17v-26.06h11.17v3.72h-7.08v6.89h5.62ZM396.06,139.82v13.18c0,4.17-2.01,6.44-6.1,6.44h-6.26v-26.06h6.26c4.09,0,6.1,2.27,6.1,6.44ZM375.59,151.03v2.23c0,4.02-2.12,6.18-6.22,6.18h-6.44v-26.06h6.18c4.25,0,6.07,1.98,6.07,6v1.04c0,2.68-.81,4.36-2.64,5.1v.08c2.19.74,3.05,2.68,3.05,5.43ZM354.4,156.1c1.3,0,2.08-.67,2.08-2.53v-20.18h3.95v19.89c0,4.17-2.08,6.55-6.1,6.55s-6.11-2.38-6.11-6.55v-19.89h4.1v20.18c0,1.86.78,2.53,2.08,2.53ZM345.76,155.73v3.72h-10.83v-26.06h4.09v22.34h6.74ZM326.54,137c-1.23,0-2.05.69-2.05,2.36v14.16c0,1.67.82,2.32,2.05,2.32s2.05-.65,2.05-2.32v-3.88h3.87v3.58c0,3.91-2.08,6.23-6.03,6.23s-6.03-2.32-6.03-6.23v-13.61c0-3.91,2.08-6.23,6.03-6.23s6.03,2.32,6.03,6.23v2.68h-3.87v-2.93c0-1.67-.82-2.36-2.05-2.36ZM470.31,151.63h3.88v1.74c0,1.81.82,2.46,2.12,2.46s2.12-.65,2.12-2.53c0-2.1-.82-3.44-3.5-5.72-3.42-2.93-4.54-5-4.54-7.89,0-3.98,2.12-6.3,6.1-6.3s5.96,2.32,5.96,6.37v1.05h-3.88v-1.3c0-1.81-.74-2.5-2.04-2.5s-2.05.69-2.05,2.43c0,1.85.85,3.19,3.54,5.46,3.43,2.93,4.51,4.96,4.51,8.11,0,4.13-2.16,6.44-6.18,6.44s-6.03-2.32-6.03-6.37v-1.45ZM230.57,185.38l-.04-8.11-.02-3.97h341.91l-.02,3.97-.04,8.11-.06,11.78-.13,27.9-.36,75.15H231.12l-.36-75.14h0s-.13-27.91-.13-27.91l-.06-11.78ZM364.8,510.37l-.64-4.44v.06h-3.99l-.65,4.38h-3.26l1.08-6.61,1.32-8.07.81-4.94h0s.44-2.75.44-2.75h4.77l.45,2.74h0s.81,4.95.81,4.95l1.31,8.07,1.07,6.61h-3.51ZM380.94,495.73c0,3.58-1.72,5.54-5.23,5.54h-1.67v9.11h-3.51v-22.38h5.18c2.46,0,4.04.95,4.77,2.74h0c.31.78.47,1.71.47,2.78v2.2ZM393.82,505.06c0,3.59-1.88,5.63-5.33,5.63s-5.34-2.04-5.34-5.63v-11.76c0-.97.14-1.82.4-2.55h0c.73-1.98,2.41-3.07,4.93-3.07s4.21,1.09,4.92,3.07h0c.27.74.41,1.59.41,2.56v11.76ZM406.39,495.54h-3.32v-2.59c0-1.47-.7-2.08-1.76-2.08s-1.76.61-1.76,2.08v12.5c0,1.47.7,2.04,1.76,2.04s1.76-.57,1.76-2.04v-3.42h3.32v3.17c0,3.45-1.79,5.5-5.18,5.5s-5.18-2.04-5.18-5.5v-12.02c0-.91.13-1.72.37-2.43h0c.68-1.96,2.32-3.07,4.81-3.07s4.12,1.11,4.81,3.06h0c.24.71.37,1.52.37,2.43v2.36ZM411.99,510.37h-3.38v-3.39h3.38v3.39ZM428.37,504.99c0,3.48-1.79,5.38-5.24,5.38s-5.24-1.93-5.24-5.41v-1.77h3.33v1.93c0,1.55.7,2.15,1.82,2.15s1.83-.53,1.83-2.46v-1.77c0-2.02-.7-2.76-2.31-2.76h-1.18v-3.11h1.28c1.08,0,1.81-.37,2.03-1.47.05-.24.08-.51.08-.83v-1.59c0-1.55-.74-2.18-1.76-2.18s-1.79.51-1.79,1.94v1.43h-3.33v-1.15c0-1,.16-1.85.45-2.57h0c.75-1.81,2.39-2.75,4.79-2.75s3.97.95,4.7,2.75h0c.3.74.45,1.62.45,2.63v.78c0,.56-.04,1.08-.14,1.54-.29,1.44-1.05,2.37-2.36,2.84v.06c1.89.68,2.59,2.27,2.59,4.48v1.92ZM433.97,507.15h-3.39v-3.39h3.39v3.39ZM433.97,494.97h-3.39v-3.39h3.39v3.39ZM446.66,504.82c0,3.53-1.79,5.55-5.24,5.55s-5.24-2.02-5.24-5.55v-1.73h3.33v1.99c0,1.58.7,2.15,1.82,2.15s1.82-.57,1.82-2.15v-4.95c0-1.57-.7-2.18-1.82-2.18s-1.82.6-1.82,2.18v.19h-3.33l.24-4.63.26-4.94h0s.14-2.75.14-2.75h9.27v3.15h-6.14l-.25,4.55-.04.72h.06c.17-.27.36-.51.58-.72.61-.58,1.42-.89,2.46-.89s1.91.3,2.54.89c.9.84,1.35,2.24,1.35,4.16v4.98ZM432.54,475.92l-.13-48.36,23.02-24.25,5.91-31.48-15.16-22.88-23.17-1.08-15.54,9.78,6.16,11.51h20.15l.19,11.17-42.63,9.48-26.44,25.56,9.95,19.93-12.28,40.61h-31.28l-47.35-47.34v-86h0s-5.52-4.38-5.52-4.38l-32.29-25.64h47.69v111.93l41.56,41.55h19.86l2.99-9.88h-18.75l-35.77-35.76v-107.84h195.03v107.84l-35.77,35.76h-20.61l.02,9.88h24.68l41.56-41.55v-111.93h48.15l-16.73,13.29-21.07,16.73h0s0,0,0,0v86l-47.34,47.34h-39.09Z"/>
      <polygon class="cls-3" points="223.52 319.83 223.52 319.83 223.52 379.7 264.19 420.37 264.19 352.13 223.52 319.83"/>
      <polygon class="cls-3" points="538.74 420.37 579.41 379.7 579.41 319.83 538.74 352.13 538.74 420.37"/>
      <path class="cls-3" d="M371.08,141.24v-1.45c0-1.86-.63-2.68-2.08-2.68h-1.98v6.89h1.6c1.52,0,2.46-.67,2.46-2.75Z"/>
      <path class="cls-3" d="M368.85,147.72h-1.83v8h2.35c1.37,0,2.12-.63,2.12-2.56v-2.27c0-2.42-.78-3.17-2.64-3.17Z"/>
      <polygon class="cls-3" points="460.63 137.93 460.55 137.93 458.77 150.81 462.46 150.81 460.63 137.93"/>
      <path class="cls-3" d="M387.8,137.11v18.61h2.08c1.31,0,2.09-.67,2.09-2.53v-13.55c0-1.86-.78-2.53-2.09-2.53h-2.08Z"/>
      <polygon class="cls-3" points="357.55 382.82 350.89 365.55 350.2 363.76 349.87 364.34 346.68 369.92 341.58 378.84 349.49 401.66 360 409.29 365.65 403.82 370.36 399.26 370.95 398.7 369.48 396.97 357.55 382.82"/>
      <polygon class="cls-3" points="370.51 351.49 365.15 337.58 354.06 357 362.82 379.7 375.3 394.49 383.9 386.17 387.51 382.68 388.7 382.42 377.18 368.75 370.51 351.49"/>
      <polygon class="cls-3" points="403.38 351.02 391.78 320.96 374.66 320.96 369.02 330.83 382.44 365.63 395.36 380.94 409.41 377.81 397.18 354.92 403.38 351.02"/>
      <polygon class="cls-3" points="398.26 320.96 408.59 347.74 420.95 339.97 430.52 340.41 423.71 320.96 398.26 320.96"/>
      <polygon class="cls-3" points="335.17 275.39 335.04 275.39 330.26 241.19 319.55 241.19 319.55 288.97 326.1 288.97 326.1 252.8 326.23 252.8 331.7 288.97 337.97 288.97 343.43 252.8 343.57 252.8 343.57 288.97 350.67 288.97 350.67 241.19 339.95 241.19 335.17 275.39"/>
      <path class="cls-3" d="M362.06,241.2l-7.78,47.77h6.96l1.36-9.35h8.53v-.14l1.37,9.49h7.51l-7.78-47.77h-10.17ZM363.5,273.14l3.28-23.61h.14l3.35,23.61h-6.76Z"/>
      <path class="cls-3" d="M397.76,262.3c-4.91-4.18-6.48-6.63-6.48-10.02,0-3.19,1.36-4.45,3.75-4.45s3.75,1.26,3.75,4.58v2.39h7.1v-1.92c0-7.43-3.62-11.68-10.92-11.68s-11.19,4.24-11.19,11.54c0,5.31,2.05,9.09,8.33,14.47,4.91,4.18,6.41,6.64,6.41,10.48,0,3.45-1.5,4.65-3.89,4.65s-3.89-1.19-3.89-4.52v-3.18h-7.1v2.65c0,7.43,3.69,11.68,11.06,11.68s11.33-4.24,11.33-11.81c0-5.77-1.98-9.49-8.26-14.86Z"/>
      <polygon class="cls-3" points="409.2 248.02 417.04 248.02 417.04 288.97 424.55 288.97 424.55 248.02 432.4 248.02 432.4 241.19 409.2 241.19 409.2 248.02"/>
      <polygon class="cls-3" points="436.02 288.97 456.5 288.97 456.5 282.14 443.53 282.14 443.53 267.47 453.83 267.47 453.83 260.65 443.53 260.65 443.53 248.02 456.5 248.02 456.5 241.19 436.02 241.19 436.02 288.97"/>
      <path class="cls-3" d="M460.25,241.2v47.77h7.51v-20.48h2.59c3.41,0,4.71,1.44,4.71,5.87v8.74c0,3.89.27,4.64.68,5.87h7.64c-.75-1.78-.82-3.48-.82-5.8v-8.39c0-5.39-1.23-8.94-4.98-10.11v-.13c3.35-1.37,4.91-4.51,4.91-9.43v-2.93c0-7.37-3.35-10.98-11.12-10.98h-11.13ZM474.99,252.93v3.69c0,3.82-1.71,5.05-4.51,5.05h-2.73v-13.65h3.41c2.66,0,3.82,1.5,3.82,4.91Z"/>
      <polygon class="cls-3" points="498.58 261.38 490.79 262.47 496.39 267.99 495.02 275.74 502.01 272.12 508.95 275.82 507.66 268.06 513.33 262.6 505.55 261.42 502.11 254.34 498.58 261.38"/>
      <polygon class="cls-3" points="529.27 261.42 525.83 254.34 522.3 261.38 514.51 262.47 520.11 267.99 518.74 275.74 525.72 272.12 532.67 275.82 531.38 268.06 537.05 262.6 529.27 261.42"/>
      <polygon class="cls-3" points="542.45 275.74 549.44 272.12 556.38 275.82 555.1 268.06 560.76 262.6 552.99 261.42 549.54 254.34 546.02 261.38 538.22 262.47 543.83 267.99 542.45 275.74"/>
      <polygon class="cls-3" points="246.39 275.74 253.38 272.12 260.32 275.82 259.04 268.06 264.7 262.6 256.92 261.42 253.48 254.34 249.96 261.38 242.16 262.47 247.77 267.99 246.39 275.74"/>
      <polygon class="cls-3" points="270.11 275.74 277.1 272.12 284.04 275.82 282.75 268.06 288.42 262.6 280.64 261.42 277.19 254.34 273.67 261.38 265.88 262.47 271.48 267.99 270.11 275.74"/>
      <polygon class="cls-3" points="295.2 267.99 293.82 275.74 300.81 272.12 307.76 275.82 306.47 268.06 312.14 262.6 304.35 261.42 300.91 254.34 297.39 261.38 289.59 262.47 295.2 267.99"/>
      <polygon class="cls-3" points="289.83 232.96 297.19 184.53 290.17 184.53 285.17 222.1 285.03 222.1 280.03 184.53 272.32 184.53 279.68 232.96 289.83 232.96"/>
      <polygon class="cls-3" points="321.71 226.04 308.51 226.04 308.51 211.17 319 211.17 319 204.25 308.51 204.25 308.51 191.45 321.71 191.45 321.71 184.53 300.87 184.53 300.87 232.96 321.71 232.96 321.71 226.04"/>
      <polygon class="cls-3" points="332.2 197.61 332.34 197.61 341.5 232.96 349.36 232.96 349.36 184.53 342.55 184.53 342.55 213.52 342.41 213.52 334.97 184.53 325.39 184.53 325.39 232.96 332.2 232.96 332.2 197.61"/>
      <path class="cls-3" d="M363.98,232.96c7.16,0,10.94-4.31,10.94-11.57v-6.66h-7.03v7.2c0,3.09-1.49,4.31-3.71,4.31s-3.71-1.21-3.71-4.31v-26.3c0-3.1,1.49-4.38,3.71-4.38s3.71,1.28,3.71,4.38v5.45h7.03v-4.98c0-7.26-3.78-11.57-10.94-11.57s-10.95,4.31-10.95,11.57v25.29c0,7.26,3.78,11.57,10.95,11.57Z"/>
      <polygon class="cls-3" points="399.44 226.04 386.24 226.04 386.24 211.17 396.73 211.17 396.73 204.25 386.24 204.25 386.24 191.45 399.44 191.45 399.44 184.53 378.6 184.53 378.6 232.96 399.44 232.96 399.44 226.04"/>
      <path class="cls-3" d="M425.67,220.99v-24.49c0-7.75-3.75-11.97-11.39-11.97h-11.67v48.43h11.67c7.64,0,11.39-4.22,11.39-11.97ZM410.25,226.04v-34.59h3.89c2.44,0,3.89,1.24,3.89,4.71v25.18c0,3.46-1.46,4.71-3.89,4.71h-3.89Z"/>
      <path class="cls-3" d="M440.95,232.96c7.4,0,11.44-4.31,11.44-11.84v-24.76c0-7.54-4.04-11.84-11.44-11.84s-11.44,4.3-11.44,11.84v24.76c0,7.53,4.05,11.84,11.44,11.84ZM437.05,195.9c0-3.36,1.51-4.64,3.9-4.64s3.9,1.28,3.9,4.64v25.69c0,3.37-1.51,4.65-3.9,4.65s-3.9-1.28-3.9-4.65v-25.69Z"/>
      <path class="cls-3" d="M463.71,212.21h2.64c3.48,0,4.8,1.46,4.8,5.95v8.85c0,3.94.28,4.71.69,5.95h7.78c-.77-1.8-.84-3.53-.84-5.88v-8.51c0-5.46-1.25-9.07-5.07-10.24v-.14c3.4-1.38,5-4.56,5-9.55v-2.97c0-7.47-3.4-11.14-11.32-11.14h-11.32v48.43h7.64v-20.75ZM463.71,191.45h3.48c2.71,0,3.89,1.52,3.89,4.98v3.73c0,3.88-1.74,5.12-4.58,5.12h-2.78v-13.84Z"/>
      <polygon class="cls-3" points="504.14 226.04 490.94 226.04 490.94 211.17 501.43 211.17 501.43 204.25 490.94 204.25 490.94 191.45 504.14 191.45 504.14 184.53 483.3 184.53 483.3 232.96 504.14 232.96 504.14 226.04"/>
      <path class="cls-3" d="M519.08,232.96c7.5,0,11.53-4.3,11.53-11.97,0-5.86-2.02-9.62-8.41-15.07-5-4.24-6.6-6.73-6.6-10.16,0-3.23,1.39-4.51,3.82-4.51s3.82,1.28,3.82,4.64v2.42h7.23v-1.95c0-7.54-3.69-11.84-11.12-11.84s-11.39,4.3-11.39,11.7c0,5.38,2.08,9.22,8.47,14.66,5,4.23,6.53,6.73,6.53,10.62,0,3.5-1.53,4.71-3.96,4.71s-3.96-1.21-3.96-4.57v-3.23h-7.23v2.69c0,7.54,3.75,11.84,11.26,11.84Z"/>
      <polygon class="cls-3" points="362.18 491.89 362.12 491.89 361.59 495.69 360.59 502.95 363.74 502.95 362.72 495.69 362.18 491.89"/>
      <path class="cls-3" d="M375.7,491.19h-1.67v6.88h1.67c1.11,0,1.72-.52,1.72-2.11v-2.66c0-1.59-.61-2.11-1.72-2.11Z"/>
      <path class="cls-3" d="M388.49,490.87c-1.12,0-1.83.61-1.83,2.21v12.21c0,1.59.7,2.2,1.83,2.2s1.82-.61,1.82-2.2v-12.21c0-1.6-.7-2.21-1.82-2.21Z"/>
    </g>
    <g>
      <polygon class="cls-4" points="382.6 25.84 410.55 25.87 429.78 45.21 429.78 73.06 410.24 92.6 382.58 92.6 363.62 73.64 363.62 44.82 382.6 25.84"/>
      <path class="cls-7" d="M382.05,25.29l-19.21,19.21v29.47l19.42,19.42h28.31l20-20v-28.5l-19.69-19.8-28.6-.03-.23.23ZM382.93,26.63c.63,0,26.66.03,27.29.03.44.45,18.33,18.43,18.77,18.87v27.2c-.44.44-18.63,18.63-19.08,19.08h-27.01c-.44-.44-18.05-18.05-18.5-18.5v-28.17c.44-.44,18.07-18.07,18.52-18.52Z"/>
      <path class="cls-6" d="M366.15,59.2c0,4.11,3.18,7.96,8.97,10.84,5.76,2.87,13.44,4.46,21.62,4.46s15.86-1.58,21.63-4.46c5.78-2.88,8.96-6.73,8.96-10.84,0-8.49-13.72-15.4-30.59-15.4s-30.59,6.91-30.59,15.4Z"/>
      <path class="cls-11" d="M396.72,74.03c16.15,0,29.24-6.61,29.24-14.89s-13.09-14.98-29.24-14.98-29.24,6.71-29.24,14.98c0,8.28,13.1,14.89,29.24,14.89h0Z"/>
      <path class="cls-6" d="M367.52,59.14c0,4.02,3.05,7.79,8.6,10.6,5.52,2.8,12.87,4.35,20.7,4.35s15.19-1.54,20.7-4.35c5.54-2.81,8.59-6.58,8.59-10.6,0-8.29-13.14-15.04-29.3-15.04-16.16,0-29.3,6.75-29.3,15.04ZM367.64,59.14c0-8.23,13.09-14.92,29.18-14.92s29.18,6.69,29.18,14.92-13.09,14.83-29.18,14.83-29.18-6.65-29.18-14.83Z"/>
      <g>
        <g>
          <path class="cls-16" d="M387.43,57.79c.2.09.37.2.52.34.33.3.72.68,1.18.85.36.13.47.61.72.85.42.4,1.58.48,1.36,1.24-.06.19-.21.39-.28.56-.13.29-.29.58-.37.9-.06.27.01.53-.03.81-.03.29-.26.51-.58.43-.01.1-.13.04-.16.11-.12.36-.24.73-.46,1.08-.1.16.02.41-.07.56-.03.06-.18.1-.22.18-.27.41-.6.54-.91.87-.48.54-.36,1.28-.21,1.97.02.09.19.15.21.22.1.25.21.52.2.8-.31-.17-.75-.08-.9-.43-.14-.38-.29-.75-.47-1.09-.36-.71-.88-1.27-1.29-1.96.02.03.04.01.06.04-.19-.63.23-1.24-.01-1.79-.19-.44-.09-.98-.5-1.29-.12-.1-.39-.03-.48-.12-.5-.44-.82-1.06-1.01-1.69-.04-.14-.09-.34-.06-.52-.03.07-.07.13-.1.21-.16-.18-.19-.4-.31-.6-.14-.26-.14-.62-.07-.83.07-.18.41-.32.49-.53.08-.17.32-.34.2-.56-.06-.09-.22-.13-.24-.22-.04-.12-.15-.4-.02-.4l3.8.02h0Z"/>
          <path class="cls-16" d="M383.58,57.79c-.02-.11-.07-.21-.14-.28-.27-.24-.58-.45-.9-.59-.23-.09-.48-.24-.74-.25.06,0-.13-.1-.22-.13-.63-.22-1.11-.68-1.6-1.12-.11-.11-.07-.31-.07-.48-.06.11-.07.22-.11.33-.32-.25-.34-.65-.58-.98-.09-.12-.06-.28-.1-.42-.09-.36.16-.71.07-1.07,0-.01-.09,0-.14,0,.03-.45-.16-.93-.01-1.33.07-.18.37-.29.51-.44.23-.23.59-.3.74-.6.09-.21.02-.45.18-.63.03-.04.16.03.19-.07.03-.09.02-.24-.03-.33.3-.09.76-.35.54-.66-.08-.12-.32-.28-.54-.18-.26.11-.5.2-.72.4-.1.09-.14-.15-.25-.13-.39.09-.69.32-1.03.51-.16.08-.39.06-.51-.05-.18-.18-.36-.34-.35-.63.33.02.81.07.87-.38-.43.21-.98.17-1.36-.1.72-.04,1.37-.35,2.04-.57.33-.11.64-.31.99-.44.71-.28,1.47-.41,2.17-.72.18-.08.63-.19.58-.2.08.01-.02.15.01.2.11.18.26.33.39.4.19.09.32-.27.52-.3.37-.08.76,0,1.06-.18.16-.09.37.01.46-.18-.03.19-.39.38-.14.5.16.08.28.24.47.25-.07-.2-.09-.41-.03-.59.07-.2.32-.27.49-.34.13-.07.22.25.33.36.22.22.72.07.87.41.03.09.13.16.13.27.1,0,.21.01.32-.01.04-.01.07-.04.06-.1.17-.03.2.13.32.21.04.02.13.02.14,0,.08-.14.2-.21.3-.3.26-.2.49-.56.83-.42.5.21.92.54,1.35.9.11.09.1.27.08.35-.02.19-.29.29-.49.35-.21.09-.09.33-.16.5-.06.14-.08.24-.19.39-.02.03-.13-.02-.14.07-.02.11.11.26.03.29-.12.05-.21.1-.21.24,0,.13-.09.07-.09.05-.04.09.1.23.03.32-.01.02-.07,0-.1,0,.5.85.19.61.12.66-.3.24-.75.02-1.16.04.03.04.09.1.06.16-.02.01-.07,0-.1,0,.04,0,.13-.01.14.01.08.18-.02.36-.21.4-.36.07-.7.31-1.01.07-.04-.04.02-.3-.1-.23-.11.04,0,.24-.08.34-.19.23-.51.26-.67.59-.13.24-.56.01-.7.24-.09.17.01.51-.14.52-.39.04-.39.3-.38.6,0,.08-.18.02-.16.15-.21-.05-.43.08-.57.16-.18.11-.08.39-.33.56-.04.02.01.16-.03.19-.17.13-.43.27-.55.04-.11-.2-.3-.34-.36-.58-.48.24-1.09.03-1.47.33-.12.09-.12.4-.21.61-.06.12-.02.38,0,.56.19-.21.5-.08.72-.3.16-.15.46-.22.6-.05.24.29-.14.64-.04.94.06.17.25.12.4.1.09,0,0,.23.11.34h-.11c0,.17-.06.3-.07.43-.02.29.34.72.7.61.18-.06.33-.29.54-.21.07.02.03.2.12.23.12.04.22-.04.34-.11.39-.25.91-.24,1.3,0,.33.2.69.32,1.01.49h-3.85Z"/>
          <path class="cls-16" d="M390.49,46.04c.16.02.34-.02.4-.09.23-.23.49-.38.79-.48.08-.02.12-.12.22-.14.07-.01.16-.02.2.01.33.25.72.34,1.08.23.37-.11.69.04,1.03-.04.31-.09.63-.25.91-.16.09.03.13.31.24.35.39.13.74.71.7.31.02.2-.3.02-.45.15-.37.33-.74.56-1.18.77-.02.01,0,.14-.07.18-.44.25-.89.38-1.33.59-.3.16-.33.64-.68.81-.22.1-.48.02-.62-.21-.13-.22-.06-.49-.26-.71-.06-.07.06-.22.03-.35-.12.04,0-.16-.11-.11-.02-.18.09-.51.41-.69.07-.04.24-.3.07-.34-.49-.12-1,.03-1.5-.08-.03-.01.06-.02.1-.01h0Z"/>
          <path class="cls-16" d="M395.3,47.59c-.11,0-.23-.03-.31.02-.12.08-.16.21-.12.35.31-.12.25.03.53-.18.02-.01.01-.09,0-.14-.01-.03-.12.07-.1-.05h0Z"/>
          <path class="cls-16" d="M395.57,49.41c-.21.04-.39.16-.24.36.04.07.27.44.39.45,0-.17-.14-.65-.14-.82h0Z"/>
          <path class="cls-16" d="M396.06,49.2c0-.19-.12-.01-.17-.06-.1.27,0,.6.02.86.01.09.38.41.41.32.11-.27-.12-.91-.21-1.18-.02.02-.04.03-.06.06h0Z"/>
          <path class="cls-16" d="M415.6,52.97c.06-.49-.52-.56-.72-.96-.08-.14,0-.23.03-.33,0-.01.08.01.09-.01.02-.06-.01-.14.02-.2.07-.09.11-.17.09-.28.24.04.38-.16.24-.3-.19-.23-.33-.48-.53-.71-.27-.31-.65-.46-1.01-.7-.08-.05-.21,0-.31-.03-.11-.03-.16-.18-.09-.23.42-.39,1.07-.24,1.52.07.24.17.49.31.74.48.16.11.39.17.57.11.06-.02,0-.23-.05-.29-.27-.28-.74-.26-.99-.67-.13-.23.14-.46.21-.69.13-.43-.58-.36-.9-.48-.35-.14-.78-.12-1.17-.23-.93-.28-1.88-.43-2.75-.85-.09-.04-.18-.13-.28-.2-.01.1.11.2.04.25-.54.4-1-.19-1.56-.2.02.05.12.13.1.14-.43.22-1.06.1-1.48-.16-.37-.22-.87.2-1.25-.02-.3-.17-.55-.4-.88-.49-.53-.14-.98.23-1.44.43-.03,0,.01.15-.02.18-.47.4-1.03.39-1.6.53-.3.07-.57.23-.82.4h.06c-.14,0-.42-.03-.49.22-.38-.14-.52-.63-.92-.67-.3-.03-.5-.22-.74-.35,0,.04.01.07-.06.06-.25-.01-.49.1-.68.23-.21.13-.49.21-.59.43-.22.48-.51.88-1.06,1.02-.07.02-.12.11-.11.2-.03,0-.09-.01-.1.01-.03.04.01.12.04.14.22.09.48.05.7.18-.07-.08.12-.03.06-.11.03,0,.1-.01.1,0,.16.6.21.85.08.68.03.03.14.03.19,0,.14-.1.3-.18.33-.36.05-.22.07-.49.2-.68.23-.31.56.13.67.41-.38-.01-.63.28-.97.39-.01,0,.01.12-.01.13-.24.09-.54.11-.74.3-.03.03.01.17-.02.19-.31.18-.91.06-.93.34-.07.64-.79.65-1.06,1.05-.16.25-.07.64-.04.98.01.16.27.18.27.38.29-.02.58.13.86-.01.04-.02.06-.12.07-.13.36-.17.58-.42.77-.75.02-.03.13,0,.2-.02.28-.12.58-.48.76-.28.17.18.44.28.53.6.05.19.38-.02.62.13.12.07.13.22.24.25.16.03.29.13.43.1.1-.01.03-.13.07-.19.01-.02.07,0,.1-.01.03-.02.07-.05.06-.11.07,0,.16-.02.2.01.1.08.2.08.27.12.18.13.23.4.38.53.17.16.62-.14.71.07.16.36-.01.88.22,1.23.43.62.87,1.26,1.62,1.49.08.03.08.16.08.21.02.33-.06.67.31.77.41.12.88.23,1.27,0,.09-.07.22-.21.31-.25.27-.12.55-.24.68-.45.19-.29,0-.72-.11-1.08.4-.02.73.24,1.13.21l.17.05c.16.1.38.08.47.22.48.8.68,1.65,1.13,2.44.03.06.22.02.35.02-.03-.1.04-.19.08-.25.2-.41.22-.86.49-1.23.08-.09.23-.2.4-.19-.01-.14.13-.23.2-.29.16-.16.22.13.4.23.13.09.33.02.41.13.16.2.43.18.53.36.26.55.45,1.11.61,1.7.01.03.25-.04.32.07.16.27.39.46.66.61.06.03.14.1.17.19.14-.07.06-.19.03-.25-.13-.38-.28-.74-.3-1.14.33.09.67.19,1.02.17-.02-.49.14-1.01-.1-1.44-.1-.18-.37-.29-.49-.51-.08-.13-.11-.33-.03-.4.27-.21.64-.02.94-.03.12,0,.22-.35.3-.5.16-.29.3-.97.13-1.41-.19-.46-1.06-.5-.97-1.09.03-.2.41-.1.61.07.1.08.24.19.37.23.07.02.13.08.21.08h.16Z"/>
          <path class="cls-16" d="M396.54,52.8c-.37-.11-.78-.08-1.12.18-.3.22-.47.52-.69.81-.46.62-.37,1.41-.72,2.04-.16.26-.47.55-.37.88.07.25.36.36.46.64.08.22.04.49.17.63.43.53,1.11.74,1.8.85.47.08.85-.22,1.26-.48.21-.12.52.02.61.26.06.16-.02.4.03.57.19.55.31,1.09.6,1.64.23.42.16.93.03,1.36-.1.35-.31.67-.23,1.03.07.34.36.53.43.87.13.58-.02,1.14.26,1.65.13.24.28.44.53.59.25.14.52.11.8.12-.03-.07.08-.09.06-.16.14.03.2-.08.3-.13.35-.23.62-.52.96-.77.17-.12.3-.38.4-.6.06-.15-.04-.33.07-.49.13-.18.09-.38.23-.52.24-.25.58-.43.72-.77.2-.44.18-.92.09-1.38-.02-.1-.02-.24-.09-.35-.12-.21-.04-.52-.04-.79.16.04.24-.1.31-.18.31-.4.74-.67.9-1.13.11-.33.41-.55.56-.85.03-.08.02-.21.09-.24.29-.19.43-.51.37-.75-.06-.21-.41-.12-.65-.19-.29-.09-.49-.3-.74-.45-.51-.33-1-.73-1.22-1.27-.14-.36-.37-.64-.6-.94-.07-.09-.11-.22-.25-.23.07-.01.14-.03.21-.06-.11-.33-.18-.67-.27-1.02-.56.4-1.26-.06-1.89.02-.04,0,.07.15-.01.18-.1.03-.19-.04-.29-.12-.18-.12-.48.09-.67-.09-.04-.04.01-.18-.02-.25-.08-.16-.1-.19-.22-.33-.1-.12-.31-.37-.47-.41-.17-.04-.36-.07-.47.01-.33.22-.6.46-.94.66-.05.03-.14-.01-.27-.04h0Z"/>
          <path class="cls-16" d="M383.48,54.86c.27-.21.64-.21.88-.07.33.21.7.49.85.87.04.11-.19.11-.28.08-.19-.08-.32-.19-.45-.34-.04-.04-.17-.02-.26-.02.02-.14,0-.25-.12-.3-.16-.07-.37.02-.51-.04-.04-.02-.19-.11-.11-.18h0Z"/>
          <path class="cls-16" d="M410.43,56.66c-.23.16.01.42-.06.64.67,0,.03.29.36-.02.11-.1.31-.09.17-.22-.18-.17-.35-.32-.54-.49-.02-.02-.03.08-.03.15.03-.02.07-.04.11-.06h0Z"/>
          <path class="cls-16" d="M405.24,61.03c-.04-.12-.14-.02-.21-.04-.09.36-.41.52-.75.48.08.32.02.46-.26.67-.04.04.01.2-.03.25-.41.37-.2,1.01.16,1.27.23.18.46-.1.47-.33.02-.47.4-.73.49-1.19.01-.08.06-.21.2-.16-.11-.26.01-.49-.06-.97,0,0,0,.03,0,.04h0Z"/>
          <path class="cls-16" d="M416.35,50.04c-.16-.11-.19.18-.13.22.96.63,0,.27.42.25-.03-.2-.13-.37-.29-.47h0Z"/>
          <path class="cls-16" d="M417.17,50.99c1.21-.75-.74,1.31-.09,0-.03.06-.02.13-.01.21.01.04.08.04.09.07.08.09-.14.22.02.3.04.02.13.02.13,0,.06-.2.06-.43-.04-.63-.02-.03-.07.02-.1.05h0Z"/>
          <path class="cls-16" d="M416.85,51.91c-.06,0-.1.06-.16.07-.06.02.21.32.27.36.03.01-.12-.2-.12-.21.03-.06.01-.15.01-.21h0Z"/>
          <path class="cls-16" d="M416.4,54.73s-.12-.02-.13-.01c-.06.14-.03.39.2.38-.06.3.1.57.14.86.02.11.21.29.32.19.02-.02.02.11.02-.4-.11.04-.08-.12-.17-.11.06-.36-.16-.64-.39-.9h0Z"/>
          <path class="cls-16" d="M417.45,56.23c-.08-.08-.03.12-.11.06-.13.49.12.28.06.21.02.01.07,0,.11,0-.01-.09.02-.19-.06-.27h0Z"/>
          <path class="cls-16" d="M416.53,56.54c-.08.04-.14-.13-.2-.03-.04.05-.04.17,0,.19.29.2.13.01.31-.09-.08.07-.02-.11-.11-.07h0Z"/>
          <path class="cls-16" d="M417.15,56.39s0-.3.06-.36l-.06.36h0Z"/>
          <path class="cls-16" d="M417.07,56.56c.08.01-.1.15-.1.16.01.08.09.04.16.04-.07-.06.08-.19-.06-.2h0Z"/>
          <path class="cls-16" d="M417.67,56.83c-.13.08-.32.11-.21.25.07.09.25-.04.38,0,0-.06-.06-.16-.08-.19,0-.03-.08-.07-.09-.06h0Z"/>
          <path class="cls-16" d="M416.42,56.91c-.28.09-.29.37-.32.62-.09-.04-.13.09-.21.04,0,.06.01.14-.01.16-.36.12-.6.37-.83.62-.02.03-.13.16-.07.18.33.14.68.28.99.52.23.19.4-.21.6-.13.11.04.02.38.11.46.21.19.47-.06.59-.29.21-.41.08-.85-.01-1.28-.04-.2-.31-.25-.23-.5.02.1-.04.16-.11.22-.13-.27-.02-.76-.49-.62h0Z"/>
          <path class="cls-16" d="M413.94,58.28c-.08-.2-.27-.29-.42-.2-.11.05-.19.18-.1.29.32.47.37.61.5.8.11.18.28.27.5.3-.12-.14.09-.3,0-.43-.17-.28-.21-.61-.48-.81v.05h0Z"/>
          <path class="cls-16" d="M415.39,59.68c-.19.03-.39-.08-.53.07-.02.02-.02.12,0,.13.41.16.41.32.62.14.1-.08.23-.11.33-.19.02-.01.01-.09.01-.09-.14-.04-.28-.1-.43-.07h0Z"/>
          <path class="cls-16" d="M417.72,59.9c.18-.08-.91.92-.41.39-.07.07.19.31.21.23.08-.2.36-.37.24-.62,0-.01-.03-.01-.04,0h0Z"/>
          <path class="cls-16" d="M418.09,57.9c0,.1-.12.41-.09.51,0,.01.18-.19.19-.2.03-.11.02-.24-.1-.31h0Z"/>
          <path class="cls-16" d="M418.43,59.28c-.08,0-.06-.22-.11-.18-.02.01-.02.12,0,.13.13.05.27-.03.37-.16-.04,0-.2.2-.26.2h0Z"/>
          <path class="cls-16" d="M419.45,58.58c-.21-.02-.27.16-.37.3-.09.14-.01.25.11.34.09.07.25-.01.36.03.27.15.06.41.24.55.17.11.41.08.62.11.23.04.27.46.53.38.1-.02.09-.22.06-.34,0-.01-.09.01-.09,0-.03-.17.04-.36-.03-.47-.2-.24-.41-.48-.69-.65-.22-.14-.47-.21-.75-.24h0Z"/>
          <path class="cls-16" d="M420.47,60.59c-.29.12-.38.44-.49.7-.35.77-.44.29-.57.19-.22-.18-.19-.51-.42-.7-.14-.11-.32.1-.44.18-.4.27-.8.42-1.2.68-.08.04-.16.16-.19.17-.67.26-1.21.7-1.87.99-.21.09-.49.2-.58.41-.07.17.09.4.01.58-.03.07-.01.19-.09.21-.29.09-.28.34-.36.55-.04.12-.11.28.04.34.28.13.6.11.91.07.43-.06.73-.46,1.18-.38.13.02.23.21.35.31.39.32.44,1.12,1.06,1.04.17-.02.2-.23.33-.31.63-.36,1.19-.73,1.81-1.12.33-.21.57-.52.64-.94.1-.46.08-.91.06-1.33-.02-.53-.07-1.1-.2-1.63h0Z"/>
          <path class="cls-16" d="M417.34,66.36c-.09.04-.22,0-.31.02-.01.01-.01.07-.01.1.07,0,.07.07.14.13.22.2.64.1.38-.28-.02-.03-.12-.02-.2.02h0Z"/>
          <path class="cls-16" d="M421.02,66.16c-.39.28-.83.41-1.29.58-.08.02-.22.13-.22.29.46,0,.76-.36,1.4-.55.11-.04.16-.18.17-.31h-.11.06Z"/>
          <path class="cls-16" d="M422.36,65.29s.02.09,0,.1c-.02.02-.09.01-.09.01-.09.43-.43.6-.32.44-.13.18.3.38.39.19.1-.21.11-.49.12-.74.01-.03-.06-.08-.09-.04-.02.02-.01.07-.01.1,0-.01,0-.03,0-.06h0Z"/>
        </g>
        <g>
          <path class="cls-5" d="M387.43,57.79c.2.09.37.2.52.34.33.3.72.68,1.18.85.36.13.47.61.72.85.42.4,1.58.48,1.36,1.24-.06.19-.21.39-.28.56-.13.29-.29.58-.37.9-.06.27.01.53-.03.81-.03.29-.26.51-.58.43-.01.1-.13.04-.16.11-.12.36-.24.73-.46,1.08-.1.16.02.41-.07.56-.03.06-.18.1-.22.18-.27.41-.6.54-.91.87-.48.54-.36,1.28-.21,1.97.02.09.19.15.21.22.1.25.21.52.2.8-.31-.17-.75-.08-.9-.43-.14-.38-.29-.75-.47-1.09-.36-.71-.88-1.27-1.29-1.96.02.03.04.01.06.04-.19-.63.23-1.24-.01-1.79-.19-.44-.09-.98-.5-1.29-.12-.1-.39-.03-.48-.12-.5-.44-.82-1.06-1.01-1.69-.04-.14-.09-.34-.06-.52-.03.07-.07.13-.1.21-.16-.18-.19-.4-.31-.6-.14-.26-.14-.62-.07-.83.07-.18.41-.32.49-.53.08-.17.32-.34.2-.56-.06-.09-.22-.13-.24-.22-.04-.12-.15-.4-.02-.4l3.8.02h0Z"/>
          <path class="cls-5" d="M383.58,57.79c-.02-.11-.07-.21-.14-.28-.27-.24-.58-.45-.9-.59-.23-.09-.48-.24-.74-.25.06,0-.13-.1-.22-.13-.63-.22-1.11-.68-1.6-1.12-.11-.11-.07-.31-.07-.48-.06.11-.07.22-.11.33-.32-.25-.34-.65-.58-.98-.09-.12-.06-.28-.1-.42-.09-.36.16-.71.07-1.07,0-.01-.09,0-.14,0,.03-.45-.16-.93-.01-1.33.07-.18.37-.29.51-.44.23-.23.59-.3.74-.6.09-.21.02-.45.18-.63.03-.04.16.03.19-.07.03-.09.02-.24-.03-.33.3-.09.76-.35.54-.66-.08-.12-.32-.28-.54-.18-.26.11-.5.2-.72.4-.1.09-.14-.15-.25-.13-.39.09-.69.32-1.03.51-.16.08-.39.06-.51-.05-.18-.18-.36-.34-.35-.63.33.02.81.07.87-.38-.43.21-.98.17-1.36-.1.72-.04,1.37-.35,2.04-.57.33-.11.64-.31.99-.44.71-.28,1.47-.41,2.17-.72.18-.08.63-.19.58-.2.08.01-.02.15.01.2.11.18.26.33.39.4.19.09.32-.27.52-.3.37-.08.76,0,1.06-.18.16-.09.37.01.46-.18-.03.19-.39.38-.14.5.16.08.28.24.47.25-.07-.2-.09-.41-.03-.59.07-.2.32-.27.49-.34.13-.07.22.25.33.36.22.22.72.07.87.41.03.09.13.16.13.27.1,0,.21.01.32-.01.04-.01.07-.04.06-.1.17-.03.2.13.32.21.04.02.13.02.14,0,.08-.14.2-.21.3-.3.26-.2.49-.56.83-.42.5.21.92.54,1.35.9.11.09.1.27.08.35-.02.19-.29.29-.49.35-.21.09-.09.33-.16.5-.06.14-.08.24-.19.39-.02.03-.13-.02-.14.07-.02.11.11.26.03.29-.12.05-.21.1-.21.24,0,.13-.09.07-.09.05-.04.09.1.23.03.32-.01.02-.07,0-.1,0,.5.85.19.61.12.66-.3.24-.75.02-1.16.04.03.04.09.1.06.16-.02.01-.07,0-.1,0,.04,0,.13-.01.14.01.08.18-.02.36-.21.4-.36.07-.7.31-1.01.07-.04-.04.02-.3-.1-.23-.11.04,0,.24-.08.34-.19.23-.51.26-.67.59-.13.24-.56.01-.7.24-.09.17.01.51-.14.52-.39.04-.39.3-.38.6,0,.08-.18.02-.16.15-.21-.05-.43.08-.57.16-.18.11-.08.39-.33.56-.04.02.01.16-.03.19-.17.13-.43.27-.55.04-.11-.2-.3-.34-.36-.58-.48.24-1.09.03-1.47.33-.12.09-.12.4-.21.61-.06.12-.02.38,0,.56.19-.21.5-.08.72-.3.16-.15.46-.22.6-.05.24.29-.14.64-.04.94.06.17.25.12.4.1.09,0,0,.23.11.34h-.11c0,.17-.06.3-.07.43-.02.29.34.72.7.61.18-.06.33-.29.54-.21.07.02.03.2.12.23.12.04.22-.04.34-.11.39-.25.91-.24,1.3,0,.33.2.69.32,1.01.49h-3.85Z"/>
          <path class="cls-5" d="M390.49,46.04c.16.02.34-.02.4-.09.23-.23.49-.38.79-.48.08-.02.12-.12.22-.14.07-.01.16-.02.2.01.33.25.72.34,1.08.23.37-.11.69.04,1.03-.04.31-.09.63-.25.91-.16.09.03.13.31.24.35.39.13.74.71.7.31.02.2-.3.02-.45.15-.37.33-.74.56-1.18.77-.02.01,0,.14-.07.18-.44.25-.89.38-1.33.59-.3.16-.33.64-.68.81-.22.1-.48.02-.62-.21-.13-.22-.06-.49-.26-.71-.06-.07.06-.22.03-.35-.12.04,0-.16-.11-.11-.02-.18.09-.51.41-.69.07-.04.24-.3.07-.34-.49-.12-1,.03-1.5-.08-.03-.01.06-.02.1-.01h0Z"/>
          <path class="cls-5" d="M395.3,47.59c-.11,0-.23-.03-.31.02-.12.08-.16.21-.12.35.31-.12.25.03.53-.18.02-.01.01-.09,0-.14-.01-.03-.12.07-.1-.05h0Z"/>
          <path class="cls-5" d="M395.57,49.41c-.21.04-.39.16-.24.36.04.07.27.44.39.45,0-.17-.14-.65-.14-.82h0Z"/>
          <path class="cls-5" d="M396.06,49.2c0-.19-.12-.01-.17-.06-.1.27,0,.6.02.86.01.09.38.41.41.32.11-.27-.12-.91-.21-1.18-.02.02-.04.03-.06.06h0Z"/>
          <path class="cls-5" d="M415.6,52.97c.06-.49-.52-.56-.72-.96-.08-.14,0-.23.03-.33,0-.01.08.01.09-.01.02-.06-.01-.14.02-.2.07-.09.11-.17.09-.28.24.04.38-.16.24-.3-.19-.23-.33-.48-.53-.71-.27-.31-.65-.46-1.01-.7-.08-.05-.21,0-.31-.03-.11-.03-.16-.18-.09-.23.42-.39,1.07-.24,1.52.07.24.17.49.31.74.48.16.11.39.17.57.11.06-.02,0-.23-.05-.29-.27-.28-.74-.26-.99-.67-.13-.23.14-.46.21-.69.13-.43-.58-.36-.9-.48-.35-.14-.78-.12-1.17-.23-.93-.28-1.88-.43-2.75-.85-.09-.04-.18-.13-.28-.2-.01.1.11.2.04.25-.54.4-1-.19-1.56-.2.02.05.12.13.1.14-.43.22-1.06.1-1.48-.16-.37-.22-.87.2-1.25-.02-.3-.17-.55-.4-.88-.49-.53-.14-.98.23-1.44.43-.03,0,.01.15-.02.18-.47.4-1.03.39-1.6.53-.3.07-.57.23-.82.4h.06c-.14,0-.42-.03-.49.22-.38-.14-.52-.63-.92-.67-.3-.03-.5-.22-.74-.35,0,.04.01.07-.06.06-.25-.01-.49.1-.68.23-.21.13-.49.21-.59.43-.22.48-.51.88-1.06,1.02-.07.02-.12.11-.11.2-.03,0-.09-.01-.1.01-.03.04.01.12.04.14.22.09.48.05.7.18-.07-.08.12-.03.06-.11.03,0,.1-.01.1,0,.16.6.21.85.08.68.03.03.14.03.19,0,.14-.1.3-.18.33-.36.05-.22.07-.49.2-.68.23-.31.56.13.67.41-.38-.01-.63.28-.97.39-.01,0,.01.12-.01.13-.24.09-.54.11-.74.3-.03.03.01.17-.02.19-.31.18-.91.06-.93.34-.07.64-.79.65-1.06,1.05-.16.25-.07.64-.04.98.01.16.27.18.27.38.29-.02.58.13.86-.01.04-.02.06-.12.07-.13.36-.17.58-.42.77-.75.02-.03.13,0,.2-.02.28-.12.58-.48.76-.28.17.18.44.28.53.6.05.19.38-.02.62.13.12.07.13.22.24.25.16.03.29.13.43.1.1-.01.03-.13.07-.19.01-.02.07,0,.1-.01.03-.02.07-.05.06-.11.07,0,.16-.02.2.01.1.08.2.08.27.12.18.13.23.4.38.53.17.16.62-.14.71.07.16.36-.01.88.22,1.23.43.62.87,1.26,1.62,1.49.08.03.08.16.08.21.02.33-.06.67.31.77.41.12.88.23,1.27,0,.09-.07.22-.21.31-.25.27-.12.55-.24.68-.45.19-.29,0-.72-.11-1.08.4-.02.73.24,1.13.21l.17.05c.16.1.38.08.47.22.48.8.68,1.65,1.13,2.44.03.06.22.02.35.02-.03-.1.04-.19.08-.25.2-.41.22-.86.49-1.23.08-.09.23-.2.4-.19-.01-.14.13-.23.2-.29.16-.16.22.13.4.23.13.09.33.02.41.13.16.2.43.18.53.36.26.55.45,1.11.61,1.7.01.03.25-.04.32.07.16.27.39.46.66.61.06.03.14.1.17.19.14-.07.06-.19.03-.25-.13-.38-.28-.74-.3-1.14.33.09.67.19,1.02.17-.02-.49.14-1.01-.1-1.44-.1-.18-.37-.29-.49-.51-.08-.13-.11-.33-.03-.4.27-.21.64-.02.94-.03.12,0,.22-.35.3-.5.16-.29.3-.97.13-1.41-.19-.46-1.06-.5-.97-1.09.03-.2.41-.1.61.07.1.08.24.19.37.23.07.02.13.08.21.08h.16Z"/>
          <path class="cls-5" d="M396.54,52.8c-.37-.11-.78-.08-1.12.18-.3.22-.47.52-.69.81-.46.62-.37,1.41-.72,2.04-.16.26-.47.55-.37.88.07.25.36.36.46.64.08.22.04.49.17.63.43.53,1.11.74,1.8.85.47.08.85-.22,1.26-.48.21-.12.52.02.61.26.06.16-.02.4.03.57.19.55.31,1.09.6,1.64.23.42.16.93.03,1.36-.1.35-.31.67-.23,1.03.07.34.36.53.43.87.13.58-.02,1.14.26,1.65.13.24.28.44.53.59.25.14.52.11.8.12-.03-.07.08-.09.06-.16.14.03.2-.08.3-.13.35-.23.62-.52.96-.77.17-.12.3-.38.4-.6.06-.15-.04-.33.07-.49.13-.18.09-.38.23-.52.24-.25.58-.43.72-.77.2-.44.18-.92.09-1.38-.02-.1-.02-.24-.09-.35-.12-.21-.04-.52-.04-.79.16.04.24-.1.31-.18.31-.4.74-.67.9-1.13.11-.33.41-.55.56-.85.03-.08.02-.21.09-.24.29-.19.43-.51.37-.75-.06-.21-.41-.12-.65-.19-.29-.09-.49-.3-.74-.45-.51-.33-1-.73-1.22-1.27-.14-.36-.37-.64-.6-.94-.07-.09-.11-.22-.25-.23.07-.01.14-.03.21-.06-.11-.33-.18-.67-.27-1.02-.56.4-1.26-.06-1.89.02-.04,0,.07.15-.01.18-.1.03-.19-.04-.29-.12-.18-.12-.48.09-.67-.09-.04-.04.01-.18-.02-.25-.08-.16-.1-.19-.22-.33-.1-.12-.31-.37-.47-.41-.17-.04-.36-.07-.47.01-.33.22-.6.46-.94.66-.05.03-.14-.01-.27-.04h0Z"/>
          <path class="cls-5" d="M383.48,54.86c.27-.21.64-.21.88-.07.33.21.7.49.85.87.04.11-.19.11-.28.08-.19-.08-.32-.19-.45-.34-.04-.04-.17-.02-.26-.02.02-.14,0-.25-.12-.3-.16-.07-.37.02-.51-.04-.04-.02-.19-.11-.11-.18h0Z"/>
          <path class="cls-5" d="M410.43,56.66c-.23.16.01.42-.06.64.67,0,.03.29.36-.02.11-.1.31-.09.17-.22-.18-.17-.35-.32-.54-.49-.02-.02-.03.08-.03.15.03-.02.07-.04.11-.06h0Z"/>
          <path class="cls-5" d="M405.24,61.03c-.04-.12-.14-.02-.21-.04-.09.36-.41.52-.75.48.08.32.02.46-.26.67-.04.04.01.2-.03.25-.41.37-.2,1.01.16,1.27.23.18.46-.1.47-.33.02-.47.4-.73.49-1.19.01-.08.06-.21.2-.16-.11-.26.01-.49-.06-.97,0,0,0,.03,0,.04h0Z"/>
          <path class="cls-5" d="M416.35,50.04c-.16-.11-.19.18-.13.22.96.63,0,.27.42.25-.03-.2-.13-.37-.29-.47h0Z"/>
          <path class="cls-5" d="M417.17,50.99c1.21-.75-.74,1.31-.09,0-.03.06-.02.13-.01.21.01.04.08.04.09.07.08.09-.14.22.02.3.04.02.13.02.13,0,.06-.2.06-.43-.04-.63-.02-.03-.07.02-.1.05h0Z"/>
          <path class="cls-5" d="M416.85,51.91c-.06,0-.1.06-.16.07-.06.02.21.32.27.36.03.01-.12-.2-.12-.21.03-.06.01-.15.01-.21h0Z"/>
          <path class="cls-5" d="M416.4,54.73s-.12-.02-.13-.01c-.06.14-.03.39.2.38-.06.3.1.57.14.86.02.11.21.29.32.19.02-.02.02.11.02-.4-.11.04-.08-.12-.17-.11.06-.36-.16-.64-.39-.9h0Z"/>
          <path class="cls-5" d="M417.45,56.23c-.08-.08-.03.12-.11.06-.13.49.12.28.06.21.02.01.07,0,.11,0-.01-.09.02-.19-.06-.27h0Z"/>
          <path class="cls-5" d="M416.53,56.54c-.08.04-.14-.13-.2-.03-.04.05-.04.17,0,.19.29.2.13.01.31-.09-.08.07-.02-.11-.11-.07h0Z"/>
          <path class="cls-5" d="M417.15,56.39s0-.3.06-.36l-.06.36h0Z"/>
          <path class="cls-5" d="M417.07,56.56c.08.01-.1.15-.1.16.01.08.09.04.16.04-.07-.06.08-.19-.06-.2h0Z"/>
          <path class="cls-5" d="M417.67,56.83c-.13.08-.32.11-.21.25.07.09.25-.04.38,0,0-.06-.06-.16-.08-.19,0-.03-.08-.07-.09-.06h0Z"/>
          <path class="cls-5" d="M416.42,56.91c-.28.09-.29.37-.32.62-.09-.04-.13.09-.21.04,0,.06.01.14-.01.16-.36.12-.6.37-.83.62-.02.03-.13.16-.07.18.33.14.68.28.99.52.23.19.4-.21.6-.13.11.04.02.38.11.46.21.19.47-.06.59-.29.21-.41.08-.85-.01-1.28-.04-.2-.31-.25-.23-.5.02.1-.04.16-.11.22-.13-.27-.02-.76-.49-.62h0Z"/>
          <path class="cls-5" d="M413.94,58.28c-.08-.2-.27-.29-.42-.2-.11.05-.19.18-.1.29.32.47.37.61.5.8.11.18.28.27.5.3-.12-.14.09-.3,0-.43-.17-.28-.21-.61-.48-.81v.05h0Z"/>
          <path class="cls-5" d="M415.39,59.68c-.19.03-.39-.08-.53.07-.02.02-.02.12,0,.13.41.16.41.32.62.14.1-.08.23-.11.33-.19.02-.01.01-.09.01-.09-.14-.04-.28-.1-.43-.07h0Z"/>
          <path class="cls-5" d="M417.72,59.9c.18-.08-.91.92-.41.39-.07.07.19.31.21.23.08-.2.36-.37.24-.62,0-.01-.03-.01-.04,0h0Z"/>
          <path class="cls-5" d="M418.09,57.9c0,.1-.12.41-.09.51,0,.01.18-.19.19-.2.03-.11.02-.24-.1-.31h0Z"/>
          <path class="cls-5" d="M418.43,59.28c-.08,0-.06-.22-.11-.18-.02.01-.02.12,0,.13.13.05.27-.03.37-.16-.04,0-.2.2-.26.2h0Z"/>
          <path class="cls-5" d="M419.45,58.58c-.21-.02-.27.16-.37.3-.09.14-.01.25.11.34.09.07.25-.01.36.03.27.15.06.41.24.55.17.11.41.08.62.11.23.04.27.46.53.38.1-.02.09-.22.06-.34,0-.01-.09.01-.09,0-.03-.17.04-.36-.03-.47-.2-.24-.41-.48-.69-.65-.22-.14-.47-.21-.75-.24h0Z"/>
          <path class="cls-5" d="M420.47,60.59c-.29.12-.38.44-.49.7-.35.77-.44.29-.57.19-.22-.18-.19-.51-.42-.7-.14-.11-.32.1-.44.18-.4.27-.8.42-1.2.68-.08.04-.16.16-.19.17-.67.26-1.21.7-1.87.99-.21.09-.49.2-.58.41-.07.17.09.4.01.58-.03.07-.01.19-.09.21-.29.09-.28.34-.36.55-.04.12-.11.28.04.34.28.13.6.11.91.07.43-.06.73-.46,1.18-.38.13.02.23.21.35.31.39.32.44,1.12,1.06,1.04.17-.02.2-.23.33-.31.63-.36,1.19-.73,1.81-1.12.33-.21.57-.52.64-.94.1-.46.08-.91.06-1.33-.02-.53-.07-1.1-.2-1.63h0Z"/>
          <path class="cls-5" d="M417.34,66.36c-.09.04-.22,0-.31.02-.01.01-.01.07-.01.1.07,0,.07.07.14.13.22.2.64.1.38-.28-.02-.03-.12-.02-.2.02h0Z"/>
          <path class="cls-5" d="M421.02,66.16c-.39.28-.83.41-1.29.58-.08.02-.22.13-.22.29.46,0,.76-.36,1.4-.55.11-.04.16-.18.17-.31h-.11.06Z"/>
          <path class="cls-5" d="M422.36,65.29s.02.09,0,.1c-.02.02-.09.01-.09.01-.09.43-.43.6-.32.44-.13.18.3.38.39.19.1-.21.11-.49.12-.74.01-.03-.06-.08-.09-.04-.02.02-.01.07-.01.1,0-.01,0-.03,0-.06h0Z"/>
        </g>
      </g>
      <path class="cls-6" d="M367.27,59.14c0,4.08,3.08,7.9,8.68,10.74,5.54,2.81,12.92,4.36,20.77,4.36s15.24-1.55,20.77-4.36c5.6-2.84,8.68-6.66,8.68-10.74,0-8.38-13.21-15.2-29.46-15.2s-29.45,6.82-29.45,15.2ZM376.13,69.53c-5.46-2.77-8.47-6.46-8.47-10.39,0-8.16,13.04-14.81,29.06-14.81s29.06,6.64,29.06,14.81c0,3.93-3.01,7.62-8.47,10.39-5.48,2.79-12.8,4.32-20.6,4.32s-15.11-1.53-20.59-4.32Z"/>
      <rect class="cls-7" x="396.55" y="44.16" width=".39" height="29.84"/>
      <rect class="cls-7" x="396.44" y="44.16" width=".39" height="29.84"/>
      <path class="cls-6" d="M396.63,44.03c-1.52,0-2.8,1.59-3.69,4.59h0c-2.24,7.49-1.52,22.19,3.56,25.47l.3.19v-.61s-.09-.06-.09-.06c-3.31-2.22-4.48-9.58-4.48-15.21,0-3.58.44-7.1,1.2-9.64.58-1.93,1.6-4.23,3.2-4.23h.2v-.51h-.2Z"/>
      <path class="cls-6" d="M396.46,43.9c-14.1.84-19.38,7.96-19.62,13.8h0c-.27,6.59,5.73,14.59,19.53,16.55l.22.03v-.52l-.17-.02c-13.18-1.88-19.08-9.19-19.08-15.61v-.4c.24-5.62,5.38-12.48,19.14-13.31h.18s0-.52,0-.52h-.21Z"/>
      <path class="cls-6" d="M396.36,43.91c-10.55,2.06-14.45,8.67-14.58,14.17h0c-.15,6.21,4.32,13.62,14.64,16.17l.25.06v-.53s-.15-.04-.15-.04c-9.83-2.44-14.23-9.47-14.23-15.36v-.29c.13-5.29,3.92-11.66,14.15-13.67l.16-.03v-.52l-.23.04Z"/>
      <path class="cls-6" d="M396.33,43.9c-7.61.46-13.95,2.15-18.34,4.87h0c-3.99,2.47-6.24,5.76-6.35,9.25-.19,6.58,7.36,14.15,24.67,16.23l.22.03v-.51l-.17-.02c-16.72-2.01-24.21-9.22-24.21-15.47v-.23c.1-3.31,2.27-6.45,6.11-8.83,4.32-2.68,10.57-4.33,18.09-4.79h.18v-.52h-.21Z"/>
      <rect class="cls-7" x="368.84" y="64.09" width="55.71" height=".4"/>
      <rect class="cls-7" x="374.44" y="68.97" width="44.51" height=".4"/>
      <rect class="cls-7" x="367.44" y="59.21" width="58.5" height=".4"/>
      <rect class="cls-7" x="368.94" y="54.33" width="55.6" height=".4"/>
      <rect class="cls-7" x="373.43" y="49.45" width="46.49" height=".4"/>
      <path class="cls-6" d="M396.5,44.03c-6.18,1.42-9.81,6.63-9.72,13.95h0c.09,6.83,3.83,14.94,9.72,16.14l.24.05v-.52l-.16-.03c-5.63-1.17-9.21-9.03-9.29-15.64v-.27c0-6.9,3.47-11.83,9.3-13.18l.15-.04v-.52l-.24.06Z"/>
      <path class="cls-6" d="M396.62,44.03v.51h.2c1.6,0,2.63,2.3,3.2,4.23.76,2.54,1.2,6.06,1.2,9.64,0,5.63-1.17,12.99-4.48,15.21l-.09.06v.61l.3-.2c5.08-3.28,5.8-17.98,3.56-25.47-.9-3-2.18-4.59-3.69-4.59h-.2Z"/>
      <path class="cls-6" d="M396.78,44.1v.3s.19.01.19.01c13.75.83,18.9,7.69,19.13,13.31,0,0,0,.4,0,.4,0,6.42-5.9,13.73-19.08,15.61l-.17.02v.52l.22-.03c13.8-1.96,19.79-9.95,19.53-16.55-.24-5.84-5.52-12.95-19.62-13.8h-.21s0,.2,0,.2Z"/>
      <path class="cls-6" d="M396.86,44.1v.29s.16.03.16.03c10.23,2.01,14.02,8.38,14.15,13.67v.29c0,5.89-4.39,12.92-14.22,15.36l-.15.04v.53l.24-.06c10.32-2.55,14.79-9.96,14.64-16.17-.13-5.49-4.03-12.1-14.58-14.17l-.23-.05v.24Z"/>
      <path class="cls-6" d="M396.92,44.1v.3h.18c7.52.47,13.78,2.13,18.09,4.81,3.84,2.38,6.01,5.52,6.1,8.83v.23c0,6.25-7.48,13.46-24.21,15.47l-.17.02v.51l.22-.03c17.31-2.08,24.86-9.65,24.67-16.23-.1-3.49-2.36-6.78-6.35-9.25-4.39-2.72-10.73-4.41-18.34-4.87h-.21s0,.2,0,.2h0Z"/>
      <path class="cls-6" d="M396.72,44.22v.28l.15.04c5.82,1.35,9.3,6.27,9.3,13.18v.27c-.09,6.61-3.66,14.47-9.29,15.64l-.16.03v.52l.24-.05c5.9-1.2,9.64-9.31,9.72-16.14.09-7.32-3.54-12.54-9.72-13.95l-.24-.06v.25Z"/>
      <polygon class="cls-7" points="391.74 33.62 395.31 33.62 396.41 30.22 397.52 33.62 401.09 33.62 398.2 35.72 399.31 39.12 396.41 37.02 393.52 39.12 394.62 35.72 391.74 33.62"/>
      <polygon class="cls-7" points="391.74 82.19 395.31 82.19 396.41 78.8 397.52 82.19 401.09 82.19 398.2 84.3 399.31 87.7 396.41 85.59 393.52 87.7 394.62 84.3 391.74 82.19"/>
      <polygon class="cls-7" points="410.41 42.88 412.09 39.73 409.61 37.15 413.13 37.77 414.8 34.62 415.3 38.16 418.82 38.78 415.61 40.34 416.11 43.89 413.62 41.32 410.41 42.88"/>
      <polygon class="cls-7" points="409.56 80.55 412.22 78.18 410.79 74.9 413.87 76.7 416.54 74.33 415.78 77.82 418.87 79.62 415.31 79.98 414.55 83.47 413.11 80.2 409.56 80.55"/>
      <polygon class="cls-7" points="383.11 36.4 379.7 37.48 377.62 34.57 377.6 38.15 374.19 39.23 377.58 40.36 377.56 43.93 379.68 41.05 383.07 42.18 380.99 39.28 383.11 36.4"/>
      <polygon class="cls-7" points="381.72 74.6 378.76 76.6 375.94 74.4 376.93 77.84 373.97 79.84 377.54 79.96 378.53 83.4 379.75 80.03 383.33 80.15 380.51 77.96 381.72 74.6"/>
    </g>
  </g>
  <g id="Capa_2" data-name="Capa 2">
    <path class="cls-15" d="M446.61,447.91c0-4.78-2.15-9.48-6.17-12.6-1.65-1.28-3.02-2.85-4.03-4.62-1.03-1.77-1.71-3.75-1.99-5.81-1.08-7.91-7.85-13.77-15.78-13.77-.2,0-.41,0-.61.01-4.17.16-8.23-1.31-11.32-4.12-3.04-2.76-6.87-4.13-10.7-4.13s-7.66,1.37-10.7,4.13c-2.93,2.67-6.75,4.13-10.7,4.13-.2,0-.41,0-.62-.01-.2,0-.41-.01-.61-.01-7.93,0-14.7,5.86-15.78,13.77-.28,2.06-.97,4.03-1.99,5.81-1.02,1.77-2.39,3.35-4.03,4.62-4.02,3.12-6.17,7.82-6.17,12.6,0,2.91.8,5.85,2.45,8.48,1.61,2.57,2.45,5.51,2.45,8.49,0,1.12-.12,2.25-.36,3.37-.25,1.13-.36,2.26-.36,3.38,0,6.79,4.36,13.01,11.06,15.16,1.98.64,3.81,1.65,5.38,2.96,1.56,1.32,2.88,2.93,3.85,4.78.91,1.72,2.09,3.21,3.46,4.44,2.93,2.62,6.73,4.06,10.63,4.06,2.01,0,4.05-.38,6.01-1.19,1.93-.79,3.97-1.18,6.02-1.18s4.09.4,6.02,1.18c1.97.8,4,1.19,6.01,1.19,3.91,0,7.71-1.44,10.63-4.06,1.38-1.23,2.56-2.72,3.46-4.44.97-1.85,2.28-3.46,3.85-4.78,1.57-1.31,3.39-2.33,5.38-2.96,6.7-2.15,11.06-8.37,11.06-15.16,0-1.12-.11-2.24-.36-3.38-.24-1.12-.36-2.25-.36-3.37,0-2.99.84-5.93,2.45-8.49,1.65-2.63,2.45-5.56,2.45-8.48ZM396,490.68c-20.84,0-37.73-16.89-37.73-37.73s16.89-37.72,37.73-37.72,37.73,16.89,37.73,37.72-16.89,37.73-37.73,37.73Z"/>
    <path class="cls-12" d="M396,415.22c-20.84,0-37.73,16.89-37.73,37.72s16.89,37.73,37.73,37.73,37.73-16.89,37.73-37.73-16.89-37.72-37.73-37.72ZM396,486.53c-18.55,0-33.58-15.03-33.58-33.58s15.03-33.58,33.58-33.58,33.58,15.03,33.58,33.58-15.03,33.58-33.58,33.58Z"/>
    <path class="cls-3" d="M429.58,452.95c0,18.55-15.03,33.58-33.58,33.58s-33.58-15.03-33.58-33.58,15.03-33.58,33.58-33.58,33.58,15.03,33.58,33.58Z"/>
    <path class="cls-15" d="M446.61,447.91c0-4.78-2.15-9.48-6.17-12.6-1.65-1.28-3.02-2.85-4.03-4.62-1.03-1.77-1.71-3.75-1.99-5.81-1.08-7.91-7.85-13.77-15.78-13.77-.2,0-.41,0-.61.01-4.17.16-8.23-1.31-11.32-4.12-3.04-2.76-6.87-4.13-10.7-4.13s-7.66,1.37-10.7,4.13c-2.93,2.67-6.75,4.13-10.7,4.13-.2,0-.41,0-.62-.01-.2,0-.41-.01-.61-.01-7.93,0-14.7,5.86-15.78,13.77-.28,2.06-.97,4.03-1.99,5.81-1.02,1.77-2.39,3.35-4.03,4.62-4.02,3.12-6.17,7.82-6.17,12.6,0,2.91.8,5.85,2.45,8.48,1.61,2.57,2.45,5.51,2.45,8.49,0,1.12-.12,2.25-.36,3.37-.25,1.13-.36,2.26-.36,3.38,0,6.79,4.36,13.01,11.06,15.16,1.98.64,3.81,1.65,5.38,2.96,1.56,1.32,2.88,2.93,3.85,4.78.91,1.72,2.09,3.21,3.46,4.44,2.93,2.62,6.73,4.06,10.63,4.06,2.01,0,4.05-.38,6.01-1.19,1.93-.79,3.97-1.18,6.02-1.18s4.09.4,6.02,1.18c1.97.8,4,1.19,6.01,1.19,3.91,0,7.71-1.44,10.63-4.06,1.38-1.23,2.56-2.72,3.46-4.44.97-1.85,2.28-3.46,3.85-4.78,1.57-1.31,3.39-2.33,5.38-2.96,6.7-2.15,11.06-8.37,11.06-15.16,0-1.12-.11-2.24-.36-3.38-.24-1.12-.36-2.25-.36-3.37,0-2.99.84-5.93,2.45-8.49,1.65-2.63,2.45-5.56,2.45-8.48ZM396,490.68c-20.84,0-37.73-16.89-37.73-37.73s16.89-37.72,37.73-37.72,37.73,16.89,37.73,37.72-16.89,37.73-37.73,37.73Z"/>
    <path class="cls-12" d="M396,415.22c-20.84,0-37.73,16.89-37.73,37.72s16.89,37.73,37.73,37.73,37.73-16.89,37.73-37.73-16.89-37.72-37.73-37.72ZM396,486.53c-18.55,0-33.58-15.03-33.58-33.58s15.03-33.58,33.58-33.58,33.58,15.03,33.58,33.58-15.03,33.58-33.58,33.58Z"/>
    <path class="cls-3" d="M429.58,452.95c0,18.55-15.03,33.58-33.58,33.58s-33.58-15.03-33.58-33.58,15.03-33.58,33.58-33.58,33.58,15.03,33.58,33.58Z"/>
    <path class="cls-15" d="M446.61,447.91c0-4.78-2.15-9.48-6.17-12.6-1.65-1.28-3.02-2.85-4.03-4.62-1.03-1.77-1.71-3.75-1.99-5.81-1.08-7.91-7.85-13.77-15.78-13.77-.2,0-.41,0-.61.01-4.17.16-8.23-1.31-11.32-4.12-3.04-2.76-6.87-4.13-10.7-4.13s-7.66,1.37-10.7,4.13c-2.93,2.67-6.75,4.13-10.7,4.13-.2,0-.41,0-.62-.01-.2,0-.41-.01-.61-.01-7.93,0-14.7,5.86-15.78,13.77-.28,2.06-.97,4.03-1.99,5.81-1.02,1.77-2.39,3.35-4.03,4.62-4.02,3.12-6.17,7.82-6.17,12.6,0,2.91.8,5.85,2.45,8.48,1.61,2.57,2.45,5.51,2.45,8.49,0,1.12-.12,2.25-.36,3.37-.25,1.13-.36,2.26-.36,3.38,0,6.79,4.36,13.01,11.06,15.16,1.98.64,3.81,1.65,5.38,2.96,1.56,1.32,2.88,2.93,3.85,4.78.91,1.72,2.09,3.21,3.46,4.44,2.93,2.62,6.73,4.06,10.63,4.06,2.01,0,4.05-.38,6.01-1.19,1.93-.79,3.97-1.18,6.02-1.18s4.09.4,6.02,1.18c1.97.8,4,1.19,6.01,1.19,3.91,0,7.71-1.44,10.63-4.06,1.38-1.23,2.56-2.72,3.46-4.44.97-1.85,2.28-3.46,3.85-4.78,1.57-1.31,3.39-2.33,5.38-2.96,6.7-2.15,11.06-8.37,11.06-15.16,0-1.12-.11-2.24-.36-3.38-.24-1.12-.36-2.25-.36-3.37,0-2.99.84-5.93,2.45-8.49,1.65-2.63,2.45-5.56,2.45-8.48ZM396,490.68c-20.84,0-37.73-16.89-37.73-37.73s16.89-37.72,37.73-37.72,37.73,16.89,37.73,37.72-16.89,37.73-37.73,37.73Z"/>
    <path class="cls-12" d="M396,415.22c-20.84,0-37.73,16.89-37.73,37.72s16.89,37.73,37.73,37.73,37.73-16.89,37.73-37.73-16.89-37.72-37.73-37.72ZM396,486.53c-18.55,0-33.58-15.03-33.58-33.58s15.03-33.58,33.58-33.58,33.58,15.03,33.58,33.58-15.03,33.58-33.58,33.58Z"/>
    <path class="cls-3" d="M429.58,452.95c0,18.55-15.03,33.58-33.58,33.58s-33.58-15.03-33.58-33.58,15.03-33.58,33.58-33.58,33.58,15.03,33.58,33.58Z"/>
    <path class="cls-13" d="M446.61,447.91c0-4.78-2.15-9.48-6.17-12.6-1.65-1.28-3.02-2.85-4.03-4.62-1.03-1.77-1.71-3.75-1.99-5.81-1.08-7.91-7.85-13.77-15.78-13.77-.2,0-.41,0-.61.01-4.17.16-8.23-1.31-11.32-4.12-3.04-2.76-6.87-4.13-10.7-4.13s-7.66,1.37-10.7,4.13c-2.93,2.67-6.75,4.13-10.7,4.13-.2,0-.41,0-.62-.01-.2,0-.41-.01-.61-.01-7.93,0-14.7,5.86-15.78,13.77-.28,2.06-.97,4.03-1.99,5.81-1.02,1.77-2.39,3.35-4.03,4.62-4.02,3.12-6.17,7.82-6.17,12.6,0,2.91.8,5.85,2.45,8.48,1.61,2.57,2.45,5.51,2.45,8.49,0,1.12-.12,2.25-.36,3.37-.25,1.13-.36,2.26-.36,3.38,0,6.79,4.36,13.01,11.06,15.16,1.98.64,3.81,1.65,5.38,2.96,1.56,1.32,2.88,2.93,3.85,4.78.91,1.72,2.09,3.21,3.46,4.44,2.93,2.62,6.73,4.06,10.63,4.06,2.01,0,4.05-.38,6.01-1.19,1.93-.79,3.97-1.18,6.02-1.18s4.09.4,6.02,1.18c1.97.8,4,1.19,6.01,1.19,3.91,0,7.71-1.44,10.63-4.06,1.38-1.23,2.56-2.72,3.46-4.44.97-1.85,2.28-3.46,3.85-4.78,1.57-1.31,3.39-2.33,5.38-2.96,6.7-2.15,11.06-8.37,11.06-15.16,0-1.12-.11-2.24-.36-3.38-.24-1.12-.36-2.25-.36-3.37,0-2.99.84-5.93,2.45-8.49,1.65-2.63,2.45-5.56,2.45-8.48ZM396,490.68c-20.84,0-37.73-16.89-37.73-37.73s16.89-37.72,37.73-37.72,37.73,16.89,37.73,37.72-16.89,37.73-37.73,37.73Z"/>
    <path class="cls-8" d="M396,415.22c-20.84,0-37.73,16.89-37.73,37.72s16.89,37.73,37.73,37.73,37.73-16.89,37.73-37.73-16.89-37.72-37.73-37.72ZM396,486.53c-18.55,0-33.58-15.03-33.58-33.58s15.03-33.58,33.58-33.58,33.58,15.03,33.58,33.58-15.03,33.58-33.58,33.58Z"/>
    <path class="cls-3" d="M429.58,452.95c0,18.55-15.03,33.58-33.58,33.58s-33.58-15.03-33.58-33.58,15.03-33.58,33.58-33.58,33.58,15.03,33.58,33.58Z"/>
  </g>
</svg>