<?xml version="1.0" encoding="UTF-8"?>
<svg id="Capa_2" data-name="Capa 2" xmlns="http://www.w3.org/2000/svg" viewBox="0 0 792 612">
  <defs>
    <style>
      .cls-1 {
        stroke: #000100;
        stroke-width: .75px;
      }

      .cls-1, .cls-2 {
        fill: none;
        stroke-miterlimit: 10;
      }

      .cls-3 {
        fill: #feca05;
      }

      .cls-4 {
        fill: #111;
      }

      .cls-5 {
        fill: #e42919;
      }

      .cls-6 {
        fill: #93ca9b;
      }

      .cls-7 {
        fill: #101a2c;
      }

      .cls-8 {
        fill: #fff;
      }

      .cls-9 {
        fill: #213972;
      }

      .cls-10 {
        fill: #badbbc;
      }

      .cls-11 {
        opacity: .07;
      }

      .cls-12 {
        fill: #15331c;
      }

      .cls-13 {
        fill: #1e672e;
      }

      .cls-2 {
        stroke: #1d1d1b;
      }

      .cls-14 {
        fill: #ffd405;
      }

      .cls-15 {
        fill: #0e0e0f;
      }
    </style>
  </defs>
  <g class="cls-11">
    <path class="cls-13" d="M244.74,150.52v112.72l3.52,2.35,16.35,10.89,25.27,16.85,4.95,3.3v72.1l8.46,6.66,13.88,10.92,6.95,5.46,23.13,18.2,18.19,14.31.04-12.82-33.73-26.52-23.13-18.2h-.02s-3.68-2.91-3.68-2.91v-72.59l-27.82-18.54h0s-10.64-7.1-10.64-7.1h46.25v94.18l6.82,5.41,29.15,23.1,5.15,4.09h7.68l-.02-6.31h-7.65l-12.9-10.28.02.02-23.2-18.5v-91.72h156.23v91.72l-22.68,18.08-13.38,10.67h-7.65v6.31h7.68l5.58-4.43,29.18-23.16,6.31-5.02v-94.18h46.51l-10.64,7.1-27.82,18.54v72.59l-3.71,2.91-23.14,18.2-28.92,22.74h0s-4.76,3.75-4.76,3.75l-.03.03.03,12.81,18.17-14.29,23.14-18.2,6.94-5.46,13.88-10.92,8.49-6.68v-72.1l4.94-3.29,25.28-16.85,16.35-10.9,3.52-2.35v-112.72H244.74ZM537.16,255.5H254.84v-94.88h282.32v94.88ZM365.45,424.28l10.74,8.45h0s-10.74-8.45-10.74-8.45Z"/>
    <path class="cls-13" d="M175.12,86.89v81.48l117.19,189.27v-11.5l-111.13-179.49v-73.7h429.64v73.7l-111.13,179.49v11.5l116.73-188.54.45-.73v-81.48H175.12ZM470.93,392.58l-74.93,121.03-74.94-121.04-13.88-10.92,88.83,143.46,88.81-143.44-13.88,10.92Z"/>
    <path class="cls-13" d="M524.19,281.65l-24.49,39.57v19.16l44.71-72.21-20.22,13.48ZM267.81,281.65l-20.21-13.47,44.71,72.22v-19.17l-24.5-39.57ZM440.85,416.24l-44.85,72.44-44.86-72.45-23.14-18.2,68,109.82,68-109.81-23.14,18.2ZM184.2,95.97v69.82l58.02,93.71v-19.17l-47.93-77.41v-56.86h403.41v56.86l-47.93,77.41v19.17l58.02-93.71v-69.82H184.2Z"/>
    <polygon class="cls-13" points="308.68 148 242.23 148 242.23 216.36 206.91 159.33 206.91 118.68 308.68 118.68 308.68 148"/>
    <polygon class="cls-13" points="396 451.52 411.92 439 396 464.72 380.07 438.99 389.04 446.04 396 451.52"/>
    <polygon class="cls-13" points="585.09 118.68 585.09 159.33 549.77 216.36 549.77 148 483.32 148 483.32 118.68 585.09 118.68"/>
    <path class="cls-13" d="M390.7,405.61h-1.05v4.33h1.05c.71,0,1.09-.33,1.09-1.33v-1.67c0-1-.38-1.33-1.09-1.33ZM390.7,405.61h-1.05v4.33h1.05c.71,0,1.09-.33,1.09-1.33v-1.67c0-1-.38-1.33-1.09-1.33ZM390.7,405.61h-1.05v4.33h1.05c.71,0,1.09-.33,1.09-1.33v-1.67c0-1-.38-1.33-1.09-1.33ZM390.7,405.61h-1.05v4.33h1.05c.71,0,1.09-.33,1.09-1.33v-1.67c0-1-.38-1.33-1.09-1.33ZM390.7,405.61h-1.05v4.33h1.05c.71,0,1.09-.33,1.09-1.33v-1.67c0-1-.38-1.33-1.09-1.33ZM390.7,405.61h-1.05v4.33h1.05c.71,0,1.09-.33,1.09-1.33v-1.67c0-1-.38-1.33-1.09-1.33ZM390.7,405.61h-1.05v4.33h1.05c.71,0,1.09-.33,1.09-1.33v-1.67c0-1-.38-1.33-1.09-1.33ZM390.7,405.61h-1.05v4.33h1.05c.71,0,1.09-.33,1.09-1.33v-1.67c0-1-.38-1.33-1.09-1.33ZM390.7,405.61h-1.05v4.33h1.05c.71,0,1.09-.33,1.09-1.33v-1.67c0-1-.38-1.33-1.09-1.33ZM390.7,405.61h-1.05v4.33h1.05c.71,0,1.09-.33,1.09-1.33v-1.67c0-1-.38-1.33-1.09-1.33ZM390.7,405.61h-1.05v4.33h1.05c.71,0,1.09-.33,1.09-1.33v-1.67c0-1-.38-1.33-1.09-1.33ZM390.7,405.61h-1.05v4.33h1.05c.71,0,1.09-.33,1.09-1.33v-1.67c0-1-.38-1.33-1.09-1.33ZM400.83,422.19l-.06,1.2,1.53-1.2h-1.47ZM390.7,405.61h-1.05v4.33h1.05c.71,0,1.09-.33,1.09-1.33v-1.67c0-1-.38-1.33-1.09-1.33ZM390.7,405.61h-1.05v4.33h1.05c.71,0,1.09-.33,1.09-1.33v-1.67c0-1-.38-1.33-1.09-1.33ZM390.7,405.61h-1.05v4.33h1.05c.71,0,1.09-.33,1.09-1.33v-1.67c0-1-.38-1.33-1.09-1.33ZM390.7,405.61h-1.05v4.33h1.05c.71,0,1.09-.33,1.09-1.33v-1.67c0-1-.38-1.33-1.09-1.33ZM390.7,405.61h-1.05v4.33h1.05c.71,0,1.09-.33,1.09-1.33v-1.67c0-1-.38-1.33-1.09-1.33ZM390.7,405.61h-1.05v4.33h1.05c.71,0,1.09-.33,1.09-1.33v-1.67c0-1-.38-1.33-1.09-1.33ZM390.7,405.61h-1.05v4.33h1.05c.71,0,1.09-.33,1.09-1.33v-1.67c0-1-.38-1.33-1.09-1.33ZM390.7,405.61h-1.05v4.33h1.05c.71,0,1.09-.33,1.09-1.33v-1.67c0-1-.38-1.33-1.09-1.33ZM390.7,405.61h-1.05v4.33h1.05c.71,0,1.09-.33,1.09-1.33v-1.67c0-1-.38-1.33-1.09-1.33ZM390.7,405.61h-1.05v4.33h1.05c.71,0,1.09-.33,1.09-1.33v-1.67c0-1-.38-1.33-1.09-1.33ZM390.7,405.61h-1.05v4.33h1.05c.71,0,1.09-.33,1.09-1.33v-1.67c0-1-.38-1.33-1.09-1.33Z"/>
    <path class="cls-13" d="M426.52,411.47l-.04-13.84h-60.96l-.03,13.83-.04,12.82,10.74,8.45h0s19.82,15.58,19.82,15.58l19.78-15.56h0s0,0,0,0l10.76-8.46-.03-12.81ZM395.39,406.93c0-2.25,1.18-3.54,3.36-3.54s3.35,1.29,3.35,3.54v7.4c0,2.26-1.17,3.54-3.35,3.54s-3.36-1.28-3.36-3.54v-7.4ZM383.84,417.67l-.13-.96h0s-.27-1.83-.27-1.83v.04h-2.51l-.4,2.75h-2.06l.74-4.51,1.56-9.57h3l2.29,14.08h-2.21ZM393.55,430.91c0,.9-.19,1.63-.57,2.18-.53.79-1.45,1.21-2.73,1.21-2.18,0-3.3-1.21-3.3-3.41v-1.11h1.83l.27.21v1.01c0,.98.44,1.35,1.14,1.35.48,0,.85-.16,1.02-.65.08-.22.13-.52.13-.9v-1.11c0-1.27-.44-1.75-1.45-1.75h-.75v-1.95h.81c.83,0,1.33-.36,1.33-1.44v-1c0-.98-.46-1.37-1.1-1.37s-1.13.33-1.13,1.22v.9h-2.1v-.72c0-1.51.56-2.53,1.61-3.02.47-.21,1.03-.33,1.69-.33,2.11,0,3.24,1.2,3.24,3.38v.49c0,.1,0,.21,0,.32-.06,1.28-.56,2.08-1.56,2.44v.04c1.19.43,1.64,1.43,1.64,2.82v1.21ZM393.99,408.46c0,2.25-1.08,3.49-3.29,3.49h-1.05v5.73h-2.21v-14.08h3.26c2.21,0,3.29,1.23,3.29,3.49v1.38ZM397.06,432.27h-2.13v-2.14h2.13v2.14ZM397.06,424.6h-2.13v-2.13h2.13v2.13ZM405.06,430.8c0,2.22-1.13,3.49-3.3,3.49-1.26,0-2.17-.43-2.71-1.22-.4-.56-.6-1.33-.6-2.27v-1.09h2.1v1.25c0,.34.05.6.15.8.19.39.54.54,1,.54.7,0,1.14-.36,1.14-1.34v-3.12c0-.99-.44-1.37-1.14-1.37s-1.15.38-1.15,1.37v.12h-2.1l.15-2.87.25-4.88h5.83v1.98h-2.4l-1.53,1.2-.11,2.11h.04c.4-.65,1.02-1.01,1.91-1.01,1.64,0,2.46,1.13,2.46,3.17v3.14ZM410.01,408.34h-2.09v-1.63c0-.93-.45-1.31-1.11-1.31s-1.11.38-1.11,1.31v7.87c0,.93.45,1.29,1.11,1.29s1.11-.36,1.11-1.29v-2.15h2.09v1.99c0,.85-.17,1.57-.52,2.12,0,0,0,0,0,0-.32.53-.8.92-1.44,1.13-.38.13-.81.2-1.29.2-2.14,0-3.26-1.28-3.26-3.45v-7.57c0-2.18,1.13-3.46,3.26-3.46s3.25,1.29,3.25,3.46v1.48ZM413.54,417.67h-2.14v-2.14h2.14v2.14Z"/>
    <polygon class="cls-13" points="383.17 413.01 381.19 413.01 382.15 406.04 382.19 406.04 383.17 413.01"/>
    <path class="cls-13" d="M454.1,323.44l-14.7-22.2-22.48-1.05-15.08,9.49,5.98,11.17h19.55l.18,10.84-41.36,9.2-25.66,24.8,9.65,19.34-4.66,12.6h60.96l-.46-20.12,22.35-23.52,5.73-30.54Z"/>
    <path class="cls-13" d="M399.89,406.79v7.68c0,1.01-.45,1.39-1.15,1.39s-1.15-.38-1.15-1.39v-7.68c0-1.01.45-1.39,1.15-1.39s1.15.38,1.15,1.39Z"/>
    <polygon class="cls-13" points="366.39 349.51 365.82 350.05 361.25 354.47 355.76 359.78 345.57 352.37 337.89 330.24 342.84 321.59 345.94 316.17 346.26 315.61 346.93 317.34 353.39 334.1 364.97 347.82 366.39 349.51"/>
    <polygon class="cls-13" points="383.62 333.71 382.46 333.97 378.96 337.35 370.61 345.43 358.5 331.07 350 309.05 360.77 290.21 365.97 303.7 372.43 320.45 383.62 333.71"/>
    <polygon class="cls-13" points="403.71 329.24 390.07 332.28 377.55 317.42 364.52 283.66 369.99 274.08 386.6 274.08 397.86 303.24 391.84 307.03 403.71 329.24"/>
    <polygon class="cls-13" points="424.19 292.96 414.9 292.53 402.91 300.07 392.89 274.08 417.58 274.08 424.19 292.96"/>
    <path class="cls-13" d="M311.2,119.79v28.27h50.75c-.27-.29-.48-.69-.6-1.19-.63.24-1.38.36-2.19.36-3.25,0-5.03-1.93-5.03-5.3v-11.09c0-3.37,1.78-5.3,5.03-5.3s5.03,1.94,5.03,5.3v11.09c0,1.44-.33,2.59-.93,3.46.24.42.64.48,1.23.48h.52v2.19h115.8v-28.27h-169.6ZM328.1,132.95h-3.14v-2.44c0-1.39-.66-1.97-1.65-1.97s-1.66.58-1.66,1.97v11.77c0,1.38.66,1.92,1.66,1.92s1.65-.54,1.65-1.92v-3.22h3.14v2.98c0,3.25-1.68,5.18-4.87,5.18s-4.89-1.93-4.89-5.18v-11.32c0-3.25,1.69-5.18,4.89-5.18s4.87,1.93,4.87,5.18v2.23ZM339.97,141.93c0,3.37-1.78,5.3-5.03,5.3s-5.03-1.93-5.03-5.3v-11.09c0-3.37,1.78-5.3,5.03-5.3s5.03,1.94,5.03,5.3v11.09ZM352.31,147.23h-3.45l-4.03-15.83h-.06v15.83h-2.99v-21.68h4.22l3.27,12.98h.06v-12.98h2.99v21.68ZM376.06,141.85c0,3.42-1.71,5.37-5,5.37s-5.02-1.95-5.02-5.37v-16.31h3.37v16.56c0,1.52.64,2.07,1.71,2.07s1.71-.55,1.71-2.07v-16.56h3.23v16.31ZM381.23,147.23h-3.41v-21.68h3.41v21.68ZM387.92,147.23c-3.25,0-4.88-1.93-4.88-5.3v-1.2h3.14v1.44c0,1.5.66,2.04,1.71,2.04s1.72-.54,1.72-2.1c0-1.75-.67-2.86-2.84-4.76-2.77-2.45-3.67-4.16-3.67-6.57,0-3.32,1.71-5.25,4.94-5.25s4.82,1.93,4.82,5.3v.87h-3.14v-1.09c0-1.5-.6-2.08-1.65-2.08s-1.66.58-1.66,2.02c0,1.53.69,2.65,2.86,4.55,2.78,2.44,3.64,4.13,3.64,6.75,0,3.43-1.74,5.36-4.99,5.36ZM400.86,147.23h-3.41v-18.58h-3.56v-3.1h10.53v3.1h-3.56v18.58ZM411.97,147.23l-.62-4.31v.06h-3.87l-.63,4.25h-3.16l3.53-21.68h4.61l3.53,21.68h-3.41ZM427.57,141.88c0,3.48-1.67,5.37-5.08,5.37h-5.2v-21.68h5.2c3.41,0,5.08,1.89,5.08,5.36v10.96ZM439.44,141.93c0,3.37-1.77,5.3-5.03,5.3s-5.03-1.93-5.03-5.3v-11.09c0-3.37,1.77-5.3,5.03-5.3s5.03,1.94,5.03,5.3v11.09ZM448.28,147.22c-.18-.56-.31-.9-.31-2.66v-3.96c0-2.02-.59-2.67-2.14-2.67h-1.17v9.29h-3.41v-21.67h5.05c3.52,0,5.04,1.64,5.04,4.99v1.33c0,2.22-.71,3.65-2.23,4.27v.06c1.71.52,2.26,2.14,2.26,4.58v3.8c0,1.06.03,1.83.37,2.64h-3.47ZM462.48,128.65h-5.87v5.72h4.67v3.09h-4.67v6.64h5.87v3.1h-9.27v-21.64h9.27v3.09ZM468.66,147.23c-3.26,0-4.88-1.93-4.88-5.3v-1.2h3.14v1.44c0,1.5.66,2.04,1.71,2.04s1.71-.54,1.71-2.1c0-1.75-.66-2.86-2.83-4.76-2.77-2.45-3.68-4.16-3.68-6.57,0-3.32,1.72-5.25,4.94-5.25s4.83,1.93,4.83,5.3v.87h-3.14v-1.09c0-1.5-.6-2.08-1.65-2.08s-1.66.58-1.66,2.02c0,1.53.69,2.65,2.86,4.55,2.77,2.44,3.65,4.13,3.65,6.75,0,3.43-1.75,5.36-5,5.36Z"/>
    <path class="cls-13" d="M447.94,132.54v-1.67c0-1.54-.53-2.23-1.73-2.23h-1.55v6.19h1.24c1.27,0,2.04-.56,2.04-2.29Z"/>
    <polygon class="cls-13" points="409.44 129.32 409.37 129.32 407.89 140.04 410.95 140.04 409.44 129.32"/>
    <path class="cls-13" d="M434.41,144.22c1.05,0,1.72-.57,1.72-2.08v-11.51c0-1.51-.66-2.07-1.72-2.07s-1.72.57-1.72,2.07v11.51c0,1.51.66,2.08,1.72,2.08Z"/>
    <path class="cls-13" d="M334.94,128.55c-1.05,0-1.72.57-1.72,2.07v11.51c0,1.51.66,2.08,1.72,2.08s1.72-.57,1.72-2.08v-11.51c0-1.51-.66-2.07-1.72-2.07Z"/>
    <path class="cls-13" d="M424.17,142.04v-11.27c0-1.54-.65-2.11-1.73-2.11h-1.74v15.48h1.74c1.08,0,1.73-.56,1.73-2.1Z"/>
    <path class="cls-13" d="M359.15,128.55c-1.05,0-1.72.57-1.72,2.07v11.51c0,1.51.66,2.08,1.72,2.08s1.72-.57,1.72-2.08v-11.51c0-1.51-.66-2.07-1.72-2.07Z"/>
    <polygon class="cls-13" points="287.01 232.69 283.49 225.44 279.88 232.65 271.89 233.76 277.63 239.43 276.22 247.36 283.38 243.65 290.5 247.45 289.18 239.49 294.99 233.89 287.01 232.69"/>
    <polygon class="cls-13" points="321.25 247.36 328.41 243.65 335.53 247.45 334.21 239.49 340.01 233.89 332.04 232.69 328.51 225.44 324.9 232.65 316.92 233.76 322.66 239.43 321.25 247.36"/>
    <polygon class="cls-13" points="367.68 239.43 366.27 247.36 373.43 243.65 380.55 247.45 379.23 239.49 385.03 233.89 377.06 232.69 373.54 225.44 369.93 232.65 361.94 233.76 367.68 239.43"/>
    <polygon class="cls-13" points="414.95 232.65 406.96 233.76 412.71 239.43 411.3 247.36 418.45 243.65 425.57 247.45 424.26 239.49 430.06 233.89 422.09 232.69 418.56 225.44 414.95 232.65"/>
    <polygon class="cls-13" points="467.11 232.69 463.58 225.44 459.98 232.65 451.99 233.76 457.73 239.43 456.32 247.36 463.48 243.65 470.6 247.45 469.28 239.49 475.08 233.89 467.11 232.69"/>
    <polygon class="cls-13" points="502.76 239.43 501.34 247.36 508.5 243.65 515.62 247.45 514.31 239.49 520.11 233.89 512.14 232.69 508.61 225.44 505 232.65 497.01 233.76 502.76 239.43"/>
    <polygon class="cls-13" points="281.59 220.26 289.14 170.62 281.95 170.62 276.82 209.13 276.68 209.13 271.55 170.62 263.65 170.62 271.2 220.26 281.59 220.26"/>
    <polygon class="cls-13" points="314.26 213.17 300.74 213.17 300.74 197.92 311.49 197.92 311.49 190.83 300.74 190.83 300.74 177.72 314.26 177.72 314.26 170.62 292.91 170.62 292.91 220.26 314.26 220.26 314.26 213.17"/>
    <polygon class="cls-13" points="325.01 184.03 325.15 184.03 334.55 220.26 342.6 220.26 342.6 170.62 335.62 170.62 335.62 200.34 335.48 200.34 327.86 170.62 318.04 170.62 318.04 220.26 325.01 220.26 325.01 184.03"/>
    <path class="cls-13" d="M357.58,220.26c7.34,0,11.21-4.41,11.21-11.86v-6.82h-7.2v7.38c0,3.17-1.52,4.41-3.81,4.41s-3.81-1.24-3.81-4.41v-26.96c0-3.17,1.52-4.48,3.81-4.48s3.81,1.31,3.81,4.48v5.59h7.2v-5.1c0-7.45-3.87-11.86-11.21-11.86s-11.22,4.41-11.22,11.86v25.92c0,7.45,3.87,11.86,11.22,11.86Z"/>
    <polygon class="cls-13" points="393.92 213.17 380.4 213.17 380.4 197.92 391.15 197.92 391.15 190.83 380.4 190.83 380.4 177.72 393.92 177.72 393.92 170.63 372.56 170.63 372.56 220.26 393.92 220.26 393.92 213.17"/>
    <path class="cls-13" d="M409.14,170.62h-11.96v49.63h11.96c7.83,0,11.67-4.32,11.67-12.27v-25.09c0-7.94-3.84-12.27-11.67-12.27ZM412.98,208.35c0,3.54-1.49,4.83-3.99,4.83h-3.99v-35.45h3.99c2.5,0,3.99,1.27,3.99,4.82v25.81Z"/>
    <path class="cls-13" d="M436.47,170.62c-7.58,0-11.73,4.41-11.73,12.14v25.36c0,7.72,4.14,12.13,11.73,12.13s11.72-4.41,11.72-12.13v-25.36c0-7.72-4.14-12.14-11.72-12.14ZM440.47,208.61c0,3.45-1.55,4.76-4,4.76s-4-1.31-4-4.76v-26.33c0-3.45,1.55-4.76,4-4.76s4,1.32,4,4.76v26.33Z"/>
    <path class="cls-13" d="M475.24,214.24v-8.72c0-5.6-1.28-9.29-5.2-10.49v-.14c3.49-1.42,5.14-4.68,5.14-9.79v-3.05c0-7.65-3.49-11.42-11.61-11.42h-11.61v49.64h7.84v-21.27h2.71c3.56,0,4.91,1.48,4.91,6.1v9.07c0,4.05.29,4.83.71,6.1h7.98c-.79-1.84-.86-3.61-.86-6.03ZM467.34,186.66c0,3.96-1.78,5.25-4.69,5.25h-2.85v-14.19h3.56c2.78,0,3.98,1.56,3.98,5.1v3.83Z"/>
    <polygon class="cls-13" points="501.23 213.17 487.7 213.17 487.7 197.92 498.45 197.92 498.45 190.83 487.7 190.83 487.7 177.72 501.23 177.72 501.23 170.63 479.87 170.63 479.87 220.26 501.23 220.26 501.23 213.17"/>
    <path class="cls-13" d="M516.53,220.26c7.69,0,11.82-4.41,11.82-12.27,0-6-2.06-9.86-8.62-15.44-5.12-4.34-6.76-6.89-6.76-10.41,0-3.31,1.43-4.62,3.92-4.62s3.91,1.31,3.91,4.76v2.48h7.4v-2c0-7.72-3.77-12.13-11.39-12.13s-11.68,4.41-11.68,11.99c0,5.51,2.14,9.44,8.68,15.03,5.13,4.34,6.69,6.89,6.69,10.89,0,3.58-1.56,4.83-4.06,4.83s-4.06-1.24-4.06-4.69v-3.31h-7.4v2.76c0,7.72,3.84,12.13,11.53,12.13Z"/>
  </g>
  <path class="cls-13" d="M446.61,447.91c0-4.78-2.15-9.48-6.17-12.6-1.65-1.28-3.02-2.85-4.03-4.62-1.03-1.77-1.71-3.75-1.99-5.81-1.08-7.91-7.85-13.77-15.78-13.77-.2,0-.41,0-.61.01-4.17.16-8.23-1.31-11.32-4.12-3.04-2.76-6.87-4.13-10.7-4.13s-7.66,1.37-10.7,4.13c-2.93,2.67-6.75,4.13-10.7,4.13-.2,0-.41,0-.62-.01-.2,0-.41-.01-.61-.01-7.93,0-14.7,5.86-15.78,13.77-.28,2.06-.97,4.03-1.99,5.81-1.02,1.77-2.39,3.35-4.03,4.62-4.02,3.12-6.17,7.82-6.17,12.6,0,2.91.8,5.85,2.45,8.48,1.61,2.57,2.45,5.51,2.45,8.49,0,1.12-.12,2.25-.36,3.37-.25,1.13-.36,2.26-.36,3.38,0,6.79,4.36,13.01,11.06,15.16,1.98.64,3.81,1.65,5.38,2.96,1.56,1.32,2.88,2.93,3.85,4.78.91,1.72,2.09,3.21,3.46,4.44,2.93,2.62,6.73,4.06,10.63,4.06,2.01,0,4.05-.38,6.01-1.19,1.93-.79,3.97-1.18,6.02-1.18s4.09.4,6.02,1.18c1.97.8,4,1.19,6.01,1.19,3.91,0,7.71-1.44,10.63-4.06,1.38-1.23,2.56-2.72,3.46-4.44.97-1.85,2.28-3.46,3.85-4.78,1.57-1.31,3.39-2.33,5.38-2.96,6.7-2.15,11.06-8.37,11.06-15.16,0-1.12-.11-2.24-.36-3.38-.24-1.12-.36-2.25-.36-3.37,0-2.99.84-5.93,2.45-8.49,1.65-2.63,2.45-5.56,2.45-8.48ZM396,490.68c-20.84,0-37.73-16.89-37.73-37.73s16.89-37.72,37.73-37.72,37.73,16.89,37.73,37.72-16.89,37.73-37.73,37.73Z"/>
  <path class="cls-10" d="M396,415.22c-20.84,0-37.73,16.89-37.73,37.72s16.89,37.73,37.73,37.73,37.73-16.89,37.73-37.73-16.89-37.72-37.73-37.72ZM396,486.53c-18.55,0-33.58-15.03-33.58-33.58s15.03-33.58,33.58-33.58,33.58,15.03,33.58,33.58-15.03,33.58-33.58,33.58Z"/>
  <path class="cls-4" d="M418.67,498.96v7.31c-3.19,1.77-6.83,2.75-10.63,2.75-2.84,0-5.63-.55-8.28-1.63-1.2-.49-2.46-.74-3.76-.74s-2.56.25-3.76.74c-2.64,1.08-5.43,1.63-8.27,1.63-3.8,0-7.45-.97-10.63-2.75v-7.31c2.93,2.62,6.73,4.06,10.63,4.06,2.01,0,4.05-.38,6.01-1.19,1.93-.79,3.97-1.18,6.02-1.18s4.09.4,6.02,1.18c1.97.8,4,1.19,6.01,1.19,3.91,0,7.71-1.44,10.63-4.06Z"/>
  <path class="cls-13" d="M418.67,506.28v40.75l-22.67-15.81-22.67,15.81v-40.75c3.19,1.77,6.83,2.75,10.63,2.75,2.84,0,5.63-.55,8.27-1.63,1.2-.49,2.47-.74,3.76-.74s2.56.25,3.76.74c2.65,1.08,5.44,1.63,8.28,1.63,3.8,0,7.45-.97,10.63-2.75Z"/>
  <path class="cls-4" d="M429.58,452.95c0,18.55-15.03,33.58-33.58,33.58s-33.58-15.03-33.58-33.58,15.03-33.58,33.58-33.58,33.58,15.03,33.58,33.58Z"/>
  <g>
    <rect class="cls-12" x="0" y=".1" width="30.92" height="43.99"/>
    <rect class="cls-6" x="30.92" y=".1" width="40.96" height="43.99"/>
    <path class="cls-12" d="M125.86.1h-.01c-.58.35-19.02,11.42-19.02,43.99h-34.95V.1h53.98Z"/>
    <path class="cls-13" d="M152.96.1v43.99h-46.13C106.83,11.51,125.27.44,125.85.11h.01s27.1-.01,27.1-.01Z"/>
    <path class="cls-6" d="M30.92,44.08C30.92,92.17,0,95.77,0,95.77v-51.69h30.92Z"/>
    <rect class="cls-13" x="30.92" y="44.08" width="40.96" height="51.69"/>
    <path class="cls-12" d="M112.03,95.77h-40.15v-50.03c.21,8.08,3.23,43.12,40.15,50.03Z"/>
    <path class="cls-12" d="M152.96,44.1v40.15c-6.91-36.92-41.95-39.94-50.03-40.15h50.03Z"/>
    <path class="cls-12" d="M112.42,148.32v52.56h-40.55L0,109.06v-13.29s30.92-3.61,30.92-51.69v51.69h40.95v52.55h40.55Z"/>
    <path class="cls-2" d="M112.03,146.06v2.26s-.03-.82,0-2.26Z"/>
    <path class="cls-13" d="M112.03,95.77h-40.16v52.55h40.16s-.03-.82,0-2.26c.23-9.74,3.51-47.69,40.93-50.29h-40.93Z"/>
    <path class="cls-6" d="M152.96,95.77v52.55h-40.93v-2.26c.23-9.74,3.51-47.69,40.93-50.29Z"/>
    <path class="cls-13" d="M112.42,200.88v52.66H26.21c46.77-4.92,45.66-52.66,45.66-52.66h40.55Z"/>
    <rect class="cls-13" x="112.42" y="148.32" width="40.54" height="52.56"/>
    <path class="cls-12" d="M26.21,253.55H0v-32.54s9.55-18.64,37.57-20.12h34.3s1.11,47.74-45.66,52.66Z"/>
    <polygon class="cls-6" points="37.57 200.88 0 200.88 0 151.68 37.57 200.88"/>
    <polygon class="cls-13" points="71.87 200.88 37.57 200.88 0 151.68 0 109.06 71.87 200.88"/>
    <path class="cls-13" d="M37.57,200.88C9.55,202.36,0,221,0,221v-20.12h37.57Z"/>
    <polygon class="cls-6" points="152.96 253.55 112.42 253.55 112.42 200.88 152.96 253.55"/>
    <polygon class="cls-12" points="152.96 200.88 152.96 253.55 112.42 200.88 152.96 200.88"/>
    <path class="cls-13" d="M69.77,305.9H0v-52.36h26.21c0,47.85,34.59,52.07,43.56,52.36Z"/>
    <path class="cls-2" d="M71.87,305.9s-.77.04-2.1,0h2.1Z"/>
    <path class="cls-6" d="M71.87,253.55v52.36h-2.1c-8.97-.29-43.56-4.51-43.56-52.36h45.66Z"/>
    <polygon class="cls-6" points="112.42 253.55 112.42 305.9 71.87 253.55 112.42 253.55"/>
    <polygon class="cls-12" points="112.42 305.9 71.87 305.9 71.87 253.55 112.42 305.9"/>
    <rect class="cls-13" x="112.42" y="253.55" width="40.54" height="52.36"/>
    <polygon class="cls-12" points="71.87 305.9 71.87 410.23 0 410.23 0 398.73 71.87 305.9"/>
    <polygon class="cls-13" points="71.87 305.9 35.93 305.92 0 355.89 0 398.73 71.87 305.9"/>
    <polygon class="cls-6" points="35.93 305.92 0 305.9 0 355.89 35.93 305.92"/>
    <path class="cls-6" d="M105.8,358.06c0,9.25-4.92,14.05-9.53,16.52-3.25,1.73-6.92,2.53-10.6,2.53h-13.8v-38.1h13.8c3.68,0,7.35.8,10.6,2.53,4.61,2.47,9.53,7.27,9.53,16.52Z"/>
    <path class="cls-13" d="M152.96,358.06c0,46.97-40.54,52.16-40.54,52.16h-40.55v-33.11h13.8c3.68,0,7.35-.8,10.6-2.53,4.61-2.47,9.53-7.27,9.53-16.52s-4.92-14.05-9.53-16.52c-3.25-1.73-6.92-2.53-10.6-2.53h-13.8v-33.11h40.55s40.54,5.19,40.54,52.16Z"/>
    <path class="cls-12" d="M131.17,358.06c0,11.88-5.71,19.52-12,24.33-6.54,5-14.65,7.52-22.89,7.52h-24.41v-12.8h13.8c3.68,0,7.35-.8,10.6-2.53,4.61-2.47,9.53-7.27,9.53-16.52s-4.92-14.05-9.53-16.52c-3.25-1.73-6.92-2.53-10.6-2.53h-13.8v-12.8h24.41c8.24,0,16.35,2.52,22.89,7.53,6.29,4.8,12,12.44,12,24.32Z"/>
    <path class="cls-12" d="M152.96,305.9v52.16c0-46.97-40.54-52.16-40.54-52.16h40.54Z"/>
    <path class="cls-12" d="M152.96,358.06v104.53h-40.54v-52.37s40.54-5.19,40.54-52.16Z"/>
    <rect class="cls-6" x="71.87" y="410.23" width="40.55" height="52.37"/>
    <rect class="cls-13" x="112.42" y="462.6" width="40.54" height="52.5"/>
    <path class="cls-12" d="M71.87,515.1H0v-92.41l17.36,22.32c-4.49,4.26-7.33,10.59-7.33,17.66,0,12.87,9.43,23.3,21.06,23.3,5.24,0,10.05-2.13,13.74-5.64l27.04,34.77Z"/>
    <path class="cls-12" d="M112.42,462.6v26.25c0-14.5-10.56-26.25-23.58-26.25h23.58Z"/>
    <path class="cls-13" d="M112.42,488.85c0,14.5-10.56,26.25-23.58,26.25h-16.97l-27.04-34.77c4.49-4.27,7.33-10.6,7.33-17.66,0-12.88-9.44-23.31-21.07-23.31-5.24,0-10.04,2.12-13.73,5.65L0,422.68v-12.46h71.87v52.37h16.97c13.02,0,23.58,11.75,23.58,26.25Z"/>
    <path class="cls-6" d="M52.16,462.67c0,7.06-2.84,13.39-7.33,17.66-3.69,3.51-8.5,5.64-13.74,5.64-11.63,0-21.06-10.43-21.06-23.3,0-7.07,2.84-13.4,7.33-17.66,3.69-3.53,8.49-5.65,13.73-5.65,11.63,0,21.07,10.43,21.07,23.31Z"/>
    <path class="cls-6" d="M31.1,567.32H0v-52.23h71.87s.58,43.81-40.77,52.23Z"/>
    <path class="cls-12" d="M112.42,488.85v78.48H31.1c41.35-8.42,40.77-52.23,40.77-52.23h16.97c13.02,0,23.58-11.75,23.58-26.25Z"/>
    <rect class="cls-6" x="112.42" y="515.1" width="40.54" height="52.23"/>
    <rect class="cls-13" x="112.42" y="567.32" width="40.54" height="44.58"/>
    <rect class="cls-6" x="71.87" y="567.32" width="40.55" height="44.39"/>
    <rect class="cls-13" x="0" y="567.32" width="71.87" height="44.39"/>
    <path class="cls-6" d="M152.96,84.24v11.53h-40.93c-36.92-6.91-39.94-41.95-40.15-50.03v-1.66h30.06c-.44,0-.67.01-.67.01h1.66c8.08.21,43.12,3.23,50.03,40.15Z"/>
  </g>
  <g>
    <path class="cls-15" d="M251.78,155.37c-5.48,0-10.02-1.8-13.62-5.41-3.57-3.6-5.36-8.13-5.36-13.57s1.79-9.95,5.36-13.52c3.57-3.64,8.11-5.46,13.62-5.46,3.29,0,6.34.78,9.15,2.34,2.81,1.56,5.01,3.66,6.6,6.29l-8.06,4.63c-.69-1.28-1.72-2.3-3.09-3.04-1.37-.75-2.9-1.12-4.6-1.12-2.88,0-5.24.92-7.07,2.76-1.77,1.84-2.65,4.21-2.65,7.12s.88,5.37,2.65,7.18c1.8,1.8,4.16,2.7,7.07,2.7,1.7,0,3.23-.37,4.6-1.12,1.37-.75,2.4-1.78,3.09-3.09l8.06,4.68c-1.59,2.67-3.79,4.78-6.58,6.32-2.79,1.54-5.85,2.31-9.18,2.31Z"/>
    <path class="cls-15" d="M280.17,140.5v5.36h14.09v8.74h-23.4v-36.4h23.14v8.68h-13.83v5.04h12.53v8.58h-12.53Z"/>
    <path class="cls-15" d="M327.65,154.59h-9.98l-6.34-11.75h-3.33v11.75h-9.31v-36.4h14.56c3.71,0,6.81,1.2,9.31,3.59,2.53,2.32,3.8,5.32,3.8,9,0,2.15-.55,4.14-1.66,5.98-1.11,1.84-2.62,3.29-4.52,4.37l7.49,13.47ZM313.14,126.77h-5.15v8.16h5.15c1.14.03,2.08-.33,2.81-1.09.73-.76,1.09-1.75,1.09-2.96s-.36-2.2-1.09-2.96c-.73-.76-1.66-1.14-2.81-1.14Z"/>
    <path class="cls-15" d="M327.81,118.19h27.3v9h-9v27.4h-9.31v-27.4h-9v-9Z"/>
    <path class="cls-15" d="M358.49,154.59v-36.4h9.31v36.4h-9.31Z"/>
    <path class="cls-15" d="M395.87,118.19v9h-13.05v5.93h12.79v9h-12.79v12.48h-9.31v-36.4h22.36Z"/>
    <path class="cls-15" d="M400.45,154.59v-36.4h9.31v36.4h-9.31Z"/>
    <path class="cls-15" d="M433.05,155.37c-5.48,0-10.02-1.8-13.62-5.41-3.57-3.6-5.36-8.13-5.36-13.57s1.79-9.95,5.36-13.52c3.57-3.64,8.11-5.46,13.62-5.46,3.29,0,6.34.78,9.15,2.34,2.81,1.56,5.01,3.66,6.6,6.29l-8.06,4.63c-.69-1.28-1.72-2.3-3.09-3.04-1.37-.75-2.9-1.12-4.6-1.12-2.88,0-5.23.92-7.07,2.76-1.77,1.84-2.65,4.21-2.65,7.12s.88,5.37,2.65,7.18c1.8,1.8,4.16,2.7,7.07,2.7,1.7,0,3.23-.37,4.6-1.12,1.37-.75,2.4-1.78,3.09-3.09l8.06,4.68c-1.6,2.67-3.79,4.78-6.58,6.32-2.79,1.54-5.85,2.31-9.18,2.31Z"/>
    <path class="cls-15" d="M484.37,154.59h-10.04l-1.56-5.25h-12.12l-1.56,5.25h-10.09l12.01-36.4h11.34l12.01,36.4ZM466.7,128.96l-3.64,12.38h7.33l-3.69-12.38Z"/>
    <path class="cls-15" d="M487.03,118.19h14.82c4.99,0,9.19,1.75,12.58,5.25,3.4,3.5,5.1,7.82,5.1,12.95s-1.7,9.5-5.1,13c-3.36,3.47-7.56,5.2-12.58,5.2h-14.82v-36.4ZM496.59,145.6h5.25c2.5,0,4.56-.83,6.19-2.5,1.59-1.7,2.39-3.93,2.39-6.71s-.8-5.03-2.39-6.66c-1.59-1.7-3.66-2.55-6.19-2.55h-5.25v18.41Z"/>
    <path class="cls-15" d="M555.04,149.91c-3.71,3.64-8.22,5.46-13.52,5.46s-9.9-1.82-13.57-5.46c-3.67-3.67-5.51-8.18-5.51-13.52s1.84-9.83,5.51-13.47c3.67-3.67,8.2-5.51,13.57-5.51s9.84,1.84,13.52,5.51c3.71,3.64,5.56,8.13,5.56,13.47s-1.85,9.81-5.56,13.52ZM534.5,143.52c1.91,1.84,4.25,2.76,7.02,2.76s5.11-.92,7.02-2.76c1.87-1.87,2.81-4.25,2.81-7.12s-.94-5.27-2.81-7.07c-1.87-1.87-4.21-2.81-7.02-2.81s-5.15.94-7.02,2.81c-1.87,1.8-2.81,4.16-2.81,7.07s.94,5.25,2.81,7.12Z"/>
  </g>
  <g>
    <path class="cls-15" d="M234.07,165.63h6.95c2.45,0,4.48.87,6.07,2.62,1.61,1.72,2.42,3.84,2.42,6.38s-.81,4.67-2.42,6.41c-1.6,1.73-3.62,2.6-6.07,2.6h-6.95v-18.01ZM235.87,181.94h5.15c1.97,0,3.58-.7,4.84-2.11,1.27-1.42,1.9-3.16,1.9-5.2s-.63-3.77-1.9-5.2c-1.25-1.41-2.86-2.11-4.84-2.11h-5.15v14.61Z"/>
    <path class="cls-15" d="M264.69,175.41v6.54h8.75v1.7h-10.55v-18.01h10.42v1.7h-8.62v6.38h7.98v1.7h-7.98Z"/>
    <path class="cls-15" d="M303.54,183.64v-18.01h1.8v18.01h-1.8Z"/>
    <path class="cls-15" d="M331.33,180.29v-14.67h1.8v18.01h-1.54l-10.03-14.67v14.67h-1.8v-18.01h1.54l10.03,14.67Z"/>
    <path class="cls-15" d="M354.23,183.64h-1.85l-6.64-18.01h1.96l5.61,15.62,5.61-15.62h1.96l-6.64,18.01Z"/>
    <path class="cls-15" d="M375.28,175.41v6.54h8.75v1.7h-10.55v-18.01h10.42v1.7h-8.62v6.38h7.98v1.7h-7.98Z"/>
    <path class="cls-15" d="M403.06,183.95c-1.65,0-3.06-.39-4.23-1.17-1.18-.78-1.99-1.86-2.46-3.23l1.54-.9c.33,1.13.93,2.01,1.81,2.62.88.62,2,.93,3.36.93s2.36-.29,3.11-.87c.75-.58,1.13-1.37,1.13-2.37,0-.94-.34-1.66-1.03-2.14-.67-.48-1.8-.98-3.4-1.49-1.9-.63-3.14-1.13-3.71-1.49-1.37-.82-2.06-2.02-2.06-3.58s.53-2.73,1.6-3.6c1.05-.89,2.36-1.34,3.94-1.34,1.35,0,2.56.36,3.6,1.07,1.05.71,1.83,1.65,2.34,2.82l-1.52.85c-.82-1.99-2.3-2.98-4.43-2.98-1.13,0-2.04.28-2.71.84-.68.56-1.02,1.32-1.02,2.28,0,.91.31,1.58.93,2.01.63.45,1.66.9,3.06,1.36l1.39.49c.29.09.7.24,1.23.46.58.22.99.41,1.21.57.91.55,1.48,1.06,1.72,1.52.43.69.64,1.46.64,2.32,0,1.53-.56,2.75-1.67,3.68-1.12.91-2.58,1.36-4.4,1.36Z"/>
    <path class="cls-15" d="M420.33,165.63h12.87v1.7h-5.53v16.31h-1.8v-16.31h-5.53v-1.7Z"/>
    <path class="cls-15" d="M446.06,183.64v-18.01h1.8v18.01h-1.8Z"/>
    <path class="cls-15" d="M462.27,165.63h6.95c2.45,0,4.48.87,6.07,2.62,1.61,1.72,2.42,3.84,2.42,6.38s-.81,4.67-2.42,6.41c-1.6,1.73-3.62,2.6-6.07,2.6h-6.95v-18.01ZM464.07,181.94h5.15c1.97,0,3.59-.7,4.84-2.11,1.27-1.42,1.9-3.16,1.9-5.2s-.63-3.77-1.9-5.2c-1.25-1.41-2.86-2.11-4.84-2.11h-5.15v14.61Z"/>
    <path class="cls-15" d="M490.7,177.52v-11.89h1.8v11.89c0,1.46.43,2.6,1.3,3.44.87.83,2.06,1.25,3.59,1.25s2.72-.42,3.59-1.25c.87-.83,1.3-1.98,1.3-3.44v-11.89h1.8v11.89c0,1.96-.62,3.52-1.85,4.68-1.25,1.17-2.86,1.75-4.84,1.75s-3.59-.58-4.84-1.75c-1.23-1.17-1.85-2.73-1.85-4.68Z"/>
    <path class="cls-15" d="M531.35,183.64h-2.06l-4.22-7.2h-5.04v7.2h-1.8v-18.01h7.2c1.47,0,2.74.53,3.81,1.6,1.06,1.06,1.6,2.33,1.6,3.81,0,1.23-.37,2.32-1.11,3.27-.7.93-1.63,1.56-2.78,1.9l4.4,7.44ZM525.43,167.33h-5.4v7.41h5.4c.99,0,1.84-.36,2.55-1.08.7-.75,1.06-1.63,1.06-2.62s-.35-1.89-1.06-2.62c-.7-.72-1.55-1.08-2.55-1.08Z"/>
    <path class="cls-15" d="M558.11,183.64h-1.9l-1.67-4.43h-8.54l-1.67,4.43h-1.9l6.92-18.01h1.85l6.92,18.01ZM550.26,167.87l-3.63,9.65h7.26l-3.63-9.65Z"/>
  </g>
  <line class="cls-1" x1="188.83" y1="271.95" x2="603.17" y2="271.95"/>
  <g>
    <path class="cls-7" d="M277.4,577.06h2.85c.99,0,1.81.35,2.47,1.06.66.7.99,1.56.99,2.59s-.33,1.88-.99,2.6c-.66.7-1.48,1.05-2.47,1.05h-2.85v-7.3ZM278.37,583.44h1.88c.74,0,1.35-.26,1.83-.78.47-.53.71-1.18.71-1.95s-.24-1.42-.71-1.95c-.47-.52-1.08-.78-1.83-.78h-1.88v5.46Z"/>
    <path class="cls-7" d="M285.25,578.2c-.17,0-.32-.06-.44-.18s-.18-.26-.18-.43.06-.31.18-.43.26-.18.44-.18.31.06.43.18.18.27.18.43-.06.31-.18.43-.26.18-.43.18ZM285.7,584.36h-.91v-5.21h.91v5.21Z"/>
    <path class="cls-7" d="M287.99,579.15v.88c.3-.65.84-.97,1.63-.97v.95c-.45-.02-.83.1-1.15.35-.32.26-.48.67-.48,1.24v2.76h-.91v-5.21h.91Z"/>
    <path class="cls-7" d="M295.23,582.17h-4.37c.09.46.3.82.64,1.08.33.26.75.39,1.25.39.69,0,1.19-.25,1.5-.76l.77.44c-.51.79-1.28,1.18-2.29,1.18-.82,0-1.49-.26-2.02-.77-.51-.53-.77-1.19-.77-1.97s.25-1.45.76-1.96c.51-.52,1.16-.78,1.97-.78.76,0,1.39.27,1.87.81.49.53.73,1.17.73,1.94,0,.13,0,.27-.03.41ZM292.67,579.87c-.48,0-.88.14-1.2.41s-.52.64-.6,1.1h3.48c-.08-.48-.27-.85-.57-1.12-.31-.26-.67-.4-1.11-.4Z"/>
    <path class="cls-7" d="M298.74,584.49c-.79,0-1.44-.26-1.96-.78-.52-.53-.78-1.18-.78-1.96s.26-1.43.78-1.95c.52-.53,1.17-.79,1.96-.79.51,0,.98.12,1.39.37.41.25.72.58.92,1l-.76.44c-.13-.28-.33-.5-.61-.67-.28-.17-.59-.25-.93-.25-.52,0-.96.18-1.31.53-.35.36-.52.8-.52,1.32s.17.95.52,1.31c.35.35.79.53,1.31.53.35,0,.66-.08.94-.24.28-.16.49-.38.64-.66l.77.45c-.23.42-.55.75-.97.99s-.88.37-1.38.37Z"/>
    <path class="cls-7" d="M304.82,579.15v.88h-1.39v2.83c0,.26.05.44.15.55s.26.16.46.17c.21,0,.47,0,.77-.02v.81c-.8.1-1.38.04-1.75-.2-.37-.24-.55-.67-.55-1.31v-2.83h-1.03v-.88h1.03v-1.19l.91-.27v1.46h1.39Z"/>
    <path class="cls-7" d="M310.03,583.7c-.53.53-1.18.79-1.95.79s-1.42-.26-1.95-.79-.79-1.18-.79-1.95.26-1.42.79-1.95c.53-.53,1.18-.79,1.95-.79s1.42.26,1.95.79c.54.54.8,1.19.8,1.95s-.27,1.41-.8,1.95ZM308.09,583.61c.52,0,.96-.18,1.31-.53s.53-.8.53-1.32-.18-.97-.53-1.32-.79-.53-1.31-.53-.95.18-1.3.53-.53.8-.53,1.32.18.97.53,1.32.79.53,1.3.53Z"/>
    <path class="cls-7" d="M312.82,579.15v.88c.3-.65.84-.97,1.63-.97v.95c-.45-.02-.83.1-1.15.35-.32.26-.48.67-.48,1.24v2.76h-.91v-5.21h.91Z"/>
  </g>
  <line class="cls-1" x1="231.83" y1="569.29" x2="360.01" y2="569.29"/>
  <g>
    <path class="cls-7" d="M419.35,584.36v-7.3h.97v7.3h-.97Z"/>
    <path class="cls-7" d="M424.39,579.01c.61,0,1.1.19,1.47.58.37.39.55.91.55,1.57v3.2h-.91v-3.15c0-.42-.11-.74-.34-.98s-.55-.35-.95-.35c-.47,0-.83.14-1.11.43s-.41.72-.41,1.29v2.76h-.91v-5.21h.91v.75c.36-.59.92-.89,1.69-.89Z"/>
    <path class="cls-7" d="M428.45,580.55c0,.33.34.59,1.03.78.26.06.47.11.65.17.18.06.37.15.58.27s.37.27.48.47c.11.19.17.42.17.69,0,.47-.18.85-.55,1.14-.37.29-.83.43-1.4.43-.5,0-.93-.11-1.3-.33-.37-.22-.62-.52-.78-.89l.78-.45c.08.25.24.45.47.59.23.15.5.22.82.22s.56-.06.75-.18c.19-.12.28-.3.28-.53,0-.35-.34-.61-1.03-.77-.23-.06-.4-.11-.52-.15s-.28-.1-.48-.19-.36-.19-.46-.29c-.1-.1-.2-.24-.29-.41s-.13-.36-.13-.57c0-.45.17-.82.52-1.12.35-.29.8-.44,1.32-.44.42,0,.8.1,1.13.29.33.19.58.46.75.8l-.76.43c-.19-.44-.56-.67-1.12-.67-.26,0-.48.06-.66.19-.18.13-.27.3-.27.51Z"/>
    <path class="cls-7" d="M435.07,579.15v.88h-1.39v2.83c0,.26.05.44.15.55s.26.16.46.17c.21,0,.47,0,.77-.02v.81c-.8.1-1.38.04-1.75-.2-.37-.24-.55-.67-.55-1.31v-2.83h-1.03v-.88h1.03v-1.19l.91-.27v1.46h1.39Z"/>
    <path class="cls-7" d="M437.08,579.15v.88c.3-.65.84-.97,1.63-.97v.95c-.44-.02-.83.1-1.15.35-.32.26-.48.67-.48,1.24v2.76h-.91v-5.21h.91Z"/>
    <path class="cls-7" d="M443.19,581.91v-2.76h.91v5.21h-.91v-.75c-.36.59-.92.89-1.69.89-.61,0-1.1-.19-1.47-.58-.37-.39-.55-.91-.55-1.57v-3.2h.91v3.15c0,.42.11.74.34.98.23.24.55.35.95.35.46,0,.83-.14,1.1-.43.27-.29.41-.72.41-1.29Z"/>
    <path class="cls-7" d="M447.93,584.49c-.79,0-1.44-.26-1.96-.78-.52-.53-.78-1.18-.78-1.96s.26-1.43.78-1.95c.52-.53,1.17-.79,1.96-.79.51,0,.98.12,1.39.37.41.25.72.58.92,1l-.76.44c-.13-.28-.33-.5-.61-.67-.28-.17-.59-.25-.93-.25-.52,0-.96.18-1.31.53-.35.36-.52.8-.52,1.32s.17.95.52,1.31c.35.35.79.53,1.31.53.35,0,.66-.08.94-.24.28-.16.49-.38.64-.66l.77.45c-.23.42-.55.75-.97.99s-.88.37-1.38.37Z"/>
    <path class="cls-7" d="M454,579.15v.88h-1.39v2.83c0,.26.05.44.15.55s.26.16.46.17c.21,0,.47,0,.77-.02v.81c-.8.1-1.38.04-1.75-.2-.37-.24-.55-.67-.55-1.31v-2.83h-1.03v-.88h1.03v-1.19l.91-.27v1.46h1.39Z"/>
    <path class="cls-7" d="M459.22,583.7c-.53.53-1.18.79-1.95.79s-1.42-.26-1.95-.79-.79-1.18-.79-1.95.26-1.42.79-1.95c.53-.53,1.18-.79,1.95-.79s1.42.26,1.95.79c.54.54.8,1.19.8,1.95s-.27,1.41-.8,1.95ZM457.27,583.61c.52,0,.96-.18,1.31-.53s.53-.8.53-1.32-.18-.97-.53-1.32-.79-.53-1.31-.53-.95.18-1.3.53-.53.8-.53,1.32.18.97.53,1.32.79.53,1.3.53Z"/>
    <path class="cls-7" d="M462,579.15v.88c.3-.65.84-.97,1.63-.97v.95c-.44-.02-.83.1-1.15.35-.32.26-.48.67-.48,1.24v2.76h-.91v-5.21h.91Z"/>
    <path class="cls-7" d="M468.93,576.02l-4.17,9.38h-.54l4.17-9.38h.54Z"/>
    <path class="cls-7" d="M474.33,580.04v-.9h.91v5.21h-.91v-.9c-.45.69-1.1,1.03-1.97,1.03-.74,0-1.36-.26-1.87-.79-.51-.54-.77-1.19-.77-1.95s.26-1.4.77-1.94,1.14-.8,1.87-.8c.87,0,1.53.34,1.97,1.03ZM472.48,583.62c.53,0,.97-.18,1.32-.53.35-.37.53-.81.53-1.33s-.18-.97-.53-1.32c-.35-.36-.8-.54-1.32-.54s-.96.18-1.31.54c-.35.35-.53.8-.53,1.32s.18.97.53,1.33c.35.35.79.53,1.31.53Z"/>
    <path class="cls-7" d="M482.75,584.49c-1.11,0-2.03-.37-2.74-1.09-.72-.72-1.07-1.62-1.07-2.69s.36-1.97,1.07-2.69c.72-.73,1.63-1.09,2.74-1.09.66,0,1.27.16,1.83.48.56.32,1,.75,1.31,1.29l-.84.49c-.21-.4-.52-.72-.93-.96-.41-.24-.87-.36-1.37-.36-.85,0-1.54.27-2.06.81-.53.54-.79,1.21-.79,2.03s.26,1.49.79,2.02c.53.54,1.22.81,2.06.81.5,0,.96-.12,1.37-.36.41-.24.72-.56.93-.95l.84.48c-.31.54-.74.98-1.3,1.3-.56.32-1.17.48-1.85.48Z"/>
    <path class="cls-7" d="M487.84,584.36h-.91v-7.61h.91v7.61Z"/>
    <path class="cls-7" d="M493.54,580.04v-.9h.91v5.21h-.91v-.9c-.45.69-1.1,1.03-1.97,1.03-.74,0-1.36-.26-1.87-.79-.51-.54-.77-1.19-.77-1.95s.26-1.4.77-1.94,1.14-.8,1.87-.8c.87,0,1.53.34,1.97,1.03ZM491.68,583.62c.53,0,.97-.18,1.32-.53.35-.37.53-.81.53-1.33s-.18-.97-.53-1.32c-.35-.36-.8-.54-1.32-.54s-.96.18-1.31.54c-.35.35-.53.8-.53,1.32s.18.97.53,1.33c.35.35.79.53,1.31.53Z"/>
    <path class="cls-7" d="M496.59,580.55c0,.33.34.59,1.03.78.26.06.47.11.65.17.18.06.37.15.58.27.21.12.37.27.48.47.11.19.17.42.17.69,0,.47-.18.85-.55,1.14-.37.29-.83.43-1.4.43-.5,0-.93-.11-1.3-.33-.36-.22-.62-.52-.78-.89l.78-.45c.08.25.24.45.47.59s.5.22.82.22.56-.06.75-.18.28-.3.28-.53c0-.35-.34-.61-1.03-.77-.23-.06-.4-.11-.52-.15s-.28-.1-.49-.19-.36-.19-.46-.29c-.1-.1-.2-.24-.29-.41-.09-.17-.13-.36-.13-.57,0-.45.17-.82.52-1.12.35-.29.8-.44,1.32-.44.42,0,.8.1,1.13.29.33.19.58.46.75.8l-.76.43c-.19-.44-.56-.67-1.12-.67-.26,0-.49.06-.66.19-.18.13-.27.3-.27.51Z"/>
    <path class="cls-7" d="M505.44,582.17h-4.37c.09.46.3.82.64,1.08.33.26.75.39,1.25.39.69,0,1.19-.25,1.5-.76l.77.44c-.51.79-1.28,1.18-2.29,1.18-.82,0-1.49-.26-2.02-.77-.51-.53-.77-1.19-.77-1.97s.25-1.45.76-1.96c.51-.52,1.16-.78,1.97-.78.76,0,1.39.27,1.87.81.49.53.73,1.17.73,1.94,0,.13,0,.27-.03.41ZM502.88,579.87c-.48,0-.88.14-1.2.41s-.52.64-.6,1.1h3.48c-.08-.48-.27-.85-.57-1.12-.31-.26-.67-.4-1.11-.4Z"/>
    <path class="cls-7" d="M513.44,580.04v-2.98h.91v7.3h-.91v-.9c-.45.69-1.1,1.03-1.97,1.03-.74,0-1.36-.26-1.87-.79-.51-.54-.77-1.19-.77-1.95s.26-1.4.77-1.94,1.14-.8,1.87-.8c.87,0,1.53.34,1.97,1.03ZM511.58,583.62c.53,0,.97-.18,1.32-.53.35-.37.53-.81.53-1.33s-.18-.97-.53-1.32c-.35-.36-.8-.54-1.32-.54s-.96.18-1.31.54c-.35.35-.53.8-.53,1.32s.18.97.53,1.33c.35.35.79.53,1.31.53Z"/>
    <path class="cls-7" d="M520.73,582.17h-4.37c.09.46.3.82.64,1.08.33.26.75.39,1.25.39.69,0,1.19-.25,1.5-.76l.77.44c-.51.79-1.28,1.18-2.29,1.18-.82,0-1.49-.26-2.02-.77-.51-.53-.77-1.19-.77-1.97s.25-1.45.76-1.96c.51-.52,1.16-.78,1.97-.78.76,0,1.39.27,1.87.81.49.53.73,1.17.73,1.94,0,.13,0,.27-.03.41ZM518.16,579.87c-.48,0-.88.14-1.2.41s-.52.64-.6,1.1h3.48c-.08-.48-.27-.85-.57-1.12-.31-.26-.67-.4-1.11-.4Z"/>
    <path class="cls-7" d="M525.47,581.13v2.31h3.39v.92h-4.36v-7.3h4.31v.92h-3.34v2.24h3.08v.91h-3.08Z"/>
    <path class="cls-7" d="M532.47,581.67l1.99,2.69h-1.06l-1.46-1.97-1.47,1.97h-1.06l2-2.68-1.89-2.53h1.07l1.35,1.81,1.34-1.81h1.06l-1.88,2.52Z"/>
    <path class="cls-7" d="M538.18,579.01c.73,0,1.35.27,1.87.8s.77,1.18.77,1.94-.26,1.41-.77,1.95c-.51.53-1.13.79-1.87.79-.86,0-1.52-.34-1.97-1.03v2.98h-.91v-7.3h.91v.9c.45-.69,1.11-1.03,1.97-1.03ZM538.07,583.62c.52,0,.96-.18,1.31-.53.35-.37.53-.81.53-1.33s-.18-.97-.53-1.32c-.35-.36-.79-.54-1.31-.54s-.97.18-1.32.54c-.35.35-.53.8-.53,1.32s.18.97.53,1.33c.35.35.8.53,1.32.53Z"/>
    <path class="cls-7" d="M542.81,584.36h-.91v-7.61h.91v7.61Z"/>
    <path class="cls-7" d="M548.6,583.7c-.53.53-1.18.79-1.95.79s-1.42-.26-1.95-.79-.79-1.18-.79-1.95.26-1.42.79-1.95c.53-.53,1.18-.79,1.95-.79s1.42.26,1.95.79c.54.54.8,1.19.8,1.95s-.27,1.41-.8,1.95ZM546.65,583.61c.52,0,.96-.18,1.31-.53s.53-.8.53-1.32-.18-.97-.53-1.32-.79-.53-1.31-.53-.95.18-1.3.53-.53.8-.53,1.32.18.97.53,1.32.79.53,1.3.53Z"/>
    <path class="cls-7" d="M551.38,579.15v.88c.3-.65.84-.97,1.63-.97v.95c-.45-.02-.83.1-1.15.35-.32.26-.48.67-.48,1.24v2.76h-.91v-5.21h.91Z"/>
    <path class="cls-7" d="M557.93,580.04v-.9h.91v5.21h-.91v-.9c-.44.69-1.1,1.03-1.97,1.03-.74,0-1.36-.26-1.87-.79-.51-.54-.77-1.19-.77-1.95s.26-1.4.77-1.94c.51-.54,1.14-.8,1.87-.8.87,0,1.53.34,1.97,1.03ZM556.07,583.62c.53,0,.97-.18,1.32-.53.35-.37.53-.81.53-1.33s-.18-.97-.53-1.32c-.35-.36-.8-.54-1.32-.54s-.96.18-1.31.54c-.35.35-.53.8-.53,1.32s.18.97.53,1.33c.35.35.79.53,1.31.53Z"/>
    <path class="cls-7" d="M564.53,580.04v-2.98h.91v7.3h-.91v-.9c-.44.69-1.1,1.03-1.97,1.03-.74,0-1.36-.26-1.87-.79-.51-.54-.77-1.19-.77-1.95s.26-1.4.77-1.94c.51-.54,1.14-.8,1.87-.8.87,0,1.53.34,1.97,1.03ZM562.67,583.62c.53,0,.97-.18,1.32-.53.35-.37.53-.81.53-1.33s-.18-.97-.53-1.32c-.35-.36-.8-.54-1.32-.54s-.96.18-1.31.54c-.35.35-.53.8-.53,1.32s.18.97.53,1.33c.35.35.79.53,1.31.53Z"/>
    <path class="cls-7" d="M571.21,583.7c-.53.53-1.18.79-1.95.79s-1.42-.26-1.95-.79-.79-1.18-.79-1.95.26-1.42.79-1.95c.53-.53,1.18-.79,1.95-.79s1.42.26,1.95.79c.54.54.8,1.19.8,1.95s-.27,1.41-.8,1.95ZM569.26,583.61c.52,0,.96-.18,1.31-.53s.53-.8.53-1.32-.18-.97-.53-1.32-.79-.53-1.31-.53-.95.18-1.3.53-.53.8-.53,1.32.18.97.53,1.32.79.53,1.3.53Z"/>
    <path class="cls-7" d="M573.99,579.15v.88c.3-.65.84-.97,1.63-.97v.95c-.45-.02-.83.1-1.15.35-.32.26-.48.67-.48,1.24v2.76h-.91v-5.21h.91Z"/>
  </g>
  <line class="cls-1" x1="433.39" y1="569.29" x2="561.57" y2="569.29"/>
  <g>
    <rect class="cls-12" x="761.08" y="567.91" width="30.92" height="43.99" transform="translate(1553.08 1179.82) rotate(180)"/>
    <rect class="cls-6" x="720.12" y="567.91" width="40.96" height="43.99" transform="translate(1481.2 1179.82) rotate(180)"/>
    <path class="cls-12" d="M666.14,611.9h.01c.58-.35,19.02-11.42,19.02-43.99h34.95v43.99h-53.98Z"/>
    <path class="cls-13" d="M639.04,611.9v-43.99h46.13c0,32.57-18.44,43.64-19.02,43.98h-.01s-27.1.01-27.1.01Z"/>
    <path class="cls-6" d="M761.08,567.92c0-48.08,30.92-51.69,30.92-51.69v51.69h-30.92Z"/>
    <rect class="cls-13" x="720.12" y="516.23" width="40.96" height="51.69"/>
    <path class="cls-12" d="M679.97,516.23h40.15v50.03c-.21-8.08-3.23-43.12-40.15-50.03Z"/>
    <path class="cls-12" d="M639.04,567.9v-40.15c6.91,36.92,41.95,39.94,50.03,40.15h-50.03Z"/>
    <path class="cls-12" d="M679.58,463.68v-52.56h40.55l71.87,91.82v13.29s-30.92,3.61-30.92,51.69v-51.69h-40.95v-52.55h-40.55Z"/>
    <path class="cls-2" d="M679.97,465.94v-2.26s.03.82,0,2.26Z"/>
    <path class="cls-13" d="M679.97,516.23h40.16v-52.55h-40.16s.03.82,0,2.26c-.23,9.74-3.51,47.69-40.93,50.29h40.93Z"/>
    <path class="cls-6" d="M639.04,516.23v-52.55h40.93v2.26c-.23,9.74-3.51,47.69-40.93,50.29Z"/>
    <path class="cls-13" d="M679.58,411.12v-52.66h86.21c-46.77,4.92-45.66,52.66-45.66,52.66h-40.55Z"/>
    <rect class="cls-13" x="639.04" y="411.12" width="40.54" height="52.56"/>
    <path class="cls-12" d="M765.79,358.45h26.21v32.54s-9.55,18.64-37.57,20.12h-34.3s-1.11-47.74,45.66-52.66Z"/>
    <polygon class="cls-6" points="754.43 411.12 792 411.12 792 460.32 754.43 411.12"/>
    <polygon class="cls-13" points="720.13 411.12 754.43 411.12 792 460.32 792 502.94 720.13 411.12"/>
    <path class="cls-13" d="M754.43,411.12c28.02-1.48,37.57-20.12,37.57-20.12v20.12h-37.57Z"/>
    <polygon class="cls-6" points="639.04 358.45 679.58 358.45 679.58 411.12 639.04 358.45"/>
    <polygon class="cls-12" points="639.04 411.12 639.04 358.45 679.58 411.12 639.04 411.12"/>
    <path class="cls-13" d="M722.23,306.1h69.77v52.36h-26.21c0-47.85-34.59-52.07-43.56-52.36Z"/>
    <path class="cls-2" d="M720.13,306.1s.77-.04,2.1,0h-2.1Z"/>
    <path class="cls-6" d="M720.13,358.45v-52.36h2.1c8.97.29,43.56,4.51,43.56,52.36h-45.66Z"/>
    <polygon class="cls-6" points="679.58 358.45 679.58 306.1 720.13 358.45 679.58 358.45"/>
    <polygon class="cls-12" points="679.58 306.1 720.13 306.1 720.13 358.45 679.58 306.1"/>
    <rect class="cls-13" x="639.04" y="306.1" width="40.54" height="52.36"/>
    <polygon class="cls-12" points="720.13 306.1 720.13 201.77 792 201.77 792 213.27 720.13 306.1"/>
    <polygon class="cls-13" points="720.13 306.1 756.07 306.08 792 256.11 792 213.27 720.13 306.1"/>
    <polygon class="cls-6" points="756.07 306.08 792 306.1 792 256.11 756.07 306.08"/>
    <path class="cls-6" d="M686.2,253.94c0-9.25,4.92-14.05,9.53-16.52,3.25-1.73,6.92-2.53,10.6-2.53h13.8v38.1h-13.8c-3.68,0-7.35-.8-10.6-2.53-4.61-2.47-9.53-7.27-9.53-16.52Z"/>
    <path class="cls-13" d="M639.04,253.94c0-46.97,40.54-52.16,40.54-52.16h40.55v33.11h-13.8c-3.68,0-7.35.8-10.6,2.53-4.61,2.47-9.53,7.27-9.53,16.52s4.92,14.05,9.53,16.52c3.25,1.73,6.92,2.53,10.6,2.53h13.8v33.11h-40.55s-40.54-5.19-40.54-52.16Z"/>
    <path class="cls-12" d="M660.83,253.94c0-11.88,5.71-19.52,12-24.33,6.54-5,14.65-7.52,22.89-7.52h24.41v12.8h-13.8c-3.68,0-7.35.8-10.6,2.53-4.61,2.47-9.53,7.27-9.53,16.52s4.92,14.05,9.53,16.52c3.25,1.73,6.92,2.53,10.6,2.53h13.8v12.8h-24.41c-8.24,0-16.35-2.52-22.89-7.53-6.29-4.8-12-12.44-12-24.32Z"/>
    <path class="cls-12" d="M639.04,306.1v-52.16c0,46.97,40.54,52.16,40.54,52.16h-40.54Z"/>
    <path class="cls-12" d="M639.04,253.94v-104.53h40.54v52.37s-40.54,5.19-40.54,52.16Z"/>
    <rect class="cls-6" x="679.58" y="149.4" width="40.55" height="52.37"/>
    <rect class="cls-13" x="639.04" y="96.9" width="40.54" height="52.5"/>
    <path class="cls-12" d="M720.13,96.9h71.87v92.41l-17.36-22.32c4.49-4.26,7.33-10.59,7.33-17.66,0-12.87-9.43-23.3-21.06-23.3-5.24,0-10.05,2.13-13.74,5.64l-27.04-34.77Z"/>
    <path class="cls-12" d="M679.58,149.4v-26.25c0,14.5,10.56,26.25,23.58,26.25h-23.58Z"/>
    <path class="cls-13" d="M679.58,123.15c0-14.5,10.56-26.25,23.58-26.25h16.97l27.04,34.77c-4.49,4.27-7.33,10.6-7.33,17.66,0,12.88,9.44,23.31,21.07,23.31,5.24,0,10.04-2.12,13.73-5.65l17.36,22.32v12.46h-71.87v-52.37h-16.97c-13.02,0-23.58-11.75-23.58-26.25Z"/>
    <path class="cls-6" d="M739.84,149.33c0-7.06,2.84-13.39,7.33-17.66,3.69-3.51,8.5-5.64,13.74-5.64,11.63,0,21.06,10.43,21.06,23.3,0,7.07-2.84,13.4-7.33,17.66-3.69,3.53-8.49,5.65-13.73,5.65-11.63,0-21.07-10.43-21.07-23.31Z"/>
    <path class="cls-6" d="M760.9,44.68h31.1v52.23h-71.87s-.58-43.81,40.77-52.23Z"/>
    <path class="cls-12" d="M679.58,123.15V44.68h81.32c-41.35,8.42-40.77,52.23-40.77,52.23h-16.97c-13.02,0-23.58,11.75-23.58,26.25Z"/>
    <rect class="cls-6" x="639.04" y="44.68" width="40.54" height="52.23"/>
    <rect class="cls-13" x="639.04" y=".1" width="40.54" height="44.58"/>
    <rect class="cls-6" x="679.58" y=".29" width="40.55" height="44.39"/>
    <rect class="cls-13" x="720.13" y=".29" width="71.87" height="44.39"/>
    <path class="cls-6" d="M639.04,527.76v-11.53h40.93c36.92,6.91,39.94,41.95,40.15,50.03v1.66h-30.06c.44,0,.67-.01.67-.01h-1.66c-8.08-.21-43.12-3.23-50.03-40.15Z"/>
  </g>
  <g>
    <path class="cls-15" d="M292.36,214.46c-1.6,0-2.92-.53-3.94-1.58-1.04-1.06-1.56-2.34-1.56-3.85s.52-2.79,1.56-3.85c1.03-1.05,2.34-1.58,3.94-1.58.96,0,1.85.23,2.66.7s1.44,1.09,1.89,1.88l-.93.54c-.33-.64-.82-1.15-1.47-1.53-.65-.38-1.37-.57-2.15-.57-1.32,0-2.39.43-3.21,1.28-.83.86-1.25,1.9-1.25,3.13s.42,2.27,1.25,3.13c.82.85,1.89,1.28,3.21,1.28.78,0,1.5-.19,2.15-.57.65-.38,1.14-.89,1.47-1.53l.93.52c-.43.79-1.05,1.42-1.88,1.89-.82.47-1.71.71-2.67.71Z"/>
    <path class="cls-15" d="M299.68,203.78v9.51h4.8v.99h-5.85v-10.5h1.05Z"/>
    <path class="cls-15" d="M305.68,210.71v-6.93h1.05v6.93c0,.85.25,1.52.76,2s1.2.73,2.09.73,1.59-.24,2.09-.73.76-1.15.76-2v-6.93h1.05v6.93c0,1.14-.36,2.05-1.08,2.73-.73.68-1.67,1.02-2.82,1.02s-2.09-.34-2.82-1.02c-.72-.68-1.08-1.59-1.08-2.73Z"/>
    <path class="cls-15" d="M321.55,208.83c.52.22.93.55,1.23,1,.3.45.45.96.45,1.52,0,.81-.29,1.5-.85,2.07-.57.57-1.26.85-2.07.85h-4.58v-10.5h4.23c.77,0,1.43.28,1.99.84.55.55.83,1.21.83,1.98,0,.98-.41,1.73-1.23,2.24ZM319.96,204.77h-3.18v3.66h3.18c.48,0,.89-.17,1.24-.52.35-.37.53-.8.53-1.31s-.17-.92-.53-1.29c-.35-.36-.76-.54-1.24-.54ZM316.78,213.29h3.53c.52,0,.96-.18,1.32-.55.37-.37.55-.83.55-1.38s-.19-1-.55-1.37c-.36-.38-.8-.57-1.32-.57h-3.53v3.87Z"/>
    <path class="cls-15" d="M332.68,214.28h-1.08l-3.87-10.5h1.14l3.27,9.1,3.27-9.1h1.14l-3.87,10.5Z"/>
    <path class="cls-15" d="M338.95,209.48v3.81h5.1v.99h-6.15v-10.5h6.07v.99h-5.02v3.72h4.65v.99h-4.65Z"/>
    <path class="cls-15" d="M352.6,212.33v-8.55h1.05v10.5h-.9l-5.85-8.55v8.55h-1.05v-10.5h.9l5.85,8.55Z"/>
    <path class="cls-15" d="M360.95,214.46c-1.6,0-2.92-.53-3.95-1.58-1.04-1.06-1.56-2.34-1.56-3.85s.52-2.79,1.56-3.85c1.03-1.05,2.34-1.58,3.95-1.58.96,0,1.84.23,2.65.7.81.46,1.44,1.09,1.89,1.88l-.93.54c-.33-.64-.82-1.15-1.47-1.53s-1.37-.57-2.14-.57c-1.32,0-2.39.43-3.21,1.28-.83.86-1.25,1.9-1.25,3.13s.42,2.27,1.25,3.13c.82.85,1.89,1.28,3.21,1.28.78,0,1.49-.19,2.14-.57.65-.38,1.14-.89,1.47-1.53l.93.52c-.43.79-1.06,1.42-1.88,1.89-.82.47-1.71.71-2.67.71Z"/>
    <path class="cls-15" d="M368.27,209.48v3.81h5.1v.99h-6.15v-10.5h6.08v.99h-5.03v3.72h4.65v.99h-4.65Z"/>
    <path class="cls-15" d="M375.17,203.78h4.05c1.43,0,2.61.51,3.54,1.53.94,1,1.41,2.24,1.41,3.72s-.47,2.73-1.41,3.73c-.93,1.01-2.11,1.52-3.54,1.52h-4.05v-10.5ZM376.22,213.29h3c1.15,0,2.09-.41,2.82-1.23.74-.83,1.11-1.84,1.11-3.03s-.37-2.2-1.11-3.03c-.73-.82-1.67-1.23-2.82-1.23h-3v8.52Z"/>
    <path class="cls-15" d="M394.66,212.88c-1.05,1.05-2.33,1.58-3.85,1.58s-2.8-.53-3.86-1.58c-1.05-1.07-1.57-2.35-1.57-3.85s.52-2.79,1.57-3.84c1.05-1.06,2.33-1.59,3.86-1.59s2.8.53,3.85,1.59c1.05,1.05,1.58,2.33,1.58,3.84s-.52,2.79-1.58,3.85ZM387.68,212.16c.84.85,1.88,1.28,3.12,1.28s2.28-.43,3.12-1.28c.84-.85,1.26-1.89,1.26-3.13s-.42-2.27-1.26-3.12c-.84-.86-1.88-1.29-3.12-1.29s-2.28.43-3.12,1.29c-.84.85-1.26,1.89-1.26,3.12s.42,2.29,1.26,3.13Z"/>
    <path class="cls-15" d="M405.68,214.28h-1.2l-2.46-4.2h-2.94v4.2h-1.05v-10.5h4.2c.86,0,1.6.31,2.22.93s.93,1.36.93,2.22c0,.72-.21,1.36-.64,1.91-.41.54-.95.91-1.62,1.11l2.57,4.33ZM402.23,204.77h-3.15v4.32h3.15c.58,0,1.07-.21,1.48-.63.41-.44.62-.95.62-1.53s-.21-1.1-.62-1.53c-.41-.42-.9-.63-1.48-.63Z"/>
    <path class="cls-15" d="M408.23,209.48v3.81h5.1v.99h-6.15v-10.5h6.07v.99h-5.02v3.72h4.65v.99h-4.65Z"/>
    <path class="cls-15" d="M418.43,214.46c-.96,0-1.78-.23-2.47-.68s-1.16-1.08-1.43-1.88l.9-.53c.19.66.54,1.17,1.06,1.53.51.36,1.17.54,1.96.54s1.38-.17,1.82-.51c.44-.34.66-.8.66-1.38,0-.55-.2-.96-.6-1.25-.39-.28-1.05-.57-1.98-.87-1.11-.37-1.83-.66-2.16-.87-.8-.48-1.2-1.18-1.2-2.08s.31-1.59.93-2.1c.61-.52,1.38-.78,2.29-.78.79,0,1.49.21,2.1.62.61.42,1.06.96,1.37,1.64l-.89.5c-.48-1.16-1.34-1.74-2.58-1.74-.66,0-1.19.16-1.58.49-.4.32-.59.77-.59,1.33,0,.53.18.92.54,1.17.37.26.96.52,1.79.79l.81.28c.17.05.41.14.72.27.34.13.57.24.71.33.53.32.86.62,1,.89.25.4.38.85.38,1.35,0,.89-.33,1.6-.98,2.14-.65.53-1.5.8-2.56.8Z"/>
    <path class="cls-15" d="M428.57,209.48v3.81h5.1v.99h-6.15v-10.5h6.07v.99h-5.02v3.72h4.65v.99h-4.65Z"/>
    <path class="cls-15" d="M442.22,212.33v-8.55h1.05v10.5h-.9l-5.85-8.55v8.55h-1.05v-10.5h.9l5.85,8.55Z"/>
    <path class="cls-15" d="M444.77,203.78h7.5v.99h-3.22v9.51h-1.05v-9.51h-3.23v-.99Z"/>
    <path class="cls-15" d="M461.42,214.28h-1.2l-2.46-4.2h-2.94v4.2h-1.05v-10.5h4.2c.86,0,1.6.31,2.22.93.62.62.93,1.36.93,2.22,0,.72-.21,1.36-.65,1.91-.41.54-.95.91-1.62,1.11l2.56,4.33ZM457.97,204.77h-3.15v4.32h3.15c.58,0,1.08-.21,1.49-.63.41-.44.62-.95.62-1.53s-.21-1.1-.62-1.53c-.41-.42-.91-.63-1.49-.63Z"/>
    <path class="cls-15" d="M463.97,209.48v3.81h5.1v.99h-6.15v-10.5h6.07v.99h-5.02v3.72h4.65v.99h-4.65Z"/>
    <path class="cls-15" d="M475.58,209.28h5.25v.54c0,1.3-.46,2.4-1.4,3.3-.94.89-2.18,1.33-3.73,1.33s-2.92-.53-3.95-1.58c-1.04-1.06-1.56-2.34-1.56-3.85s.52-2.79,1.56-3.85c1.03-1.05,2.34-1.58,3.95-1.58.96,0,1.85.24,2.67.71.81.47,1.43,1.1,1.88,1.88l-.93.54c-.33-.64-.82-1.15-1.47-1.53s-1.37-.57-2.14-.57c-1.32,0-2.39.43-3.21,1.28-.83.86-1.25,1.9-1.25,3.13s.42,2.27,1.25,3.13c.82.85,1.89,1.28,3.21,1.28,1.18,0,2.12-.29,2.83-.89.7-.6,1.1-1.36,1.21-2.28h-4.17v-.99Z"/>
    <path class="cls-15" d="M490.36,214.28h-1.11l-.97-2.58h-4.98l-.97,2.58h-1.11l4.04-10.5h1.08l4.04,10.5ZM485.78,205.08l-2.12,5.62h4.23l-2.12-5.62Z"/>
    <path class="cls-15" d="M503.56,214.28h-1.11l-.97-2.58h-4.98l-.97,2.58h-1.11l4.04-10.5h1.08l4.04,10.5ZM498.98,205.08l-2.12,5.62h4.23l-2.12-5.62Z"/>
    <path class="cls-15" d="M506.26,207.45c0,.23-.08.43-.24.58-.16.16-.36.24-.58.24s-.43-.08-.58-.24c-.16-.16-.24-.35-.24-.58s.08-.42.24-.58c.16-.16.35-.24.58-.24s.42.08.58.24c.16.16.24.36.24.58ZM506.26,213.6c0,.23-.08.42-.24.58-.16.16-.36.24-.58.24s-.43-.08-.58-.24c-.16-.16-.24-.35-.24-.58s.08-.43.24-.58c.16-.16.35-.24.58-.24s.42.08.58.24c.16.16.24.35.24.58Z"/>
  </g>
  <g>
    <path class="cls-8" d="M765.79,83.92c0,12.16-4.32,23.33-11.51,32.02-.78.95-1.6,1.87-2.45,2.75-9.15,9.56-22.03,15.5-36.3,15.5s-27.13-5.93-36.27-15.47c-.86-.89-1.68-1.8-2.45-2.75-7.22-8.7-11.55-19.87-11.55-32.05,0-27.76,22.51-50.27,50.27-50.27s50.27,22.51,50.27,50.27Z"/>
    <g>
      <path class="cls-13" d="M746.86,105.63l-17.7-3.06-3.85,3.82c-3.04,3.06-5.08,5.36-6.12,6.93-1.36,2.03-2.05,4.12-2.05,6.23.98-2.73,3.02-4.32,6.17-4.8,2.29-.33,5.79-.06,10.46.85l18.05,3.09c.86-.88,1.68-1.8,2.45-2.75l-7.42-10.3Z"/>
      <path class="cls-13" d="M721.88,52.44c-.1.97-.29,1.76-.5,2.38-.29.79-.72,1.61-1.34,2.48-1.16,1.64-3.81,4.51-7.95,8.64l-8.4,8.42c-2.57,2.54-4.43,4.86-5.65,6.9-1.49,2.61-2.13,5.13-1.92,7.55.13,1.35.38,2.49.81,3.46.35.76.71,1.3,1.11,1.6.31.22.33.18.1-.13-1.07-2.53-.67-5.33,1.22-8.48,1.06-1.72,2.85-3.85,5.4-6.42l8.83-8.8c2.51-2.46,4.2-4.22,5.11-5.34,2.2-2.71,3.3-5.08,3.3-7.09v-5.17s-.05-.04-.13,0Z"/>
      <path class="cls-13" d="M721.88,61.27c-.1.95-.29,1.76-.5,2.38-.29.76-.72,1.59-1.34,2.48-1.16,1.61-3.81,4.51-7.95,8.64l-7.79,7.79c-1.78,1.82-3.04,3.35-3.74,4.59-1.07,1.86-1.59,3.87-1.53,6.04.02,1.47.38,2.77,1.07,3.87.71,1.12,1.6,1.8,2.69,2.07.84.23,1.05.23.59,0-.79-.37-1.32-.97-1.67-1.82-.35-.84-.46-1.82-.3-2.93.34-2.54,1.7-5.03,4.14-7.49l8.04-7.98c2.61-2.61,4.31-4.4,5.11-5.38,2.2-2.75,3.3-5.11,3.3-7.09v-5.17s-.05-.04-.13,0Z"/>
      <path class="cls-13" d="M713.84,106.83v-.31c0-1.96-.71-3.29-2.09-3.93-1.86-.87-5.21-.89-10.09-.02l-17.46,3.06-7.4,10.34c.78.95,1.6,1.86,2.45,2.75l19.05-3.43c4.28-.72,7.53-.89,9.72-.47,2.98.54,4.92,2.11,5.81,4.74v-9.43h-4.74v-3.29h4.74Z"/>
      <path class="cls-13" d="M734.91,78.25c-.1-1.34-.38-2.5-.81-3.49-.33-.77-.7-1.31-1.11-1.6-.31-.26-.35-.21-.1.1,1.07,2.5.71,5.29-1.1,8.36-.95,1.64-2.46,3.47-4.48,5.52l-2.46,2.46c-2.38,2.34-4.14,4.31-5.29,5.93-1.6,2.26-2.41,4.28-2.41,6.06v5.24h.13c.21-1.87.87-3.62,1.99-5.28,1.01-1.51,2.95-3.68,5.81-6.56l2.29-2.27c2.55-2.57,4.43-4.88,5.63-6.93,1.51-2.59,2.15-5.11,1.92-7.55Z"/>
      <path class="cls-13" d="M730.96,69.87c-.7-1.11-1.59-1.82-2.71-2.13-.79-.14-.99-.12-.59.06.79.38,1.34.97,1.69,1.8.33.85.43,1.82.29,2.96-.35,2.57-1.72,5.05-4.14,7.49l-2.83,2.77c-3.68,3.68-5.53,6.89-5.53,9.6v5.36h.13c.21-1.78.87-3.5,2-5.19,1.01-1.49,2.77-3.5,5.25-5.98l2.28-2.29c1.73-1.74,2.97-3.25,3.72-4.53,1.06-1.86,1.55-3.87,1.51-6.01-.04-1.49-.39-2.77-1.07-3.89Z"/>
      <path class="cls-13" d="M735.82,84.02c-.04-.39-.1-.81-.25-1.24-.12-.45-.18-.6-.18-.43-.21,2.34-.8,4.35-1.76,6.04-1.11,1.95-3.22,4.47-6.33,7.57l-1.57,1.57c-2.21,2.21-3.54,3.56-3.97,4.03-1.68,1.9-2.89,3.64-3.64,5.28h3.89l4.44-4.51c2.61-2.56,4.4-4.44,5.38-5.62,1.59-1.9,2.66-3.76,3.26-5.54.43-1.31.72-2.5.83-3.58.1-1.08.06-2.28-.1-3.56Z"/>
      <path class="cls-13" d="M717.14,110.12v5.16c.09.05.13.05.13,0,.18-1.73.87-3.45,2.04-5.16h-2.17Z"/>
      <path class="cls-13" d="M721.88,43.63c-.02.27-.06.54-.1.79-.1.63-.25,1.14-.39,1.6-.29.76-.72,1.59-1.34,2.48-1.16,1.62-3.81,4.49-7.95,8.64l-7.48,7.55c-2.59,2.54-4.39,4.43-5.4,5.65-1.57,1.92-2.67,3.76-3.25,5.52-.46,1.32-.73,2.53-.85,3.6-.1,1.07-.06,2.28.12,3.6.02.54.19,1.09.42,1.69.22-2.37.81-4.4,1.78-6.1,1.09-1.94,3.2-4.48,6.3-7.59l9.86-9.78c2.63-2.62,4.32-4.43,5.11-5.37,2.2-2.75,3.3-5.11,3.3-7.12v-5.15s-.05-.04-.13,0Z"/>
    </g>
  </g>
  <g>
    <polygon class="cls-5" points="363.78 25.06 363.78 36.51 396.76 93.38 429.62 36.51 429.62 25.06 363.78 25.06"/>
    <path class="cls-14" d="M365.67,26.85v9.6l31.06,53.56,30.94-53.56v-9.6h-62ZM396.73,86.33l-29.15-49.75h58.18l-29.03,49.75ZM425.81,34.93h-58.29v-6.18h58.29v6.18Z"/>
    <path class="cls-14" d="M411.11,40.62c-1.4.27-2.86.47-4.1.5-4.09.07-10.33-1.79-10.33-1.79,0,0-5.95,1.78-9.85,1.78-1.38,0-3.01-.22-4.54-.51-2.83-.53-5.33-1.28-5.33-1.28,0,0,.8,8.77,3.29,13.65.25.49.53.97.84,1.45.86,1.33,1.96,2.63,3.17,3.86,5.19,5.29,12.42,9.31,12.42,9.31,0,0,12.54-6.97,16.44-14.63,1.29-2.55,2.13-6.16,2.64-9.02h0c.01-.06.02-.12.03-.18.43-2.53.61-4.43.61-4.43,0,0-2.5.76-5.28,1.29ZM413.68,44.48c-.03.16-.06.32-.1.49-.46,2.34-1.24,5.49-2.36,7.68-3.46,6.77-14.55,12.95-14.55,12.95,0,0-2.57-1.43-5.63-3.68-.35-.26-.71-.53-1.08-.81-1.36-1.05-2.77-2.25-4.05-3.52-.74-.74-1.45-1.52-2.07-2.31-.68-.86-1.27-1.74-1.72-2.62-2-3.91-2.91-10.89-2.91-10.89,0,0,1.89.39,4.14.68,1.52.2,3.22.35,4.6.31,3.45-.12,8.72-1.58,8.72-1.58,0,0,5.53,1.51,9.15,1.58,1.26.02,2.8-.12,4.2-.3,2.21-.29,4.09-.68,4.09-.68,0,0-.15,1.12-.45,2.71h0Z"/>
    <path class="cls-8" d="M412.19,43.65s-1.1,5.74-2.85,8.97c-3.18,5.87-12.78,11.37-12.78,11.37,0,0-9.61-5.5-12.78-11.37-1.75-3.23-2.85-8.98-2.85-8.98,0,0,4.87.8,7.97.57,3.05-.23,7.66-1.68,7.66-1.68,0,0,4.84,1.49,8.04,1.68,2.96.18,7.59-.56,7.59-.56h0Z"/>
    <path class="cls-14" d="M392.78,71.05v-.23c0-.3-.12-.46-.29-.46-.28,0-.34.14-.34.37v1.76c0,.2.08.31.31.31.3,0,.33-.29.33-.51v-.32h.9v.44c0,.61-.38,1.04-1.29,1.04-.83,0-1.15-.41-1.15-1.13v-1.46c0-.77.38-1.13,1.2-1.13.77,0,1.23.3,1.23,1.03v.3h-.9Z"/>
    <polygon class="cls-14" points="394.07 73.36 394.07 69.8 394.97 69.8 394.97 72.64 396.06 72.64 396.06 73.36 394.07 73.36"/>
    <path class="cls-14" d="M396.36,69.8h.9v2.68c0,.17.05.31.31.31.23,0,.31-.19.31-.34v-2.66h.9v2.57c0,.6-.29,1.07-1.2,1.07-.76,0-1.2-.34-1.2-1.07v-2.57Z"/>
    <path class="cls-14" d="M401.14,71.49h0c.32-.16.44-.45.44-.76,0-.72-.53-.92-1.21-.92h-1.17v3.55h1.27c.73,0,1.16-.31,1.16-1.03,0-.44-.09-.63-.49-.85ZM400.1,70.44c.32,0,.58-.01.58.34,0,.43-.19.4-.58.43v-.77ZM400.1,72.72v-.88c.39.01.64,0,.64.42,0,.48-.19.45-.64.46Z"/>
    <path class="cls-3" d="M392.78,71.05v-.23c0-.3-.12-.46-.29-.46-.28,0-.34.14-.34.37v1.76c0,.2.08.31.31.31.3,0,.33-.29.33-.51v-.32h.9v.44c0,.61-.38,1.04-1.29,1.04-.83,0-1.15-.41-1.15-1.13v-1.46c0-.77.38-1.13,1.2-1.13.77,0,1.23.3,1.23,1.03v.3h-.9Z"/>
    <polygon class="cls-3" points="394.07 73.36 394.07 69.8 394.97 69.8 394.97 72.64 396.06 72.64 396.06 73.36 394.07 73.36"/>
    <path class="cls-3" d="M396.36,69.8h.9v2.68c0,.17.05.31.31.31.23,0,.31-.19.31-.34v-2.66h.9v2.57c0,.6-.29,1.07-1.2,1.07-.76,0-1.2-.34-1.2-1.07v-2.57Z"/>
    <path class="cls-3" d="M401.14,71.49h0c.32-.16.44-.45.44-.76,0-.72-.53-.92-1.21-.92h-1.17v3.55h1.27c.73,0,1.16-.31,1.16-1.03,0-.44-.09-.63-.49-.85ZM400.1,70.44c.32,0,.58-.01.58.34,0,.43-.19.4-.58.43v-.77ZM400.1,72.72v-.88c.39.01.64,0,.64.42,0,.48-.19.45-.64.46Z"/>
    <polygon class="cls-9" points="389.67 56.24 390.03 56.11 417.05 43.33 388.69 52.99 388.43 53.11 387.5 49.28 388.39 47.79 383.2 49.28 385.13 50.17 386.46 54.05 383.05 55.66 382.01 54.18 380.38 54.62 382.9 60.86 384.53 60.12 384.24 58.19 387.79 56.91 390.03 60.86 389.58 62.79 393.59 60.42 391.51 59.52 389.67 56.24"/>
    <path class="cls-14" d="M371.35,32.05l1.05.31c-.07.29-.18.54-.34.74-.15.2-.34.34-.56.44-.23.1-.51.15-.86.15-.42,0-.77-.06-1.03-.18-.27-.12-.5-.34-.69-.64-.19-.31-.29-.7-.29-1.18,0-.64.17-1.13.51-1.48.34-.34.82-.51,1.44-.51.49,0,.87.1,1.15.29.28.2.49.5.62.91l-1.05.23c-.03-.12-.08-.21-.12-.26-.07-.09-.15-.16-.25-.21s-.21-.08-.32-.08c-.27,0-.48.11-.62.33-.11.16-.16.42-.16.76,0,.43.07.73.2.88s.31.24.55.24.4-.06.52-.19c.1-.13.18-.31.24-.56h0Z"/>
    <path class="cls-14" d="M376.81,31.28c-.06-.45-.22-.8-.5-1.07-.07-.07-.16-.14-.25-.2-.32-.22-.73-.32-1.24-.32-.63,0-1.12.18-1.47.52-.35.36-.53.85-.53,1.48,0,.45.09.83.27,1.14.18.29.41.52.7.66.29.14.64.21,1.08.21s.79-.08,1.07-.24c.29-.16.51-.39.66-.68.15-.29.23-.66.23-1.12,0-.13,0-.26-.02-.38ZM375.43,32.54c-.14.17-.34.25-.6.25s-.45-.08-.59-.25c-.14-.17-.22-.45-.22-.84s.07-.69.22-.86c.15-.17.34-.25.58-.25s.45.09.6.25c.14.17.22.44.22.8,0,.44-.07.74-.21.9Z"/>
    <polygon class="cls-14" points="377.48 29.76 378.6 29.76 380.06 31.9 380.06 29.76 381.19 29.76 381.19 33.63 380.06 33.63 378.61 31.5 378.61 33.63 377.48 33.63 377.48 29.76"/>
    <path class="cls-14" d="M385.7,33.26s-.15-.1-.29-.2c.28-.35.43-.8.43-1.36,0-.64-.17-1.14-.52-1.48-.35-.35-.84-.52-1.49-.52s-1.12.17-1.47.53c-.35.36-.53.85-.53,1.49s.2,1.16.6,1.52c.34.31.8.46,1.39.46.4,0,.73-.06,1-.17.06.05.18.14.34.25.16.11.33.21.49.29l.34-.67c-.12-.06-.21-.1-.28-.14ZM384.49,32.45s-.09-.05-.13-.09c-.17-.12-.29-.19-.34-.22-.06-.02-.15-.05-.25-.07l-.18.43c.21.08.37.18.47.27-.07.01-.14.02-.23.02-.25,0-.45-.08-.6-.25-.14-.17-.22-.46-.22-.89,0-.36.07-.63.22-.8.15-.17.34-.26.58-.26s.46.09.6.25c.14.17.22.45.22.84,0,.34-.05.6-.14.77Z"/>
    <path class="cls-14" d="M389,29.76h1.19v2.31c0,.23-.03.44-.1.65s-.18.38-.34.53c-.15.15-.31.26-.48.32-.23.09-.51.13-.83.13-.18,0-.39-.01-.62-.04s-.41-.08-.56-.16c-.15-.08-.29-.19-.41-.34s-.21-.29-.25-.44c-.08-.25-.11-.47-.11-.66v-2.31h1.18v2.36c0,.21.05.38.18.49.12.12.28.18.49.18s.37-.05.49-.18c.12-.12.18-.28.18-.5v-2.35h0Z"/>
    <rect class="cls-14" x="391.02" y="29.76" width="1.2" height="3.87"/>
    <path class="cls-14" d="M392.87,32.35l1.14-.07c.03.18.08.33.15.42.12.16.3.23.53.23.17,0,.3-.04.4-.12.1-.08.14-.17.14-.28,0-.1-.05-.19-.13-.27s-.29-.16-.61-.23c-.52-.12-.9-.27-1.12-.47-.23-.19-.34-.44-.34-.75,0-.2.05-.38.17-.56s.29-.31.52-.42.55-.15.95-.15c.49,0,.87.09,1.13.27s.41.48.47.88l-1.13.07c-.03-.17-.1-.3-.19-.38s-.23-.12-.4-.12c-.14,0-.25.03-.31.09s-.1.13-.1.21c0,.06.03.12.09.16.05.05.19.1.4.14.52.11.9.23,1.12.34s.39.26.49.43.16.36.16.57c0,.25-.07.48-.21.68-.14.21-.33.37-.57.48s-.55.16-.93.16c-.66,0-1.12-.12-1.37-.38-.26-.26-.4-.58-.44-.97h0Z"/>
    <polygon class="cls-14" points="396.71 29.76 400.33 29.76 400.33 30.72 399.12 30.72 399.12 33.63 397.93 33.63 397.93 30.72 396.71 30.72 396.71 29.76"/>
    <path class="cls-14" d="M402.87,29.76h-1.3l-1.45,3.87h1.22l.19-.64h1.36l.18.64h1.25l-1.45-3.87ZM401.79,32.15l.42-1.39.43,1.39h-.85Z"/>
    <path class="cls-14" d="M408.19,30.94c-.06-.24-.16-.44-.31-.62-.13-.18-.32-.31-.53-.41-.22-.1-.5-.15-.85-.15h-1.77v3.88h1.77c.21,0,.45-.04.71-.11.19-.05.38-.15.54-.31.16-.16.29-.35.39-.58.1-.22.14-.55.14-.96,0-.27-.03-.51-.1-.75ZM406.99,32.38c-.06.14-.14.23-.24.29-.11.06-.28.08-.53.08h-.29v-2.11h.3c.31,0,.53.07.66.23.13.15.2.43.2.84,0,.31-.02.53-.09.67Z"/>
    <path class="cls-14" d="M412.24,30.21c-.35-.35-.84-.52-1.48-.52s-1.12.17-1.47.52c-.35.36-.52.85-.52,1.48,0,.45.09.83.27,1.14.18.29.4.52.69.66.28.14.64.21,1.08.21s.79-.08,1.08-.24c.29-.16.51-.39.66-.68.15-.29.23-.66.23-1.12,0-.62-.17-1.11-.52-1.45ZM411.36,32.54c-.14.17-.34.25-.6.25s-.45-.08-.59-.25c-.15-.17-.22-.45-.22-.84s.07-.69.22-.86c.15-.17.34-.25.58-.25s.44.09.6.25c.15.17.22.44.22.8,0,.44-.07.74-.21.9Z"/>
    <path class="cls-14" d="M416.65,32.51c-.03-.06-.08-.14-.17-.24-.08-.1-.15-.17-.19-.21-.03-.02-.07-.05-.12-.07-.05-.02-.11-.05-.19-.07.11-.02.2-.06.28-.09.05-.02.1-.04.13-.06.16-.1.29-.22.38-.38.09-.16.14-.34.14-.56,0-.04,0-.07,0-.1-.01-.21-.07-.38-.17-.53-.12-.18-.28-.29-.47-.35-.2-.06-.48-.1-.85-.1h-1.99v3.87h1.21v-1.57h.1c.11,0,.21.03.3.09.06.05.13.15.21.3l.32.6.32.59h1.35l-.57-1.12ZM415.44,31.27c-.16.04-.26.05-.31.05h-.51v-.79h.52c.22,0,.37.04.45.1.07.07.12.17.12.29,0,.09-.03.17-.07.23-.05.07-.11.11-.19.12Z"/>
    <polygon class="cls-14" points="417.61 29.76 420.81 29.76 420.81 30.59 418.81 30.59 418.81 31.2 420.67 31.2 420.67 31.99 418.81 31.99 418.81 32.75 420.87 32.75 420.87 33.63 417.61 33.63 417.61 29.76"/>
    <path class="cls-14" d="M421.3,32.35l1.14-.07c.02.18.08.33.15.42.12.16.3.23.53.23.17,0,.3-.04.4-.12.1-.08.14-.17.14-.28,0-.1-.04-.19-.13-.27s-.29-.16-.61-.23c-.53-.12-.9-.27-1.12-.47-.23-.19-.34-.44-.34-.75,0-.2.05-.38.17-.56s.29-.31.52-.42c.23-.1.55-.15.95-.15.49,0,.87.09,1.13.27s.41.48.47.88l-1.13.07c-.03-.17-.1-.3-.19-.38-.1-.08-.23-.12-.4-.12-.14,0-.25.03-.31.09s-.1.13-.1.21c0,.06.03.12.09.16.05.05.19.1.4.14.52.11.9.23,1.12.34.23.12.39.26.49.43s.16.36.16.57c0,.25-.07.48-.21.68-.14.21-.33.37-.57.48-.25.11-.55.16-.93.16-.66,0-1.12-.12-1.37-.38-.26-.26-.4-.58-.44-.97h0Z"/>
  </g>
</svg>