<?xml version="1.0" encoding="UTF-8"?>
<svg id="Capa_2" data-name="Capa 2" xmlns="http://www.w3.org/2000/svg" viewBox="0 0 111.21 158.74">
  <defs>
    <style>
      .cls-1 {
        fill: #fadbaa;
      }

      .cls-2 {
        fill: #9c6714;
      }

      .cls-3 {
        fill: #fff;
      }

      .cls-4 {
        fill: #f8aa14;
      }
    </style>
  </defs>
  <g id="Capa_1-2" data-name="Capa 1">
    <g>
      <path class="cls-3" d="M103.11,33.48c-1.12-.87-2.06-1.94-2.77-3.17-.71-1.23-1.17-2.57-1.37-3.98-1.41-10.32-10.32-18.09-20.74-18.09-.24,0-.47,0-.8.02-.14,0-.28,0-.43,0-2.72,0-5.33-1.01-7.34-2.83-3.86-3.5-8.85-5.43-14.06-5.43s-10.2,1.93-14.07,5.43c-2,1.82-4.61,2.83-7.33,2.83-.15,0-.3,0-.52-.01-.24,0-.48-.01-.71-.01-10.42,0-19.33,7.78-20.74,18.09-.19,1.41-.65,2.75-1.37,3.99-.71,1.23-1.64,2.29-2.77,3.17C2.95,37.49,0,43.52,0,50.04c0,3.94,1.11,7.8,3.22,11.14,1.1,1.75,1.68,3.77,1.68,5.83,0,.77-.08,1.55-.25,2.31-.32,1.45-.47,2.94-.47,4.44,0,9.12,5.84,17.13,14.54,19.92,1.35.43,2.6,1.12,3.68,2.02,1.1.92,1.99,2.03,2.65,3.28.8,1.52,1.77,2.91,2.89,4.17v55.59l27.67-19.29,27.67,19.29v-55.59c1.12-1.26,2.09-2.66,2.89-4.17.66-1.26,1.55-2.36,2.63-3.27,1.1-.92,2.34-1.6,3.7-2.04,8.69-2.79,14.53-10.8,14.53-19.92,0-1.5-.16-2.99-.47-4.43-.16-.76-.25-1.54-.25-2.32,0-2.06.58-4.08,1.68-5.83,2.11-3.34,3.22-7.2,3.22-11.14,0-6.52-2.95-12.55-8.11-16.55Z"/>
      <g>
        <path class="cls-4" d="M106.02,50.04c0-4.78-2.15-9.48-6.17-12.6-1.65-1.28-3.02-2.85-4.03-4.62-1.03-1.77-1.71-3.75-1.99-5.81-1.08-7.91-7.85-13.77-15.78-13.77-.2,0-.41,0-.61.01-4.17.16-8.23-1.31-11.32-4.12-3.04-2.76-6.87-4.13-10.7-4.13s-7.66,1.37-10.7,4.13c-2.93,2.67-6.75,4.13-10.7,4.13-.2,0-.41,0-.62-.01-.2,0-.41-.01-.61-.01-7.93,0-14.7,5.86-15.78,13.77-.28,2.06-.97,4.03-1.99,5.81-1.02,1.77-2.39,3.35-4.03,4.62-4.02,3.12-6.17,7.82-6.17,12.6,0,2.91.8,5.85,2.45,8.48,1.61,2.57,2.45,5.51,2.45,8.49,0,1.12-.12,2.25-.36,3.37-.25,1.13-.36,2.26-.36,3.38,0,6.79,4.36,13.01,11.06,15.16,1.98.64,3.81,1.65,5.38,2.96,1.56,1.32,2.88,2.93,3.85,4.78.91,1.72,2.09,3.21,3.46,4.44,2.93,2.62,6.73,4.06,10.63,4.06,2.01,0,4.05-.38,6.01-1.19,1.93-.79,3.97-1.18,6.02-1.18s4.09.4,6.02,1.18c1.97.8,4,1.19,6.01,1.19,3.91,0,7.71-1.44,10.63-4.06,1.38-1.23,2.56-2.72,3.46-4.44.97-1.85,2.28-3.46,3.85-4.78,1.57-1.31,3.39-2.33,5.38-2.96,6.7-2.15,11.06-8.37,11.06-15.16,0-1.12-.11-2.24-.36-3.38-.24-1.12-.36-2.25-.36-3.37,0-2.99.84-5.93,2.45-8.49,1.65-2.63,2.45-5.56,2.45-8.48ZM55.42,92.81c-20.84,0-37.73-16.89-37.73-37.73S34.58,17.36,55.42,17.36s37.73,16.89,37.73,37.72-16.89,37.73-37.73,37.73Z"/>
        <path class="cls-1" d="M55.42,17.36c-20.84,0-37.73,16.89-37.73,37.72s16.89,37.73,37.73,37.73,37.73-16.89,37.73-37.73-16.89-37.72-37.73-37.72ZM55.42,88.66c-18.55,0-33.58-15.03-33.58-33.58s15.03-33.58,33.58-33.58,33.58,15.03,33.58,33.58-15.03,33.58-33.58,33.58Z"/>
        <path class="cls-2" d="M78.09,101.09v7.31c-3.19,1.77-6.83,2.75-10.63,2.75-2.84,0-5.63-.55-8.28-1.63-1.2-.49-2.46-.74-3.76-.74s-2.56.25-3.76.74c-2.64,1.08-5.43,1.63-8.27,1.63-3.8,0-7.45-.97-10.63-2.75v-7.31c2.93,2.62,6.73,4.06,10.63,4.06,2.01,0,4.05-.38,6.01-1.19,1.93-.79,3.97-1.18,6.02-1.18s4.09.4,6.02,1.18c1.97.8,4,1.19,6.01,1.19,3.91,0,7.71-1.44,10.63-4.06Z"/>
        <path class="cls-4" d="M78.09,108.41v40.75l-22.67-15.81-22.67,15.81v-40.75c3.19,1.77,6.83,2.75,10.63,2.75,2.84,0,5.63-.55,8.27-1.63,1.2-.49,2.47-.74,3.76-.74s2.56.25,3.76.74c2.65,1.08,5.44,1.63,8.28,1.63,3.8,0,7.45-.97,10.63-2.75Z"/>
        <path class="cls-2" d="M89,55.08c0,18.55-15.03,33.58-33.58,33.58s-33.58-15.03-33.58-33.58,15.03-33.58,33.58-33.58,33.58,15.03,33.58,33.58Z"/>
        <g>
          <path class="cls-1" d="M35.87,45.41v-3.13h1.95v6.84h-1.56l-2.15-3.13v3.13h-1.95v-6.84h1.56l2.15,3.13Z"/>
          <path class="cls-1" d="M44.75,48.25c-.7.68-1.55,1.03-2.57,1.03s-1.88-.34-2.58-1.03c-.7-.7-1.05-1.55-1.05-2.55s.35-1.86,1.05-2.54c.7-.69,1.56-1.04,2.58-1.04s1.88.35,2.57,1.04c.7.68,1.06,1.53,1.06,2.54s-.35,1.85-1.06,2.55ZM40.98,46.89c.32.31.72.47,1.2.47s.88-.16,1.19-.47c.32-.32.48-.72.48-1.19s-.16-.87-.48-1.18c-.31-.32-.71-.48-1.19-.48s-.88.16-1.2.48c-.31.31-.47.71-.47,1.18s.16.87.47,1.19Z"/>
          <path class="cls-1" d="M45.85,42.28h5.18v1.9h-1.61v4.94h-1.95v-4.94h-1.61v-1.9Z"/>
          <path class="cls-1" d="M57.19,49.12h-2.1l-.23-.88h-1.97l-.23.88h-2.1l2.18-6.84h2.29l2.18,6.84ZM53.86,44.58l-.57,2.1h1.13l-.57-2.1Z"/>
          <path class="cls-1" d="M64.71,42.28h1.95v6.84h-1.95v-3.33l-1.52,2.56h-.18l-1.52-2.56v3.33h-1.95v-6.84h1.95l1.61,2.78,1.61-2.78Z"/>
          <path class="cls-1" d="M73.7,49.12h-2.1l-.23-.88h-1.97l-.23.88h-2.1l2.18-6.84h2.29l2.18,6.84ZM70.38,44.58l-.57,2.1h1.13l-.57-2.1Z"/>
          <path class="cls-1" d="M76.4,49.28c-.74,0-1.35-.15-1.85-.46-.5-.31-.83-.73-1.01-1.26l1.67-.97c.23.58.64.87,1.23.87.44,0,.66-.12.66-.35,0-.14-.08-.25-.23-.31-.08-.03-.16-.06-.24-.09-.02,0-.14-.04-.35-.11l-.38-.11c-1.36-.41-2.04-1.14-2.04-2.2,0-.63.22-1.14.67-1.55.46-.41,1.06-.62,1.79-.62.59,0,1.11.14,1.56.42s.79.67,1.01,1.18l-1.62.95c-.19-.48-.5-.72-.94-.72-.16,0-.29.03-.38.1-.09.07-.14.15-.14.26,0,.14.07.25.22.33.14.07.44.17.89.3.61.18,1.09.4,1.46.65.46.31.68.81.68,1.49s-.24,1.23-.71,1.61-1.13.58-1.95.58Z"/>
          <path class="cls-1" d="M41.57,60.85h-2.1l-.23-.88h-1.97l-.23.88h-2.1l2.18-6.84h2.29l2.18,6.84ZM38.25,56.3l-.57,2.1h1.13l-.57-2.1Z"/>
          <path class="cls-1" d="M43.91,54.01v4.94h2.25v1.9h-4.2v-6.84h1.95Z"/>
          <path class="cls-1" d="M45.67,54.01h5.18v1.9h-1.61v4.94h-1.95v-4.94h-1.61v-1.9Z"/>
          <path class="cls-1" d="M57.01,60.85h-2.1l-.23-.88h-1.97l-.23.88h-2.1l2.18-6.84h2.29l2.18,6.84ZM53.68,56.3l-.57,2.1h1.13l-.57-2.1Z"/>
          <path class="cls-1" d="M59.35,54.01h2.83c.94,0,1.73.33,2.36.99.64.66.96,1.47.96,2.43s-.32,1.78-.96,2.44c-.63.65-1.42.98-2.36.98h-2.83v-6.84ZM61.4,58.95h.78c.4,0,.72-.14.98-.42.26-.28.39-.65.39-1.1s-.13-.82-.39-1.1c-.26-.28-.58-.43-.98-.43h-.78v3.05Z"/>
          <path class="cls-1" d="M68.19,58.29v.76h2.54v1.8h-4.49v-6.84h4.45v1.78h-2.49v.74h2.25v1.76h-2.25Z"/>
          <path class="cls-1" d="M73.47,54.01v4.94h2.25v1.9h-4.2v-6.84h1.95Z"/>
          <path class="cls-1" d="M47.33,72.73c-1.04,0-1.89-.34-2.56-1.03-.68-.69-1.02-1.54-1.02-2.55s.34-1.86,1.02-2.55c.67-.68,1.52-1.03,2.56-1.03.62,0,1.21.15,1.74.45s.96.7,1.26,1.21l-1.7.98c-.11-.22-.28-.4-.52-.53-.23-.13-.5-.2-.78-.2-.48,0-.87.16-1.17.47-.3.31-.45.7-.45,1.19s.15.89.45,1.19c.31.31.7.47,1.17.47.29,0,.55-.07.79-.2.23-.13.4-.31.51-.54l1.7.98c-.3.51-.72.92-1.26,1.22s-1.12.45-1.74.45Z"/>
          <path class="cls-1" d="M52.77,65.73v4.94h2.25v1.9h-4.2v-6.84h1.95Z"/>
          <path class="cls-1" d="M55.46,70.28v-4.55h1.95v4.34c0,.51.28.76.83.76s.83-.25.83-.76v-4.34h1.95v4.55c0,.73-.26,1.32-.77,1.77s-1.19.67-2.01.67-1.5-.22-2.01-.67c-.51-.45-.77-1.04-.77-1.77Z"/>
          <path class="cls-1" d="M66.3,69.04c.59.33.88.84.88,1.51,0,.63-.21,1.13-.62,1.48-.41.36-1,.53-1.77.53h-2.89v-6.84h2.72c.77,0,1.35.17,1.76.5.4.33.61.81.61,1.43s-.23,1.05-.68,1.39ZM64.5,67.41h-.65v.92h.75c.28-.05.42-.2.42-.46,0-.14-.05-.26-.15-.34-.1-.08-.23-.12-.38-.12ZM63.86,70.89h.82c.16,0,.29-.05.39-.14.1-.09.16-.21.16-.35,0-.27-.15-.43-.44-.48h-.93s0,.97,0,.97Z"/>
        </g>
      </g>
    </g>
  </g>
</svg>