<svg xmlns="http://www.w3.org/2000/svg" viewBox="0 0 24 24" width="14" height="14" fill="currentColor">
  <!-- Simplified flame and Bible icon -->
  <g>
    <!-- Flame -->
    <path d="M12 2c-.5 1.5-1 3-1 4.5 0 1.5.5 2.5 1 2.5s1-1 1-2.5c0-1.5-.5-3-1-4.5z" fill="#1a1a1a"/>
    <path d="M12 4c-.3.8-.5 1.5-.5 2.2 0 .7.2 1.3.5 1.3s.5-.6.5-1.3c0-.7-.2-1.4-.5-2.2z" fill="#1a1a1a"/>
    
    <!-- Open Bible -->
    <path d="M4 12h7v8H5c-.6 0-1-.4-1-1v-7z" fill="#1a1a1a"/>
    <path d="M13 12h7v7c0 .6-.4 1-1 1h-6v-8z" fill="#1a1a1a"/>
    <path d="M4 11h7v-1H5c-.6 0-1 .4-1 1z" fill="#1a1a1a"/>
    <path d="M13 11h7c0-.6-.4-1-1-1h-6v1z" fill="#1a1a1a"/>
    
    <!-- Page lines (subtle) -->
    <line x1="6" y1="14" x2="10" y2="14" stroke="#666" stroke-width="0.5" opacity="0.4"/>
    <line x1="6" y1="16" x2="10" y2="16" stroke="#666" stroke-width="0.5" opacity="0.4"/>
    <line x1="14" y1="14" x2="18" y2="14" stroke="#666" stroke-width="0.5" opacity="0.4"/>
    <line x1="14" y1="16" x2="18" y2="16" stroke="#666" stroke-width="0.5" opacity="0.4"/>
  </g>
</svg>
