<?xml version="1.0" encoding="UTF-8"?>
<svg id="Capa_2" data-name="Capa 2" xmlns="http://www.w3.org/2000/svg" viewBox="0 0 24 24">
  <defs>
    <style>
      .cls-1 {
        fill: #1d1d1b;
      }
    </style>
  </defs>
  <path class="cls-1" d="M12.26,2.8c.7,0,4.32.11,7.2,2.25,2.93,2.18,2.72,3.38,1.9,6.11-.85,2.86-5.83,10.15-9.35,10.18,0,0-.01,0-.02,0-3.52,0-8.51-7.31-9.37-10.18-.82-2.73-1.03-3.93,1.9-6.11,2.88-2.14,6.5-2.25,7.2-2.25.1,0,.16,0,.16,0,.03,0,.07,0,.1,0,.03,0,.06,0,.09,0,.02,0,.08,0,.17,0M12.26.8c-.17,0-.26,0-.26,0,0,0-.09,0-.26,0-1.06,0-5.07.17-8.39,2.64C-.52,6.31-.24,8.54.72,11.73c.95,3.19,6.44,11.61,11.28,11.61h0s0,0,0,0,0,0,0,0h0c4.85,0,10.33-8.42,11.28-11.61.95-3.19,1.24-5.42-2.63-8.29C17.33.98,13.32.8,12.26.8h0Z"/>
</svg>