<?xml version="1.0" encoding="UTF-8"?>
<svg id="Capa_2" data-name="Capa 2" xmlns="http://www.w3.org/2000/svg" viewBox="0 0 77.67 75.89">
  <defs>
    <style>
      .cls-1 {
        font-family: Gilroy-Black, Gilroy;
        font-size: 9px;
        font-weight: 800;
      }

      .cls-1, .cls-2 {
        fill: #fff;
      }

      .cls-3 {
        fill: #b68449;
      }
    </style>
  </defs>
  <g id="Capa_1-2" data-name="Capa 1">
    <g>
      <path class="cls-3" d="M77.67,0v71.6c0,3.46-3.9,5.5-6.74,3.52l-29.65-20.67c-1.47-1.03-3.43-1.03-4.9,0l-29.65,20.67c-2.84,1.98-6.74-.05-6.74-3.52V0h77.67Z"/>
      <text class="cls-1" transform="translate(22.9 16.65)"><tspan x="0" y="0">HONOR</tspan></text>
      <g>
        <path class="cls-2" d="M13.73,27.85l1.12,2.58,2.8.27c.59.06.84.8.39,1.19l-2.11,1.86.61,2.74c.13.58-.5,1.04-1.01.74l-2.42-1.43-2.42,1.43c-.51.3-1.14-.15-1.01-.74l.61-2.74-2.11-1.86c-.45-.4-.21-1.13.39-1.19l2.8-.27,1.12-2.58c.24-.55,1.02-.55,1.25,0Z"/>
        <path class="cls-2" d="M25.97,27.94s.13.01.17.11l1.12,2.58.12.27.29.03,2.8.27c.1,0,.14.08.16.13.01.04.03.12-.05.19l-2.11,1.86-.22.2.06.29.61,2.74c.01.06,0,.11-.03.15-.04.05-.09.07-.15.07-.03,0-.06,0-.09-.03l-2.42-1.43-.25-.15-.25.15-2.42,1.43s-.06.03-.09.03c-.05,0-.11-.03-.15-.07-.03-.04-.05-.09-.03-.15l.61-2.74.06-.29-.22-.2-2.11-1.86c-.08-.07-.07-.15-.05-.19.01-.04.05-.12.16-.13l2.8-.27.29-.03.12-.27,1.12-2.58c.04-.1.12-.11.17-.11M25.97,27.44c-.25,0-.51.14-.63.41l-1.12,2.58-2.8.27c-.59.06-.84.8-.39,1.19l2.11,1.86-.61,2.74c-.1.46.26.83.67.83.11,0,.23-.03.35-.1l2.42-1.43,2.42,1.43c.11.07.23.1.35.1.41,0,.77-.38.67-.83l-.61-2.74,2.11-1.86c.45-.4.21-1.13-.39-1.19l-2.8-.27-1.12-2.58c-.12-.27-.37-.41-.63-.41h0Z"/>
        <path class="cls-2" d="M38.83,27.94s.13.01.17.11l1.12,2.58.12.27.29.03,2.8.27c.1,0,.14.08.16.13.01.04.03.12-.05.19l-2.11,1.86-.22.2.06.29.61,2.74c.01.06,0,.11-.03.15-.04.05-.09.07-.15.07-.03,0-.06,0-.09-.03l-2.42-1.43-.25-.15-.25.15-2.42,1.43s-.06.03-.09.03c-.05,0-.11-.03-.15-.07-.03-.04-.05-.09-.03-.15l.61-2.74.06-.29-.22-.2-2.11-1.86c-.08-.07-.07-.15-.05-.19.01-.04.05-.12.16-.13l2.8-.27.29-.03.12-.27,1.12-2.58c.04-.1.12-.11.17-.11M38.83,27.44c-.25,0-.51.14-.63.41l-1.12,2.58-2.8.27c-.59.06-.84.8-.39,1.19l2.11,1.86-.61,2.74c-.1.46.26.83.67.83.11,0,.23-.03.35-.1l2.42-1.43,2.42,1.43c.11.07.23.1.35.1.41,0,.77-.38.67-.83l-.61-2.74,2.11-1.86c.45-.4.21-1.13-.39-1.19l-2.8-.27-1.12-2.58c-.12-.27-.37-.41-.63-.41h0Z"/>
        <path class="cls-2" d="M51.7,27.94s.13.01.17.11l1.12,2.58.12.27.29.03,2.8.27c.1,0,.14.08.16.13.01.04.03.12-.05.19l-2.11,1.86-.22.2.06.29.61,2.74c.01.06,0,.11-.03.15-.04.05-.09.07-.15.07-.03,0-.06,0-.09-.03l-2.42-1.43-.25-.15-.25.15-2.42,1.43s-.06.03-.09.03c-.05,0-.11-.03-.15-.07-.03-.04-.05-.09-.03-.15l.61-2.74.06-.29-.22-.2-2.11-1.86c-.08-.07-.07-.15-.05-.19.01-.04.05-.12.16-.13l2.8-.27.29-.03.12-.27,1.12-2.58c.04-.1.12-.11.17-.11M51.7,27.44c-.25,0-.51.14-.63.41l-1.12,2.58-2.8.27c-.59.06-.84.8-.39,1.19l2.11,1.86-.61,2.74c-.1.46.26.83.67.83.11,0,.23-.03.35-.1l2.42-1.43,2.42,1.43c.11.07.23.1.35.1.41,0,.77-.38.67-.83l-.61-2.74,2.11-1.86c.45-.4.21-1.13-.39-1.19l-2.8-.27-1.12-2.58c-.12-.27-.37-.41-.63-.41h0Z"/>
        <path class="cls-2" d="M64.57,27.94s.13.01.17.11l1.12,2.58.12.27.29.03,2.8.27c.1,0,.14.08.16.13.01.04.03.12-.05.19l-2.11,1.86-.22.2.06.29.61,2.74c.01.06,0,.11-.03.15-.04.05-.09.07-.15.07-.03,0-.06,0-.09-.03l-2.42-1.43-.25-.15-.25.15-2.42,1.43s-.06.03-.09.03c-.05,0-.11-.03-.15-.07-.03-.04-.05-.09-.03-.15l.61-2.74.06-.29-.22-.2-2.11-1.86c-.08-.07-.07-.15-.05-.19.01-.04.05-.12.16-.13l2.8-.27.29-.03.12-.27,1.12-2.58c.04-.1.12-.11.17-.11M64.57,27.44c-.25,0-.51.14-.63.41l-1.12,2.58-2.8.27c-.59.06-.84.8-.39,1.19l2.11,1.86-.61,2.74c-.1.46.26.83.67.83.11,0,.23-.03.35-.1l2.42-1.43,2.42,1.43c.11.07.23.1.35.1.41,0,.77-.38.67-.83l-.61-2.74,2.11-1.86c.45-.4.21-1.13-.39-1.19l-2.8-.27-1.12-2.58c-.12-.27-.37-.41-.63-.41h0Z"/>
      </g>
    </g>
  </g>
</svg>