<?xml version="1.0" encoding="UTF-8"?>
<svg id="Capa_4" data-name="Capa 4" xmlns="http://www.w3.org/2000/svg" viewBox="0 0 890.55 327.73">
  <defs>
    <style>
      .cls-1 {
        fill: #fff;
      }
    </style>
  </defs>
  <path class="cls-1" d="M228.42,50.31l-12.45,4.43-65.35,23.28-11.54-13.23L82.59,0,0,44.9v135.79s-.21,147.04,150.62,147.04,150.62-147.04,150.62-147.04V24.38l-72.82,25.93ZM89.37,34.68l49.72,57.01v58.87s-4.93,71.45,51.4,81.94c-10.67,13.36-25.02,25.47-43.21,33.01-60.88-24.17-57.91-85.11-57.91-85.11V34.68ZM283.56,180.69c0,.31-.34,33.94-17.34,66.5-21.8,41.71-60.7,62.86-115.6,62.86-44.18,0-78.01-13.7-100.89-40.79,83.65,38.35,135.68,3.83,160.26-34.09,17.24-26.61,18.43-56.66,18.43-56.79v-109.3l55.14-19.64v131.25Z"/>
  <g>
    <g>
      <path class="cls-1" d="M442.41,214.17c-16.93,0-30.83-4.77-41.68-14.33-10.85-9.55-16.28-22.36-16.28-38.43V59.17h29.74v99.86c0,8.11,2.35,14.44,7.06,19,4.7,4.56,11.76,6.84,21.17,6.84s16.46-2.28,21.17-6.84c4.7-4.56,7.06-10.89,7.06-19V59.17h29.96v102.25c0,16.07-5.43,28.87-16.28,38.43-10.85,9.55-24.82,14.33-41.9,14.33Z"/>
      <path class="cls-1" d="M586.56,99.55c12.01,0,21.78,3.98,29.31,11.94,7.81,8.11,11.72,19.1,11.72,33v66.65h-28.01v-63.17c0-7.09-1.92-12.59-5.75-16.5-3.84-3.91-9.08-5.86-15.74-5.86-7.38,0-13.21,2.28-17.48,6.84-4.27,4.56-6.4,11.25-6.4,20.08v58.62h-28.01v-108.55h28.01v12.16c6.65-10.13,17.44-15.2,32.35-15.2Z"/>
      <path class="cls-1" d="M665.37,89.56c-4.63,0-8.65-1.7-12.05-5.1-3.4-3.4-5.1-7.41-5.1-12.05s1.7-8.68,5.1-12.16c3.4-3.47,7.41-5.21,12.05-5.21s8.86,1.74,12.27,5.21c3.4,3.47,5.1,7.53,5.1,12.16s-1.7,8.65-5.1,12.05c-3.4,3.4-7.49,5.1-12.27,5.1ZM679.48,211.13h-28.01v-108.55h28.01v108.55Z"/>
      <path class="cls-1" d="M767.18,102.58v26.92h-24.53v45.16c0,3.77.94,6.51,2.82,8.25,1.88,1.74,4.63,2.71,8.25,2.93,3.62.22,8.1.18,13.46-.11v25.4c-18.96,2.17-32.46.4-40.49-5.32-8.03-5.72-12.05-16.1-12.05-31.15v-45.16h-18.89v-26.92h18.89v-21.93l28.01-8.47v30.39h24.53Z"/>
      <path class="cls-1" d="M836,175.53l24.1-72.94h29.96l-39.51,108.55c-5.65,15.63-13.14,44.77-22.47,51.79-9.34,7.02-20.95,9.46-34.84,8.73v-26.05c7.38.14,13.31-.74,17.8-4.07,4.48-3.33,8.03-26.5,10.64-33.88l-44.5-105.07h30.61l28.22,72.94Z"/>
    </g>
    <rect class="cls-1" x="384.45" y="245.5" width="281.03" height="26.15"/>
    <g>
      <path class="cls-1" d="M699.26,272.69c-4.06,0-7.43-1.36-10.12-4.07-2.66-2.69-3.99-6.03-3.99-10.04s1.33-7.38,3.99-10.04c2.69-2.71,6.06-4.07,10.12-4.07,2.45,0,4.72.58,6.8,1.72,2.08,1.15,3.7,2.71,4.86,4.67l-4.61,2.67c-.67-1.21-1.63-2.16-2.87-2.85-1.24-.68-2.64-1.03-4.19-1.03-2.64,0-4.77.83-6.39,2.48-1.6,1.68-2.4,3.82-2.4,6.43s.8,4.72,2.4,6.39c1.63,1.65,3.76,2.48,6.39,2.48,1.55,0,2.95-.34,4.21-1.03,1.25-.68,2.2-1.62,2.85-2.81l4.61,2.67c-1.16,1.96-2.78,3.52-4.86,4.67-2.08,1.15-4.35,1.72-6.8,1.72Z"/>
      <path class="cls-1" d="M719.57,245.02v22.01h10.35v5.12h-15.7v-27.13h5.35Z"/>
      <path class="cls-1" d="M742.63,272.69c-3.02,0-5.5-.85-7.44-2.56s-2.91-3.99-2.91-6.86v-18.25h5.31v17.83c0,1.45.42,2.58,1.26,3.39.84.81,2.1,1.22,3.78,1.22s2.94-.41,3.78-1.22c.84-.81,1.26-1.94,1.26-3.39v-17.83h5.35v18.25c0,2.87-.97,5.15-2.91,6.86-1.94,1.71-4.43,2.56-7.48,2.56Z"/>
      <path class="cls-1" d="M774.22,258.08c2.38,1.37,3.57,3.44,3.57,6.2,0,2.3-.81,4.19-2.44,5.66-1.63,1.47-3.63,2.21-6.01,2.21h-11.51v-27.13h10.7c2.3,0,4.25.72,5.85,2.17,1.6,1.45,2.4,3.27,2.4,5.46s-.85,4.06-2.56,5.43ZM768.52,250.02h-5.35v5.97h5.35c.83,0,1.52-.28,2.07-.85.56-.57.83-1.28.83-2.13s-.27-1.56-.81-2.13c-.54-.57-1.24-.85-2.09-.85ZM763.17,267.15h6.16c.9,0,1.65-.3,2.25-.91.59-.61.89-1.38.89-2.31s-.3-1.66-.89-2.27c-.59-.61-1.34-.91-2.25-.91h-6.16v6.4Z"/>
    </g>
  </g>
</svg>