<?xml version="1.0" encoding="UTF-8"?>
<svg id="Capa_2" data-name="Capa 2" xmlns="http://www.w3.org/2000/svg" viewBox="0 0 111.21 158.74">
  <defs>
    <style>
      .cls-1 {
        fill: #dbc9e4;
      }

      .cls-2 {
        fill: #7d519c;
      }

      .cls-3 {
        fill: #362255;
      }

      .cls-4 {
        fill: #fff;
      }
    </style>
  </defs>
  <g id="Capa_1-2" data-name="Capa 1">
    <g>
      <path class="cls-4" d="M103.11,33.48c-1.12-.87-2.06-1.94-2.77-3.17-.71-1.23-1.17-2.57-1.37-3.98-1.41-10.32-10.32-18.09-20.74-18.09-.24,0-.47,0-.8.02-.14,0-.28,0-.43,0-2.72,0-5.33-1.01-7.34-2.83-3.86-3.5-8.85-5.43-14.06-5.43s-10.2,1.93-14.07,5.43c-2,1.82-4.61,2.83-7.33,2.83-.15,0-.3,0-.52-.01-.24,0-.48-.01-.71-.01-10.42,0-19.33,7.78-20.74,18.09-.19,1.41-.65,2.75-1.37,3.99-.71,1.23-1.64,2.29-2.77,3.17C2.95,37.49,0,43.52,0,50.04c0,3.94,1.11,7.8,3.22,11.14,1.1,1.75,1.68,3.77,1.68,5.83,0,.77-.08,1.55-.25,2.31-.32,1.45-.47,2.94-.47,4.44,0,9.12,5.84,17.13,14.54,19.92,1.35.43,2.6,1.12,3.68,2.02,1.1.92,1.99,2.03,2.65,3.28.8,1.52,1.77,2.91,2.89,4.17v55.59l27.67-19.29,27.67,19.29v-55.59c1.12-1.26,2.09-2.66,2.89-4.17.66-1.26,1.55-2.36,2.63-3.27,1.1-.92,2.34-1.6,3.7-2.04,8.69-2.79,14.53-10.8,14.53-19.92,0-1.5-.16-2.99-.47-4.43-.16-.76-.25-1.54-.25-2.32,0-2.06.58-4.08,1.68-5.83,2.11-3.34,3.22-7.2,3.22-11.14,0-6.52-2.95-12.55-8.11-16.55Z"/>
      <g>
        <path class="cls-2" d="M106.81,49.96c0-4.84-2.18-9.61-6.25-12.77-1.67-1.29-3.06-2.89-4.09-4.69-1.04-1.8-1.73-3.8-2.02-5.89-1.09-8.02-7.96-13.96-16-13.96-.21,0-.41,0-.62.01-4.22.16-8.34-1.33-11.47-4.17-3.08-2.8-6.96-4.19-10.85-4.19s-7.77,1.39-10.85,4.19c-2.97,2.7-6.84,4.19-10.85,4.19-.21,0-.41,0-.63-.01-.21,0-.41-.01-.62-.01-8.04,0-14.91,5.94-16,13.96-.29,2.09-.98,4.09-2.02,5.89-1.03,1.79-2.42,3.39-4.09,4.69-4.08,3.17-6.25,7.93-6.25,12.77,0,2.95.81,5.93,2.49,8.59,1.63,2.6,2.49,5.58,2.49,8.61,0,1.14-.12,2.28-.36,3.42-.25,1.15-.36,2.29-.36,3.42,0,6.88,4.42,13.19,11.21,15.37,2.01.64,3.86,1.67,5.45,3,1.59,1.34,2.92,2.97,3.9,4.84.92,1.74,2.11,3.26,3.51,4.5,2.97,2.66,6.82,4.12,10.78,4.12,2.04,0,4.1-.39,6.09-1.2,1.96-.8,4.03-1.2,6.11-1.2s4.15.4,6.11,1.2c1.99.81,4.06,1.2,6.09,1.2,3.96,0,7.81-1.46,10.78-4.12,1.4-1.25,2.59-2.76,3.51-4.5.98-1.87,2.32-3.51,3.9-4.84,1.59-1.33,3.44-2.36,5.45-3,6.79-2.18,11.21-8.49,11.21-15.37,0-1.13-.12-2.27-.36-3.42-.24-1.13-.36-2.28-.36-3.42,0-3.03.85-6.01,2.49-8.61,1.68-2.66,2.49-5.64,2.49-8.59ZM55.51,93.31c-21.12,0-38.25-17.12-38.25-38.25S34.39,16.83,55.51,16.83s38.25,17.12,38.25,38.24-17.12,38.25-38.25,38.25Z"/>
        <path class="cls-1" d="M55.51,16.83c-21.12,0-38.25,17.12-38.25,38.24s17.12,38.25,38.25,38.25,38.25-17.12,38.25-38.25-17.12-38.24-38.25-38.24ZM55.51,89.11c-18.8,0-34.04-15.24-34.04-34.04s15.24-34.04,34.04-34.04,34.04,15.24,34.04,34.04-15.24,34.04-34.04,34.04Z"/>
        <path class="cls-3" d="M78.49,101.71v7.41c-3.23,1.8-6.93,2.78-10.78,2.78-2.88,0-5.71-.56-8.39-1.65-1.22-.5-2.5-.75-3.81-.75s-2.59.25-3.82.75c-2.68,1.09-5.51,1.65-8.39,1.65-3.85,0-7.55-.98-10.78-2.78v-7.41c2.97,2.66,6.82,4.12,10.78,4.12,2.04,0,4.1-.39,6.09-1.2,1.96-.8,4.03-1.2,6.11-1.2s4.15.4,6.11,1.2c1.99.81,4.06,1.2,6.09,1.2,3.96,0,7.81-1.46,10.78-4.12Z"/>
        <path class="cls-2" d="M78.49,109.13v41.31l-22.98-16.02-22.98,16.02v-41.31c3.23,1.8,6.93,2.78,10.78,2.78,2.88,0,5.71-.56,8.39-1.65,1.22-.5,2.5-.75,3.82-.75s2.59.25,3.81.75c2.69,1.09,5.51,1.65,8.39,1.65,3.85,0,7.55-.98,10.78-2.78Z"/>
        <path class="cls-3" d="M89.55,55.07c0,18.8-15.24,34.04-34.04,34.04s-34.04-15.24-34.04-34.04,15.24-34.04,34.04-34.04,34.04,15.24,34.04,34.04Z"/>
        <g>
          <path class="cls-1" d="M35.7,42.22v-3.17h1.98v6.93h-1.58l-2.18-3.17v3.17h-1.98v-6.93h1.58l2.18,3.17Z"/>
          <path class="cls-1" d="M44.7,45.11c-.71.69-1.57,1.04-2.6,1.04s-1.9-.35-2.61-1.04c-.71-.71-1.06-1.57-1.06-2.59s.35-1.88,1.06-2.57c.71-.7,1.58-1.05,2.61-1.05s1.9.35,2.6,1.05c.71.69,1.07,1.55,1.07,2.57s-.36,1.88-1.07,2.59ZM40.88,43.73c.32.32.73.48,1.22.48s.89-.16,1.21-.48c.32-.32.49-.73.49-1.21s-.16-.88-.49-1.2c-.32-.32-.72-.49-1.21-.49s-.89.16-1.22.49c-.32.32-.48.72-.48,1.2s.16.88.48,1.21Z"/>
          <path class="cls-1" d="M45.82,39.06h5.25v1.92h-1.63v5.01h-1.98v-5.01h-1.63v-1.92Z"/>
          <path class="cls-1" d="M57.31,45.99h-2.13l-.24-.89h-2l-.24.89h-2.13l2.21-6.93h2.32l2.21,6.93ZM53.94,41.38l-.57,2.13h1.15l-.57-2.13Z"/>
          <path class="cls-1" d="M64.93,39.06h1.98v6.93h-1.98v-3.38l-1.55,2.6h-.18l-1.55-2.6v3.38h-1.98v-6.93h1.98l1.63,2.82,1.63-2.82Z"/>
          <path class="cls-1" d="M74.04,45.99h-2.13l-.24-.89h-2l-.24.89h-2.13l2.21-6.93h2.32l2.21,6.93ZM70.68,41.38l-.58,2.13h1.15l-.57-2.13Z"/>
          <path class="cls-1" d="M76.79,46.15c-.75,0-1.37-.16-1.87-.47-.5-.31-.84-.74-1.02-1.28l1.69-.98c.23.59.65.88,1.25.88.45,0,.67-.12.67-.36,0-.15-.08-.25-.24-.32-.08-.03-.16-.06-.25-.09-.02,0-.14-.04-.36-.11l-.39-.11c-1.38-.42-2.07-1.16-2.07-2.23,0-.63.23-1.16.68-1.57.47-.42,1.07-.62,1.81-.62.59,0,1.12.14,1.58.42.46.28.8.68,1.02,1.19l-1.64.96c-.19-.49-.51-.73-.95-.73-.16,0-.29.03-.39.1-.09.07-.14.16-.14.26,0,.15.08.26.23.34.15.07.45.18.9.31.61.19,1.11.41,1.47.66.46.32.69.82.69,1.52s-.24,1.24-.72,1.63c-.48.39-1.14.58-1.98.58Z"/>
          <path class="cls-1" d="M43.9,57.87h-2.13l-.24-.89h-2l-.24.89h-2.13l2.21-6.93h2.32l2.21,6.93ZM40.53,53.27l-.57,2.13h1.15l-.57-2.13Z"/>
          <path class="cls-1" d="M46.28,50.94v5.01h2.28v1.92h-4.26v-6.93h1.98Z"/>
          <path class="cls-1" d="M48.06,50.94h5.25v1.92h-1.63v5.01h-1.98v-5.01h-1.63v-1.92Z"/>
          <path class="cls-1" d="M59.55,57.87h-2.13l-.24-.89h-2l-.24.89h-2.13l2.21-6.93h2.32l2.21,6.93ZM56.18,53.27l-.57,2.13h1.15l-.57-2.13Z"/>
          <path class="cls-1" d="M61.93,50.94h2.87c.95,0,1.75.33,2.4,1,.65.67.97,1.49.97,2.47s-.32,1.81-.97,2.48c-.64.66-1.44.99-2.4.99h-2.87v-6.93ZM64,55.95h.79c.4,0,.73-.14.99-.43.26-.29.39-.66.39-1.11s-.13-.83-.39-1.11c-.26-.29-.59-.43-.99-.43h-.79v3.09Z"/>
          <path class="cls-1" d="M70.89,55.28v.77h2.57v1.82h-4.56v-6.93h4.51v1.8h-2.53v.75h2.28v1.78h-2.28Z"/>
          <path class="cls-1" d="M33.01,62.82v5.01h2.28v1.92h-4.26v-6.93h1.98Z"/>
          <path class="cls-1" d="M42.22,69.76h-2.13l-.24-.89h-2l-.24.89h-2.13l2.21-6.93h2.32l2.21,6.93ZM38.85,65.15l-.57,2.13h1.15l-.57-2.13Z"/>
          <path class="cls-1" d="M44.5,67.44v-4.61h1.98v4.4c0,.51.28.77.84.77s.84-.26.84-.77v-4.4h1.98v4.61c0,.74-.26,1.34-.78,1.79s-1.2.68-2.04.68-1.52-.23-2.04-.68-.78-1.05-.78-1.79Z"/>
          <path class="cls-1" d="M54.8,65.99v-3.17h1.98v6.93h-1.58l-2.18-3.17v3.17h-1.98v-6.93h1.58l2.18,3.17Z"/>
          <path class="cls-1" d="M57.77,69.76v-6.93h1.98v6.93h-1.98Z"/>
          <path class="cls-1" d="M60.74,62.82h2.87c.95,0,1.75.33,2.4,1,.65.67.97,1.49.97,2.47s-.32,1.81-.97,2.48c-.64.66-1.44.99-2.4.99h-2.87v-6.93ZM62.82,67.84h.79c.4,0,.73-.14.99-.43.26-.29.39-.66.39-1.11s-.13-.83-.39-1.11c-.26-.29-.59-.43-.99-.43h-.79v3.09Z"/>
          <path class="cls-1" d="M73.61,69.76h-2.13l-.24-.89h-2l-.24.89h-2.13l2.21-6.93h2.32l2.21,6.93ZM70.25,65.15l-.58,2.13h1.15l-.57-2.13Z"/>
          <path class="cls-1" d="M74.01,62.82h2.87c.95,0,1.75.33,2.4,1,.65.67.97,1.49.97,2.47s-.32,1.81-.97,2.48c-.64.66-1.44.99-2.4.99h-2.87v-6.93ZM76.09,67.84h.79c.4,0,.73-.14.99-.43.26-.29.39-.66.39-1.11s-.13-.83-.39-1.11c-.26-.29-.59-.43-.99-.43h-.79v3.09Z"/>
        </g>
      </g>
    </g>
  </g>
</svg>