<?xml version="1.0" encoding="UTF-8"?>
<svg id="Capa_2" data-name="Capa 2" xmlns="http://www.w3.org/2000/svg" viewBox="0 0 77.67 75.89">
  <defs>
    <style>
      .cls-1 {
        font-family: Gilroy-Black, Gilroy;
        font-size: 9px;
        font-weight: 800;
      }

      .cls-1, .cls-2 {
        fill: #fff;
      }

      .cls-3 {
        fill: #6e3e91;
      }

      .cls-4 {
        letter-spacing: -.03em;
      }

      .cls-5 {
        letter-spacing: 0em;
      }

      .cls-6 {
        letter-spacing: -.01em;
      }
    </style>
  </defs>
  <g id="Capa_1-2" data-name="Capa 1">
    <g>
      <path class="cls-3" d="M77.67,0v71.6c0,3.46-3.9,5.5-6.74,3.52l-29.65-20.67c-1.47-1.03-3.43-1.03-4.9,0l-29.65,20.67c-2.84,1.98-6.74-.05-6.74-3.52V0h77.67Z"/>
      <text class="cls-1" transform="translate(12.09 16.65)"><tspan x="0" y="0">PERF</tspan><tspan class="cls-5" x="20.38" y="0">E</tspan><tspan class="cls-4" x="25.15" y="0">C</tspan><tspan class="cls-6" x="31.36" y="0">C</tspan><tspan x="37.7" y="0">IÓN</tspan></text>
      <g>
        <path class="cls-2" d="M13.73,27.85l1.12,2.58,2.8.27c.59.06.84.8.39,1.19l-2.11,1.86.61,2.74c.13.58-.5,1.04-1.01.74l-2.42-1.43-2.42,1.43c-.51.3-1.14-.15-1.01-.74l.61-2.74-2.11-1.86c-.45-.4-.21-1.13.39-1.19l2.8-.27,1.12-2.58c.24-.55,1.02-.55,1.25,0Z"/>
        <path class="cls-2" d="M26.59,27.85l1.12,2.58,2.8.27c.59.06.84.8.39,1.19l-2.11,1.86.61,2.74c.13.58-.5,1.04-1.01.74l-2.42-1.43-2.42,1.43c-.51.3-1.14-.15-1.01-.74l.61-2.74-2.11-1.86c-.45-.4-.21-1.13.39-1.19l2.8-.27,1.12-2.58c.24-.55,1.02-.55,1.25,0Z"/>
        <path class="cls-2" d="M39.46,27.85l1.12,2.58,2.8.27c.59.06.84.8.39,1.19l-2.11,1.86.61,2.74c.13.58-.5,1.04-1.01.74l-2.42-1.43-2.42,1.43c-.51.3-1.14-.15-1.01-.74l.61-2.74-2.11-1.86c-.45-.4-.21-1.13.39-1.19l2.8-.27,1.12-2.58c.24-.55,1.02-.55,1.25,0Z"/>
        <path class="cls-2" d="M52.33,27.85l1.12,2.58,2.8.27c.59.06.84.8.39,1.19l-2.11,1.86.61,2.74c.13.58-.5,1.04-1.01.74l-2.42-1.43-2.42,1.43c-.51.3-1.14-.15-1.01-.74l.61-2.74-2.11-1.86c-.45-.4-.21-1.13.39-1.19l2.8-.27,1.12-2.58c.24-.55,1.02-.55,1.25,0Z"/>
        <path class="cls-2" d="M65.19,27.85l1.12,2.58,2.8.27c.59.06.84.8.39,1.19l-2.11,1.86.61,2.74c.13.58-.5,1.04-1.01.74l-2.42-1.43-2.42,1.43c-.51.3-1.14-.15-1.01-.74l.61-2.74-2.11-1.86c-.45-.4-.21-1.13.39-1.19l2.8-.27,1.12-2.58c.24-.55,1.02-.55,1.25,0Z"/>
      </g>
    </g>
  </g>
</svg>